TenaliRamakrishna-Regular.ufo
<glyph name="exclam" format="1">
  <advance width="168"/>
  <unicode hex="0021"/>
  <outline>
    <contour>
      <point x="116" y="367" type="line" name="hr00"/>
      <point x="110" y="349"/>
      <point x="107" y="313"/>
      <point x="106" y="295" type="qcurve"/>
      <point x="101" y="85" type="line"/>
      <point x="67" y="85" type="line"/>
      <point x="62" y="295" type="line"/>
      <point x="62" y="330"/>
      <point x="52" y="367" type="qcurve"/>
    </contour>
    <contour>
      <point x="62" y="4" type="qcurve"/>
      <point x="52" y="14"/>
      <point x="52" y="27" type="qcurve"/>
      <point x="52" y="41"/>
      <point x="62" y="50" type="qcurve"/>
      <point x="71" y="59"/>
      <point x="85" y="59" type="qcurve"/>
      <point x="97" y="59"/>
      <point x="106" y="50" type="qcurve"/>
      <point x="116" y="41"/>
      <point x="116" y="27" type="qcurve"/>
      <point x="116" y="14"/>
      <point x="106" y="4" type="qcurve"/>
      <point x="97" y="-5"/>
      <point x="85" y="-5" type="qcurve"/>
      <point x="70" y="-5"/>
    </contour>
  </outline>
</glyph>
<glyph name="quotedbl" format="1">
  <advance width="221"/>
  <unicode hex="0022"/>
  <outline>
    <contour>
      <point x="172" y="372" type="line" name="hr00"/>
      <point x="165" y="339"/>
      <point x="165" y="272" type="qcurve"/>
      <point x="129" y="272" type="line"/>
      <point x="129" y="339"/>
      <point x="121" y="372" type="qcurve"/>
    </contour>
    <contour>
      <point x="100" y="372" type="line"/>
      <point x="96" y="354"/>
      <point x="92" y="304"/>
      <point x="92" y="272" type="qcurve"/>
      <point x="56" y="272" type="line"/>
      <point x="56" y="339"/>
      <point x="48" y="372" type="qcurve"/>
    </contour>
  </outline>
</glyph>
<glyph name="numbersign" format="1">
  <advance width="331"/>
  <unicode hex="0023"/>
  <outline>
    <contour>
      <point x="138" y="209" type="line"/>
      <point x="138" y="155" type="line" name="hr01"/>
      <point x="192" y="155" type="line" name="hr02"/>
      <point x="192" y="209" type="line"/>
    </contour>
    <contour>
      <point x="146" y="298" type="line" name="hr03"/>
      <point x="139" y="269"/>
      <point x="139" y="239" type="qcurve"/>
      <point x="192" y="239" type="line"/>
      <point x="190" y="269"/>
      <point x="185" y="299" type="qcurve"/>
      <point x="229" y="299" type="line"/>
      <point x="223" y="268"/>
      <point x="223" y="239" type="qcurve"/>
      <point x="238" y="240"/>
      <point x="267" y="243"/>
      <point x="282" y="246" type="qcurve"/>
      <point x="282" y="201" type="line" name="hr04"/>
      <point x="267" y="205"/>
      <point x="238" y="208"/>
      <point x="223" y="209" type="qcurve"/>
      <point x="223" y="155" type="line" name="hr05"/>
      <point x="238" y="156"/>
      <point x="267" y="160"/>
      <point x="282" y="163" type="qcurve"/>
      <point x="282" y="118" type="line"/>
      <point x="253" y="124"/>
      <point x="223" y="124" type="qcurve" name="hr06"/>
      <point x="223" y="95"/>
      <point x="229" y="65" type="qcurve"/>
      <point x="185" y="65" type="line" name="hr07"/>
      <point x="191" y="96"/>
      <point x="192" y="125" type="qcurve"/>
      <point x="138" y="125" type="line" name="hr08"/>
      <point x="139" y="110"/>
      <point x="142" y="80"/>
      <point x="146" y="65" type="qcurve"/>
      <point x="101" y="65" type="line" name="hr09"/>
      <point x="104" y="80"/>
      <point x="107" y="109"/>
      <point x="108" y="124" type="qcurve"/>
      <point x="78" y="124"/>
      <point x="49" y="118" type="qcurve"/>
      <point x="49" y="163" type="line"/>
      <point x="64" y="160"/>
      <point x="93" y="156"/>
      <point x="108" y="155" type="qcurve"/>
      <point x="108" y="209" type="line" name="hr10"/>
      <point x="93" y="208"/>
      <point x="63" y="205"/>
      <point x="48" y="201" type="qcurve"/>
      <point x="48" y="246" type="line"/>
      <point x="76" y="241"/>
      <point x="108" y="239" type="qcurve"/>
      <point x="107" y="254"/>
      <point x="104" y="283"/>
      <point x="101" y="298" type="qcurve"/>
    </contour>
  </outline>
</glyph>
<glyph name="dollar" format="1">
  <advance width="271"/>
  <unicode hex="0024"/>
  <outline>
    <contour>
      <point x="149" y="-44" type="line"/>
      <point x="124" y="-44" type="line"/>
      <point x="124" y="-4" type="line"/>
      <point x="122" y="-5"/>
      <point x="118" y="-5" type="qcurve"/>
      <point x="67" y="-5"/>
      <point x="29" y="31" type="qcurve"/>
      <point x="29" y="94" type="line" name="hr01"/>
      <point x="32" y="94" type="line"/>
      <point x="42" y="73"/>
      <point x="55" y="59" type="qcurve"/>
      <point x="84" y="26"/>
      <point x="121" y="26" type="qcurve"/>
      <point x="124" y="26" type="line"/>
      <point x="124" y="187" type="line"/>
      <point x="106" y="197" type="line"/>
      <point x="47" y="230"/>
      <point x="47" y="289" type="qcurve"/>
      <point x="47" y="329"/>
      <point x="84" y="356" type="qcurve"/>
      <point x="101" y="367"/>
      <point x="124" y="371" type="qcurve"/>
      <point x="124" y="411" type="line"/>
      <point x="149" y="411" type="line"/>
      <point x="149" y="372" type="line" name="hr02"/>
      <point x="179" y="372"/>
      <point x="204" y="349" type="qcurve"/>
      <point x="204" y="298" type="line" name="hr03"/>
      <point x="201" y="298" type="line"/>
      <point x="199" y="301"/>
      <point x="196" y="309"/>
      <point x="194" y="313" type="qcurve" name="hr04"/>
      <point x="175" y="341"/>
      <point x="149" y="342" type="qcurve"/>
      <point x="149" y="230" type="line"/>
      <point x="177" y="215" type="line"/>
      <point x="246" y="179"/>
      <point x="246" y="110" type="qcurve"/>
      <point x="246" y="61"/>
      <point x="213" y="32" type="qcurve"/>
      <point x="198" y="19"/>
      <point x="167" y="2"/>
      <point x="149" y="-2" type="qcurve"/>
    </contour>
    <contour>
      <point x="124" y="340" type="line"/>
      <point x="116" y="336"/>
      <point x="109" y="330" type="qcurve"/>
      <point x="91" y="315"/>
      <point x="91" y="291" type="qcurve"/>
      <point x="91" y="264"/>
      <point x="124" y="243" type="qcurve" name="hr05"/>
    </contour>
    <contour>
      <point x="149" y="174" type="line"/>
      <point x="149" y="30" type="line"/>
      <point x="168" y="36"/>
      <point x="181" y="52" type="qcurve" name="hr06"/>
      <point x="200" y="73"/>
      <point x="200" y="104" type="qcurve"/>
      <point x="200" y="146"/>
      <point x="159" y="168" type="qcurve"/>
    </contour>
  </outline>
</glyph>
<glyph name="percent" format="1">
  <advance width="382"/>
  <unicode hex="0025"/>
  <outline>
    <contour>
      <point x="289" y="31" type="qcurve"/>
      <point x="300" y="43"/>
      <point x="300" y="69" type="qcurve"/>
      <point x="300" y="93"/>
      <point x="289" y="105" type="qcurve"/>
      <point x="280" y="119"/>
      <point x="265" y="119" type="qcurve"/>
      <point x="250" y="119"/>
      <point x="240" y="105" type="qcurve"/>
      <point x="229" y="91"/>
      <point x="229" y="69" type="qcurve"/>
      <point x="229" y="45"/>
      <point x="240" y="31" type="qcurve"/>
      <point x="250" y="17"/>
      <point x="265" y="17" type="qcurve"/>
      <point x="280" y="17"/>
    </contour>
    <contour>
      <point x="315" y="118" type="qcurve"/>
      <point x="334" y="96"/>
      <point x="334" y="69" type="qcurve" name="hr01"/>
      <point x="334" y="39"/>
      <point x="315" y="18" type="qcurve" name="hr02"/>
      <point x="295" y="-5"/>
      <point x="265" y="-5" type="qcurve"/>
      <point x="232" y="-5"/>
      <point x="214" y="18" type="qcurve"/>
      <point x="196" y="37"/>
      <point x="196" y="69" type="qcurve"/>
      <point x="196" y="99"/>
      <point x="214" y="118" type="qcurve"/>
      <point x="234" y="141"/>
      <point x="265" y="141" type="qcurve"/>
      <point x="296" y="141"/>
    </contour>
    <contour>
      <point x="142" y="262" type="qcurve"/>
      <point x="153" y="276"/>
      <point x="153" y="299" type="qcurve"/>
      <point x="153" y="322"/>
      <point x="142" y="336" type="qcurve"/>
      <point x="133" y="349"/>
      <point x="118" y="349" type="qcurve"/>
      <point x="103" y="349"/>
      <point x="93" y="336" type="qcurve"/>
      <point x="82" y="325"/>
      <point x="82" y="299" type="qcurve"/>
      <point x="82" y="274"/>
      <point x="93" y="262" type="qcurve"/>
      <point x="103" y="249"/>
      <point x="118" y="249" type="qcurve"/>
      <point x="133" y="249"/>
    </contour>
    <contour>
      <point x="168" y="349" type="qcurve"/>
      <point x="186" y="330"/>
      <point x="186" y="299" type="qcurve"/>
      <point x="186" y="270"/>
      <point x="168" y="249" type="qcurve"/>
      <point x="149" y="226"/>
      <point x="118" y="226" type="qcurve"/>
      <point x="86" y="226"/>
      <point x="66" y="249" type="qcurve"/>
      <point x="48" y="272"/>
      <point x="48" y="299" type="qcurve"/>
      <point x="48" y="328"/>
      <point x="67" y="349" type="qcurve"/>
      <point x="87" y="372"/>
      <point x="118" y="372" type="qcurve"/>
      <point x="149" y="372"/>
    </contour>
    <contour>
      <point x="81" y="0" type="line"/>
      <point x="103" y="28"/>
      <point x="119" y="63" type="qcurve"/>
      <point x="226" y="298" type="line"/>
      <point x="243" y="333"/>
      <point x="251" y="367" type="qcurve"/>
      <point x="304" y="367" type="line" name="hr03"/>
      <point x="294" y="352"/>
      <point x="275" y="322"/>
      <point x="268" y="304" type="qcurve"/>
      <point x="160" y="70" type="line"/>
      <point x="152" y="54"/>
      <point x="140" y="19"/>
      <point x="135" y="0" type="qcurve"/>
    </contour>
  </outline>
</glyph>
<glyph name="ampersand" format="1">
  <advance width="441"/>
  <unicode hex="0026"/>
  <outline>
    <contour>
      <point x="250" y="129" type="line"/>
      <point x="215" y="172" type="line"/>
      <point x="198" y="196"/>
      <point x="165" y="196" type="qcurve"/>
      <point x="133" y="196"/>
      <point x="111" y="171" type="qcurve"/>
      <point x="90" y="148"/>
      <point x="90" y="109" type="qcurve"/>
      <point x="90" y="71"/>
      <point x="109" y="50" type="qcurve"/>
      <point x="127" y="32"/>
      <point x="151" y="32" type="qcurve"/>
      <point x="174" y="32"/>
      <point x="191" y="52" type="qcurve"/>
    </contour>
    <contour>
      <point x="329" y="0" type="line"/>
      <point x="318" y="31"/>
      <point x="295" y="65" type="qcurve"/>
      <point x="268" y="103" type="line"/>
      <point x="237" y="62" type="line"/>
      <point x="215" y="34"/>
      <point x="197" y="0" type="qcurve"/>
      <point x="176" y="0" type="line"/>
      <point x="105" y="0"/>
      <point x="76" y="26" type="qcurve"/>
      <point x="36" y="61"/>
      <point x="36" y="111" type="qcurve"/>
      <point x="36" y="163"/>
      <point x="73" y="195" type="qcurve" name="hr01"/>
      <point x="89" y="210"/>
      <point x="114" y="219" type="qcurve"/>
      <point x="66" y="241"/>
      <point x="66" y="291" type="qcurve"/>
      <point x="66" y="331"/>
      <point x="103" y="357" type="qcurve"/>
      <point x="126" y="372"/>
      <point x="165" y="372" type="qcurve"/>
      <point x="198" y="372"/>
      <point x="224" y="349" type="qcurve"/>
      <point x="224" y="298" type="line"/>
      <point x="221" y="298" type="line" name="hr02"/>
      <point x="219" y="301"/>
      <point x="215" y="309"/>
      <point x="213" y="313" type="qcurve"/>
      <point x="194" y="342"/>
      <point x="165" y="342" type="qcurve"/>
      <point x="139" y="342"/>
      <point x="127" y="330" type="qcurve"/>
      <point x="111" y="315"/>
      <point x="111" y="291" type="qcurve"/>
      <point x="111" y="245"/>
      <point x="164" y="226" type="qcurve"/>
      <point x="238" y="226" type="line"/>
      <point x="246" y="211"/>
      <point x="264" y="182"/>
      <point x="274" y="169" type="qcurve"/>
      <point x="277" y="165" type="line"/>
      <point x="309" y="206" type="line"/>
      <point x="320" y="221"/>
      <point x="340" y="252"/>
      <point x="348" y="268" type="qcurve"/>
      <point x="405" y="268" type="line"/>
      <point x="377" y="243"/>
      <point x="355" y="214" type="qcurve" name="hr03"/>
      <point x="297" y="139" type="line"/>
      <point x="357" y="56" type="line"/>
      <point x="375" y="30"/>
      <point x="405" y="0" type="qcurve"/>
    </contour>
  </outline>
</glyph>
<glyph name="quotesingle" format="1">
  <advance width="148"/>
  <unicode hex="0027"/>
  <outline>
    <contour>
      <point x="100" y="372" type="line" name="hr00"/>
      <point x="96" y="354"/>
      <point x="92" y="304"/>
      <point x="92" y="272" type="qcurve"/>
      <point x="56" y="272" type="line"/>
      <point x="56" y="339"/>
      <point x="48" y="372" type="qcurve"/>
    </contour>
  </outline>
</glyph>
<glyph name="parenleft" format="1">
  <advance width="196"/>
  <unicode hex="0028"/>
  <outline>
    <contour>
      <point x="160" y="429" type="line" name="hr00"/>
      <point x="97" y="327"/>
      <point x="97" y="183" type="qcurve"/>
      <point x="97" y="41"/>
      <point x="160" y="-61" type="qcurve"/>
      <point x="129" y="-61" type="line"/>
      <point x="48" y="52"/>
      <point x="48" y="183" type="qcurve"/>
      <point x="48" y="314"/>
      <point x="129" y="429" type="qcurve"/>
    </contour>
  </outline>
</glyph>
<glyph name="parenright" format="1">
  <advance width="196"/>
  <unicode hex="0029"/>
  <outline>
    <contour>
      <point x="67" y="429" type="line" name="hr00"/>
      <point x="148" y="314"/>
      <point x="148" y="183" type="qcurve"/>
      <point x="148" y="52"/>
      <point x="67" y="-61" type="qcurve"/>
      <point x="36" y="-61" type="line"/>
      <point x="99" y="41"/>
      <point x="99" y="183" type="qcurve"/>
      <point x="99" y="327"/>
      <point x="36" y="429" type="qcurve"/>
    </contour>
  </outline>
</glyph>
<glyph name="asterisk" format="1">
  <advance width="295"/>
  <unicode hex="002A"/>
  <outline>
    <contour>
      <point x="170" y="367" type="line" name="hr00"/>
      <point x="163" y="331"/>
      <point x="163" y="292" type="qcurve"/>
      <point x="180" y="301"/>
      <point x="210" y="322"/>
      <point x="224" y="336" type="qcurve"/>
      <point x="246" y="297" type="line"/>
      <point x="211" y="285"/>
      <point x="178" y="266" type="qcurve"/>
      <point x="195" y="257"/>
      <point x="228" y="241"/>
      <point x="246" y="235" type="qcurve"/>
      <point x="224" y="196" type="line"/>
      <point x="195" y="222"/>
      <point x="163" y="240" type="qcurve"/>
      <point x="163" y="221"/>
      <point x="166" y="183"/>
      <point x="170" y="165" type="qcurve"/>
      <point x="125" y="165" type="line"/>
      <point x="129" y="183"/>
      <point x="133" y="221"/>
      <point x="133" y="240" type="qcurve"/>
      <point x="100" y="224"/>
      <point x="71" y="196" type="qcurve"/>
      <point x="48" y="235" type="line"/>
      <point x="66" y="241"/>
      <point x="101" y="256"/>
      <point x="118" y="266" type="qcurve"/>
      <point x="101" y="275"/>
      <point x="66" y="290"/>
      <point x="48" y="297" type="qcurve"/>
      <point x="71" y="336" type="line"/>
      <point x="96" y="313"/>
      <point x="133" y="292" type="qcurve"/>
      <point x="133" y="311"/>
      <point x="129" y="348"/>
      <point x="125" y="367" type="qcurve"/>
    </contour>
  </outline>
</glyph>
<glyph name="plus" format="1">
  <advance width="300"/>
  <unicode hex="002B"/>
  <outline>
    <contour>
      <point x="176" y="283" type="line"/>
      <point x="169" y="245"/>
      <point x="169" y="210" type="qcurve"/>
      <point x="169" y="200" type="line" name="hr01"/>
      <point x="178" y="200" type="line"/>
      <point x="214" y="200"/>
      <point x="252" y="207" type="qcurve" name="hr02"/>
      <point x="252" y="155" type="line"/>
      <point x="234" y="159"/>
      <point x="196" y="163"/>
      <point x="178" y="163" type="qcurve"/>
      <point x="169" y="163" type="line" name="hr03"/>
      <point x="169" y="153" type="line"/>
      <point x="169" y="116"/>
      <point x="176" y="79" type="qcurve" name="hr04"/>
      <point x="124" y="79" type="line"/>
      <point x="127" y="97"/>
      <point x="132" y="135"/>
      <point x="132" y="153" type="qcurve"/>
      <point x="132" y="163" type="line" name="hr05"/>
      <point x="122" y="163" type="line"/>
      <point x="104" y="163"/>
      <point x="66" y="159"/>
      <point x="48" y="155" type="qcurve" name="hr06"/>
      <point x="48" y="207" type="line"/>
      <point x="85" y="200"/>
      <point x="122" y="200" type="qcurve"/>
      <point x="132" y="200" type="line" name="hr07"/>
      <point x="132" y="210" type="line"/>
      <point x="132" y="228"/>
      <point x="127" y="265"/>
      <point x="124" y="283" type="qcurve" name="hr08"/>
    </contour>
  </outline>
</glyph>
<glyph name="comma" format="1">
  <advance width="165"/>
  <unicode hex="002C"/>
  <outline>
    <contour>
      <point x="87" y="69" type="line" name="hr00"/>
      <point x="117" y="42"/>
      <point x="117" y="11" type="qcurve"/>
      <point x="117" y="-43"/>
      <point x="48" y="-71" type="qcurve"/>
      <point x="48" y="-69" type="line"/>
      <point x="75" y="-41"/>
      <point x="75" y="-5" type="qcurve"/>
      <point x="75" y="18"/>
      <point x="52" y="34" type="qcurve"/>
    </contour>
  </outline>
</glyph>
<glyph name="period" format="1">
  <advance width="161"/>
  <unicode hex="002E"/>
  <outline>
    <contour>
      <point x="58" y="4" type="qcurve" name="hr00"/>
      <point x="48" y="14"/>
      <point x="48" y="27" type="qcurve"/>
      <point x="48" y="41"/>
      <point x="58" y="50" type="qcurve"/>
      <point x="69" y="59"/>
      <point x="80" y="59" type="qcurve"/>
      <point x="92" y="59"/>
      <point x="103" y="50" type="qcurve"/>
      <point x="111" y="40"/>
      <point x="111" y="27" type="qcurve"/>
      <point x="111" y="13"/>
      <point x="103" y="4" type="qcurve"/>
      <point x="93" y="-5"/>
      <point x="80" y="-5" type="qcurve"/>
      <point x="67" y="-5"/>
    </contour>
  </outline>
</glyph>
<glyph name="slash" format="1">
  <advance width="274"/>
  <unicode hex="002F"/>
  <outline>
    <contour>
      <point x="2" y="-44" type="line" name="hr00"/>
      <point x="27" y="-9"/>
      <point x="40" y="19" type="qcurve"/>
      <point x="189" y="342" type="line"/>
      <point x="196" y="359"/>
      <point x="208" y="393"/>
      <point x="212" y="411" type="qcurve"/>
      <point x="271" y="411" type="line"/>
      <point x="251" y="381"/>
      <point x="234" y="348" type="qcurve"/>
      <point x="86" y="26" type="line"/>
      <point x="78" y="11"/>
      <point x="66" y="-25"/>
      <point x="61" y="-44" type="qcurve"/>
    </contour>
  </outline>
</glyph>
<glyph name="zero" format="1">
  <advance width="342"/>
  <unicode hex="0030"/>
  <outline>
    <contour>
      <point x="80" y="39" type="qcurve" name="hr00"/>
      <point x="36" y="89"/>
      <point x="36" y="183" type="qcurve"/>
      <point x="36" y="279"/>
      <point x="80" y="329" type="qcurve"/>
      <point x="117" y="372"/>
      <point x="170" y="372" type="qcurve"/>
      <point x="225" y="372"/>
      <point x="261" y="329" type="qcurve"/>
      <point x="305" y="279"/>
      <point x="305" y="183" type="qcurve"/>
      <point x="305" y="89"/>
      <point x="261" y="39" type="qcurve"/>
      <point x="224" y="-5"/>
      <point x="170" y="-5" type="qcurve"/>
      <point x="118" y="-5"/>
    </contour>
    <contour>
      <point x="90" y="183" type="qcurve"/>
      <point x="90" y="100"/>
      <point x="114" y="63" type="qcurve"/>
      <point x="138" y="26"/>
      <point x="170" y="26" type="qcurve"/>
      <point x="206" y="26"/>
      <point x="228" y="63" type="qcurve"/>
      <point x="252" y="101"/>
      <point x="252" y="183" type="qcurve"/>
      <point x="252" y="265"/>
      <point x="228" y="303" type="qcurve"/>
      <point x="204" y="342"/>
      <point x="170" y="342" type="qcurve"/>
      <point x="136" y="342"/>
      <point x="114" y="303" type="qcurve"/>
      <point x="90" y="267"/>
    </contour>
  </outline>
</glyph>
<glyph name="one" format="1">
  <advance width="185"/>
  <unicode hex="0031"/>
  <outline>
    <contour>
      <point x="69" y="0" type="line" name="hr00"/>
      <point x="76" y="34"/>
      <point x="76" y="73" type="qcurve"/>
      <point x="76" y="287" type="line"/>
      <point x="76" y="297"/>
      <point x="75" y="316"/>
      <point x="74" y="325" type="qcurve"/>
      <point x="21" y="273" type="line"/>
      <point x="2" y="296" type="line"/>
      <point x="69" y="360" type="line"/>
      <point x="132" y="372" type="line"/>
      <point x="129" y="351"/>
      <point x="124" y="315"/>
      <point x="124" y="299" type="qcurve"/>
      <point x="124" y="73" type="line"/>
      <point x="124" y="55"/>
      <point x="129" y="18"/>
      <point x="132" y="0" type="qcurve"/>
    </contour>
  </outline>
</glyph>
<glyph name="two" format="1">
  <advance width="304"/>
  <unicode hex="0032"/>
  <outline>
    <contour>
      <point x="29" y="0" type="line" name="hr00"/>
      <point x="42" y="84"/>
      <point x="154" y="171" type="qcurve"/>
      <point x="209" y="213"/>
      <point x="209" y="262" type="qcurve"/>
      <point x="209" y="296"/>
      <point x="191" y="317" type="qcurve"/>
      <point x="168" y="342"/>
      <point x="135" y="342" type="qcurve"/>
      <point x="103" y="342"/>
      <point x="74" y="309" type="qcurve"/>
      <point x="61" y="294"/>
      <point x="50" y="273" type="qcurve"/>
      <point x="48" y="273" type="line"/>
      <point x="48" y="336" type="line"/>
      <point x="85" y="372"/>
      <point x="138" y="372" type="qcurve"/>
      <point x="192" y="372"/>
      <point x="223" y="344" type="qcurve"/>
      <point x="262" y="311"/>
      <point x="262" y="262" type="qcurve"/>
      <point x="262" y="195"/>
      <point x="171" y="138" type="qcurve"/>
      <point x="99" y="91"/>
      <point x="78" y="37" type="qcurve"/>
      <point x="195" y="37" type="line"/>
      <point x="213" y="37"/>
      <point x="250" y="41"/>
      <point x="268" y="45" type="qcurve"/>
      <point x="268" y="0" type="line"/>
    </contour>
  </outline>
</glyph>
<glyph name="three" format="1">
  <advance width="279"/>
  <unicode hex="0033"/>
  <outline>
    <contour>
      <point x="25" y="94" type="line" name="hr00"/>
      <point x="27" y="94" type="line"/>
      <point x="36" y="73"/>
      <point x="49" y="59" type="qcurve"/>
      <point x="79" y="26"/>
      <point x="116" y="26" type="qcurve"/>
      <point x="154" y="26"/>
      <point x="176" y="50" type="qcurve"/>
      <point x="195" y="73"/>
      <point x="195" y="109" type="qcurve"/>
      <point x="195" y="149"/>
      <point x="174" y="170" type="qcurve"/>
      <point x="148" y="194"/>
      <point x="105" y="194" type="qcurve"/>
      <point x="92" y="211" type="line"/>
      <point x="180" y="337" type="line"/>
      <point x="120" y="337" type="line"/>
      <point x="102" y="337"/>
      <point x="65" y="333"/>
      <point x="47" y="330" type="qcurve"/>
      <point x="47" y="367" type="line"/>
      <point x="226" y="367" type="line"/>
      <point x="231" y="337" type="line"/>
      <point x="207" y="313"/>
      <point x="183" y="280" type="qcurve"/>
      <point x="142" y="220" type="line"/>
      <point x="181" y="220"/>
      <point x="212" y="195" type="qcurve"/>
      <point x="249" y="166"/>
      <point x="249" y="111" type="qcurve"/>
      <point x="249" y="61"/>
      <point x="210" y="26" type="qcurve"/>
      <point x="176" y="-5"/>
      <point x="114" y="-5" type="qcurve"/>
      <point x="61" y="-5"/>
      <point x="25" y="31" type="qcurve"/>
    </contour>
  </outline>
</glyph>
<glyph name="four" format="1">
  <advance width="303"/>
  <unicode hex="0034"/>
  <outline>
    <contour>
      <point x="182" y="0" type="line"/>
      <point x="186" y="20"/>
      <point x="190" y="57"/>
      <point x="190" y="73" type="qcurve"/>
      <point x="190" y="88" type="line"/>
      <point x="15" y="88" type="line"/>
      <point x="5" y="118" type="line"/>
      <point x="28" y="140"/>
      <point x="51" y="172" type="qcurve" name="hr01"/>
      <point x="147" y="303" type="line"/>
      <point x="169" y="333"/>
      <point x="182" y="367" type="qcurve"/>
      <point x="245" y="367" type="line"/>
      <point x="242" y="349"/>
      <point x="238" y="313"/>
      <point x="238" y="295" type="qcurve"/>
      <point x="238" y="119" type="line"/>
      <point x="247" y="121"/>
      <point x="266" y="123"/>
      <point x="274" y="125" type="qcurve"/>
      <point x="274" y="88" type="line"/>
      <point x="238" y="88" type="line"/>
      <point x="238" y="73" type="line"/>
      <point x="238" y="55"/>
      <point x="242" y="18"/>
      <point x="245" y="0" type="qcurve"/>
    </contour>
    <contour>
      <point x="190" y="118" type="line"/>
      <point x="190" y="314" type="line"/>
      <point x="48" y="118" type="line" name="hr02"/>
    </contour>
  </outline>
</glyph>
<glyph name="five" format="1">
  <advance width="279"/>
  <unicode hex="0035"/>
  <outline>
    <contour>
      <point x="25" y="94" type="line" name="hr00"/>
      <point x="27" y="94" type="line"/>
      <point x="36" y="73"/>
      <point x="49" y="59" type="qcurve"/>
      <point x="79" y="26"/>
      <point x="116" y="26" type="qcurve"/>
      <point x="154" y="26"/>
      <point x="176" y="50" type="qcurve"/>
      <point x="195" y="71"/>
      <point x="195" y="109" type="qcurve"/>
      <point x="195" y="151"/>
      <point x="175" y="171" type="qcurve"/>
      <point x="150" y="196"/>
      <point x="114" y="196" type="qcurve"/>
      <point x="96" y="196"/>
      <point x="81" y="189" type="qcurve"/>
      <point x="44" y="220" type="line"/>
      <point x="66" y="367" type="line"/>
      <point x="222" y="367" type="line"/>
      <point x="222" y="330" type="line"/>
      <point x="205" y="333"/>
      <point x="169" y="337"/>
      <point x="149" y="337" type="qcurve"/>
      <point x="96" y="337" type="line"/>
      <point x="91" y="223" type="line"/>
      <point x="107" y="226"/>
      <point x="121" y="226" type="qcurve"/>
      <point x="176" y="226"/>
      <point x="212" y="195" type="qcurve"/>
      <point x="249" y="163"/>
      <point x="249" y="111" type="qcurve"/>
      <point x="249" y="61"/>
      <point x="210" y="26" type="qcurve"/>
      <point x="176" y="-5"/>
      <point x="114" y="-5" type="qcurve"/>
      <point x="61" y="-5"/>
      <point x="25" y="31" type="qcurve"/>
    </contour>
  </outline>
</glyph>
<glyph name="six" format="1">
  <advance width="328"/>
  <unicode hex="0036"/>
  <outline>
    <contour>
      <point x="169" y="26" type="qcurve" name="hr00"/>
      <point x="205" y="26"/>
      <point x="224" y="55" type="qcurve"/>
      <point x="241" y="79"/>
      <point x="241" y="122" type="qcurve"/>
      <point x="241" y="165"/>
      <point x="224" y="189" type="qcurve"/>
      <point x="202" y="217"/>
      <point x="170" y="217" type="qcurve"/>
      <point x="135" y="217"/>
      <point x="115" y="189" type="qcurve"/>
      <point x="95" y="161"/>
      <point x="95" y="122" type="qcurve"/>
      <point x="95" y="80"/>
      <point x="115" y="55" type="qcurve"/>
      <point x="137" y="26"/>
    </contour>
    <contour>
      <point x="262" y="279" type="line"/>
      <point x="259" y="279" type="line"/>
      <point x="228" y="342"/>
      <point x="185" y="342" type="qcurve"/>
      <point x="146" y="342"/>
      <point x="119" y="307" type="qcurve"/>
      <point x="90" y="270"/>
      <point x="90" y="208" type="qcurve"/>
      <point x="124" y="249"/>
      <point x="170" y="249" type="qcurve"/>
      <point x="226" y="249"/>
      <point x="260" y="209" type="qcurve"/>
      <point x="291" y="172"/>
      <point x="291" y="122" type="qcurve"/>
      <point x="291" y="71"/>
      <point x="258" y="33" type="qcurve"/>
      <point x="226" y="-5"/>
      <point x="170" y="-5" type="qcurve"/>
      <point x="118" y="-5"/>
      <point x="80" y="39" type="qcurve"/>
      <point x="36" y="89"/>
      <point x="36" y="183" type="qcurve"/>
      <point x="36" y="272"/>
      <point x="84" y="328" type="qcurve"/>
      <point x="121" y="372"/>
      <point x="183" y="372" type="qcurve"/>
      <point x="234" y="372"/>
      <point x="262" y="342" type="qcurve"/>
    </contour>
  </outline>
</glyph>
<glyph name="seven" format="1">
  <advance width="249"/>
  <unicode hex="0037"/>
  <outline>
    <contour>
      <point x="59" y="0" type="line" name="hr00"/>
      <point x="67" y="18"/>
      <point x="81" y="51"/>
      <point x="87" y="69" type="qcurve"/>
      <point x="174" y="337" type="line"/>
      <point x="85" y="337" type="line"/>
      <point x="66" y="337"/>
      <point x="31" y="333"/>
      <point x="12" y="330" type="qcurve"/>
      <point x="12" y="367" type="line"/>
      <point x="222" y="367" type="line"/>
      <point x="227" y="337" type="line"/>
      <point x="219" y="321"/>
      <point x="206" y="287"/>
      <point x="199" y="269" type="qcurve"/>
      <point x="136" y="72" type="line"/>
      <point x="131" y="57"/>
      <point x="124" y="20"/>
      <point x="123" y="0" type="qcurve"/>
    </contour>
  </outline>
</glyph>
<glyph name="eight" format="1">
  <advance width="299"/>
  <unicode hex="0038"/>
  <outline>
    <contour>
      <point x="167" y="226" type="line"/>
      <point x="206" y="246"/>
      <point x="206" y="284" type="qcurve"/>
      <point x="206" y="311"/>
      <point x="192" y="325" type="qcurve"/>
      <point x="176" y="342"/>
      <point x="153" y="342" type="qcurve"/>
      <point x="133" y="342"/>
      <point x="118" y="330" type="qcurve"/>
      <point x="103" y="318"/>
      <point x="103" y="291" type="qcurve"/>
      <point x="103" y="261"/>
      <point x="139" y="241" type="qcurve"/>
    </contour>
    <contour>
      <point x="29" y="108" type="qcurve"/>
      <point x="29" y="174"/>
      <point x="100" y="209" type="qcurve"/>
      <point x="58" y="241"/>
      <point x="58" y="289" type="qcurve"/>
      <point x="58" y="328"/>
      <point x="94" y="357" type="qcurve"/>
      <point x="116" y="372"/>
      <point x="149" y="372" type="qcurve"/>
      <point x="186" y="372"/>
      <point x="210" y="351" type="qcurve"/>
      <point x="241" y="324"/>
      <point x="241" y="284" type="qcurve" name="hr01"/>
      <point x="241" y="236"/>
      <point x="195" y="210" type="qcurve"/>
      <point x="269" y="176"/>
      <point x="269" y="106" type="qcurve"/>
      <point x="269" y="61"/>
      <point x="235" y="27" type="qcurve"/>
      <point x="200" y="-5"/>
      <point x="150" y="-5" type="qcurve"/>
      <point x="97" y="-5"/>
      <point x="64" y="27" type="qcurve"/>
      <point x="29" y="59"/>
    </contour>
    <contour>
      <point x="132" y="190" type="line" name="hr02"/>
      <point x="65" y="164"/>
      <point x="65" y="107" type="qcurve"/>
      <point x="65" y="71"/>
      <point x="91" y="47" type="qcurve" name="hr03"/>
      <point x="114" y="26"/>
      <point x="148" y="26" type="qcurve"/>
      <point x="181" y="26"/>
      <point x="204" y="49" type="qcurve"/>
      <point x="223" y="69"/>
      <point x="223" y="102" type="qcurve"/>
      <point x="223" y="138"/>
      <point x="170" y="168" type="qcurve"/>
    </contour>
  </outline>
</glyph>
<glyph name="nine" format="1">
  <advance width="328"/>
  <unicode hex="0039"/>
  <outline>
    <contour>
      <point x="159" y="342" type="qcurve" name="hr00"/>
      <point x="123" y="342"/>
      <point x="104" y="313" type="qcurve"/>
      <point x="87" y="286"/>
      <point x="87" y="245" type="qcurve"/>
      <point x="87" y="202"/>
      <point x="104" y="179" type="qcurve"/>
      <point x="125" y="149"/>
      <point x="157" y="149" type="qcurve"/>
      <point x="192" y="149"/>
      <point x="213" y="179" type="qcurve"/>
      <point x="232" y="206"/>
      <point x="232" y="245" type="qcurve"/>
      <point x="232" y="285"/>
      <point x="213" y="313" type="qcurve"/>
      <point x="191" y="342"/>
    </contour>
    <contour>
      <point x="65" y="89" type="line"/>
      <point x="69" y="89" type="line"/>
      <point x="99" y="26"/>
      <point x="144" y="26" type="qcurve"/>
      <point x="182" y="26"/>
      <point x="209" y="59" type="qcurve"/>
      <point x="238" y="97"/>
      <point x="238" y="160" type="qcurve"/>
      <point x="204" y="119"/>
      <point x="157" y="119" type="qcurve"/>
      <point x="101" y="119"/>
      <point x="67" y="159" type="qcurve"/>
      <point x="36" y="195"/>
      <point x="36" y="245" type="qcurve"/>
      <point x="36" y="297"/>
      <point x="70" y="334" type="qcurve"/>
      <point x="101" y="372"/>
      <point x="157" y="372" type="qcurve"/>
      <point x="211" y="372"/>
      <point x="247" y="329" type="qcurve"/>
      <point x="291" y="279"/>
      <point x="291" y="184" type="qcurve"/>
      <point x="291" y="93"/>
      <point x="244" y="40" type="qcurve"/>
      <point x="207" y="-5"/>
      <point x="145" y="-5" type="qcurve"/>
      <point x="94" y="-5"/>
      <point x="65" y="26" type="qcurve"/>
    </contour>
  </outline>
</glyph>
<glyph name="colon" format="1">
  <advance width="161"/>
  <unicode hex="003A"/>
  <outline>
    <contour>
      <point x="58" y="4" type="qcurve" name="hr00"/>
      <point x="49" y="15"/>
      <point x="49" y="27" type="qcurve"/>
      <point x="49" y="40"/>
      <point x="58" y="50" type="qcurve"/>
      <point x="69" y="59"/>
      <point x="80" y="59" type="qcurve"/>
      <point x="94" y="59"/>
      <point x="103" y="50" type="qcurve"/>
      <point x="112" y="41"/>
      <point x="112" y="27" type="qcurve"/>
      <point x="112" y="14"/>
      <point x="103" y="4" type="qcurve"/>
      <point x="94" y="-5"/>
      <point x="80" y="-5" type="qcurve"/>
      <point x="67" y="-5"/>
    </contour>
    <contour>
      <point x="58" y="161" type="qcurve"/>
      <point x="48" y="170"/>
      <point x="48" y="183" type="qcurve"/>
      <point x="48" y="197"/>
      <point x="58" y="206" type="qcurve"/>
      <point x="67" y="215"/>
      <point x="80" y="215" type="qcurve"/>
      <point x="93" y="215"/>
      <point x="103" y="206" type="qcurve"/>
      <point x="111" y="197"/>
      <point x="111" y="183" type="qcurve"/>
      <point x="111" y="169"/>
      <point x="103" y="161" type="qcurve"/>
      <point x="93" y="151"/>
      <point x="80" y="151" type="qcurve"/>
      <point x="67" y="151"/>
    </contour>
  </outline>
</glyph>
<glyph name="semicolon" format="1">
  <advance width="165"/>
  <unicode hex="003B"/>
  <outline>
    <contour>
      <point x="58" y="161" type="qcurve" name="hr00"/>
      <point x="48" y="170"/>
      <point x="48" y="183" type="qcurve"/>
      <point x="48" y="197"/>
      <point x="58" y="206" type="qcurve"/>
      <point x="67" y="215"/>
      <point x="80" y="215" type="qcurve"/>
      <point x="93" y="215"/>
      <point x="103" y="206" type="qcurve"/>
      <point x="111" y="197"/>
      <point x="111" y="183" type="qcurve"/>
      <point x="111" y="169"/>
      <point x="103" y="161" type="qcurve"/>
      <point x="93" y="151"/>
      <point x="80" y="151" type="qcurve"/>
      <point x="67" y="151"/>
    </contour>
    <contour>
      <point x="87" y="69" type="line"/>
      <point x="117" y="42"/>
      <point x="117" y="11" type="qcurve"/>
      <point x="117" y="-43"/>
      <point x="48" y="-71" type="qcurve"/>
      <point x="48" y="-69" type="line"/>
      <point x="75" y="-41"/>
      <point x="75" y="-5" type="qcurve"/>
      <point x="75" y="18"/>
      <point x="52" y="34" type="qcurve"/>
    </contour>
  </outline>
</glyph>
<glyph name="less" format="1">
  <advance width="329"/>
  <unicode hex="003C"/>
  <outline>
    <contour>
      <point x="48" y="202" type="line" name="hr00"/>
      <point x="66" y="207"/>
      <point x="100" y="219"/>
      <point x="118" y="227" type="qcurve"/>
      <point x="205" y="269" type="line"/>
      <point x="238" y="285"/>
      <point x="268" y="306" type="qcurve"/>
      <point x="268" y="242" type="line"/>
      <point x="250" y="237"/>
      <point x="215" y="226"/>
      <point x="198" y="219" type="qcurve"/>
      <point x="106" y="178" type="line"/>
      <point x="198" y="134" type="line"/>
      <point x="216" y="125"/>
      <point x="251" y="112"/>
      <point x="268" y="109" type="qcurve"/>
      <point x="268" y="56" type="line"/>
      <point x="238" y="76"/>
      <point x="205" y="93" type="qcurve"/>
      <point x="118" y="134" type="line"/>
      <point x="85" y="151"/>
      <point x="48" y="159" type="qcurve"/>
    </contour>
  </outline>
</glyph>
<glyph name="equal" format="1">
  <advance width="300"/>
  <unicode hex="003D"/>
  <outline>
    <contour>
      <point x="48" y="163" type="line"/>
      <point x="82" y="155"/>
      <point x="122" y="155" type="qcurve"/>
      <point x="178" y="155" type="line"/>
      <point x="217" y="155"/>
      <point x="252" y="163" type="qcurve"/>
      <point x="252" y="110" type="line" name="hr01"/>
      <point x="217" y="118"/>
      <point x="178" y="118" type="qcurve" name="hr02"/>
      <point x="122" y="118" type="line"/>
      <point x="82" y="118"/>
      <point x="48" y="110" type="qcurve" name="hr03"/>
    </contour>
    <contour>
      <point x="48" y="252" type="line"/>
      <point x="66" y="249"/>
      <point x="104" y="244"/>
      <point x="122" y="244" type="qcurve" name="hr04"/>
      <point x="178" y="244" type="line"/>
      <point x="196" y="244"/>
      <point x="234" y="249"/>
      <point x="252" y="252" type="qcurve" name="hr05"/>
      <point x="252" y="200" type="line"/>
      <point x="214" y="207"/>
      <point x="178" y="207" type="qcurve" name="hr06"/>
      <point x="122" y="207" type="line" name="hr07"/>
      <point x="85" y="207"/>
      <point x="48" y="200" type="qcurve"/>
    </contour>
  </outline>
</glyph>
<glyph name="greater" format="1">
  <advance width="329"/>
  <unicode hex="003E"/>
  <outline>
    <contour>
      <point x="280" y="159" type="line" name="hr00"/>
      <point x="262" y="154"/>
      <point x="228" y="142"/>
      <point x="210" y="134" type="qcurve"/>
      <point x="124" y="93" type="line"/>
      <point x="106" y="85"/>
      <point x="76" y="66"/>
      <point x="61" y="56" type="qcurve"/>
      <point x="61" y="119" type="line"/>
      <point x="79" y="124"/>
      <point x="112" y="135"/>
      <point x="130" y="144" type="qcurve"/>
      <point x="223" y="183" type="line"/>
      <point x="130" y="228" type="line"/>
      <point x="111" y="237"/>
      <point x="77" y="249"/>
      <point x="61" y="252" type="qcurve"/>
      <point x="61" y="306" type="line"/>
      <point x="92" y="283"/>
      <point x="124" y="269" type="qcurve"/>
      <point x="210" y="227" type="line"/>
      <point x="227" y="219"/>
      <point x="261" y="208"/>
      <point x="280" y="202" type="qcurve"/>
    </contour>
  </outline>
</glyph>
<glyph name="question" format="1">
  <advance width="290"/>
  <unicode hex="003F"/>
  <outline>
    <contour>
      <point x="36" y="336" type="line" name="hr00"/>
      <point x="73" y="372"/>
      <point x="125" y="372" type="qcurve"/>
      <point x="183" y="372"/>
      <point x="220" y="339" type="qcurve"/>
      <point x="254" y="307"/>
      <point x="254" y="262" type="qcurve"/>
      <point x="254" y="206"/>
      <point x="190" y="164" type="qcurve"/>
      <point x="138" y="132"/>
      <point x="138" y="88" type="qcurve"/>
      <point x="112" y="88" type="line"/>
      <point x="112" y="153"/>
      <point x="166" y="195" type="qcurve"/>
      <point x="205" y="225"/>
      <point x="205" y="262" type="qcurve"/>
      <point x="205" y="298"/>
      <point x="184" y="318" type="qcurve"/>
      <point x="159" y="342"/>
      <point x="124" y="342" type="qcurve"/>
      <point x="91" y="342"/>
      <point x="61" y="309" type="qcurve"/>
      <point x="56" y="301"/>
      <point x="44" y="284"/>
      <point x="39" y="273" type="qcurve"/>
      <point x="36" y="273" type="line"/>
    </contour>
    <contour>
      <point x="104" y="4" type="qcurve"/>
      <point x="95" y="15"/>
      <point x="95" y="27" type="qcurve"/>
      <point x="95" y="40"/>
      <point x="104" y="50" type="qcurve"/>
      <point x="115" y="59"/>
      <point x="126" y="59" type="qcurve"/>
      <point x="138" y="59"/>
      <point x="149" y="50" type="qcurve"/>
      <point x="159" y="41"/>
      <point x="159" y="27" type="qcurve"/>
      <point x="159" y="14"/>
      <point x="149" y="4" type="qcurve"/>
      <point x="140" y="-5"/>
      <point x="126" y="-5" type="qcurve"/>
      <point x="114" y="-5"/>
    </contour>
  </outline>
</glyph>
<glyph name="at" format="1">
  <advance width="329"/>
  <unicode hex="0040"/>
  <outline>
    <contour>
      <point x="172" y="-74" type="qcurve"/>
      <point x="217" y="-74"/>
      <point x="247" y="-11" type="qcurve"/>
      <point x="250" y="-11" type="line"/>
      <point x="250" y="-74" type="line"/>
      <point x="221" y="-105"/>
      <point x="170" y="-105" type="qcurve"/>
      <point x="118" y="-105"/>
      <point x="80" y="-61" type="qcurve"/>
      <point x="36" y="-11"/>
      <point x="36" y="84" type="qcurve"/>
      <point x="36" y="179"/>
      <point x="80" y="229" type="qcurve"/>
      <point x="117" y="272"/>
      <point x="170" y="272" type="qcurve"/>
      <point x="222" y="272"/>
      <point x="253" y="234" type="qcurve"/>
      <point x="281" y="197"/>
      <point x="281" y="134" type="qcurve"/>
      <point x="281" y="73" type="line"/>
      <point x="281" y="39"/>
      <point x="287" y="0" type="qcurve"/>
      <point x="224" y="0" type="line"/>
      <point x="226" y="6"/>
      <point x="227" y="20"/>
      <point x="228" y="27" type="qcurve"/>
      <point x="207" y="-5"/>
      <point x="183" y="-5" type="qcurve"/>
      <point x="147" y="-5"/>
      <point x="131" y="16" type="qcurve"/>
      <point x="106" y="46"/>
      <point x="106" y="85" type="qcurve"/>
      <point x="106" y="125"/>
      <point x="132" y="153" type="qcurve"/>
      <point x="149" y="175"/>
      <point x="180" y="175" type="qcurve"/>
      <point x="209" y="175"/>
      <point x="231" y="145" type="qcurve"/>
      <point x="231" y="193"/>
      <point x="213" y="217" type="qcurve"/>
      <point x="195" y="242"/>
      <point x="169" y="242" type="qcurve" name="hr01"/>
      <point x="135" y="242"/>
      <point x="108" y="204" type="qcurve"/>
      <point x="82" y="165"/>
      <point x="82" y="84" type="qcurve"/>
      <point x="82" y="1"/>
      <point x="109" y="-36" type="qcurve"/>
      <point x="137" y="-74"/>
    </contour>
    <contour>
      <point x="190" y="146" type="qcurve"/>
      <point x="169" y="146"/>
      <point x="160" y="127" type="qcurve"/>
      <point x="150" y="109"/>
      <point x="150" y="84" type="qcurve"/>
      <point x="150" y="57"/>
      <point x="160" y="41" type="qcurve"/>
      <point x="170" y="26"/>
      <point x="189" y="26" type="qcurve"/>
      <point x="205" y="26"/>
      <point x="217" y="42" type="qcurve"/>
      <point x="231" y="59"/>
      <point x="231" y="87" type="qcurve"/>
      <point x="231" y="109"/>
      <point x="220" y="127" type="qcurve"/>
      <point x="205" y="146"/>
    </contour>
  </outline>
</glyph>
<glyph name="A" format="1">
  <advance width="385"/>
  <unicode hex="0041"/>
  <outline>
    <contour>
      <point x="0" y="0" type="line" name="hr00"/>
      <point x="12" y="16"/>
      <point x="30" y="47"/>
      <point x="37" y="63" type="qcurve"/>
      <point x="146" y="298" type="line"/>
      <point x="153" y="313"/>
      <point x="165" y="348"/>
      <point x="170" y="367" type="qcurve"/>
      <point x="214" y="367" type="line"/>
      <point x="224" y="330"/>
      <point x="239" y="298" type="qcurve"/>
      <point x="347" y="63" type="line"/>
      <point x="360" y="33"/>
      <point x="385" y="0" type="qcurve"/>
      <point x="316" y="0" type="line"/>
      <point x="311" y="19"/>
      <point x="299" y="55"/>
      <point x="291" y="70" type="qcurve"/>
      <point x="245" y="169" type="line"/>
      <point x="123" y="169" type="line"/>
      <point x="78" y="70" type="line"/>
      <point x="71" y="52"/>
      <point x="59" y="18"/>
      <point x="54" y="0" type="qcurve"/>
    </contour>
    <contour>
      <point x="136" y="197" type="line"/>
      <point x="234" y="197" type="line"/>
      <point x="184" y="309" type="line"/>
    </contour>
  </outline>
</glyph>
<glyph name="B" format="1">
  <advance width="283"/>
  <unicode hex="0042"/>
  <outline>
    <contour>
      <point x="42" y="0" type="line"/>
      <point x="48" y="36"/>
      <point x="48" y="73" type="qcurve"/>
      <point x="48" y="295" type="line"/>
      <point x="48" y="330"/>
      <point x="42" y="367" type="qcurve"/>
      <point x="130" y="367" type="line"/>
      <point x="171" y="367"/>
      <point x="199" y="345" type="qcurve"/>
      <point x="227" y="322"/>
      <point x="227" y="284" type="qcurve"/>
      <point x="227" y="247"/>
      <point x="198" y="222" type="qcurve"/>
      <point x="186" y="210"/>
      <point x="177" y="207" type="qcurve"/>
      <point x="202" y="204"/>
      <point x="221" y="189" type="qcurve"/>
      <point x="258" y="159"/>
      <point x="258" y="109" type="qcurve"/>
      <point x="258" y="63"/>
      <point x="221" y="30" type="qcurve"/>
      <point x="187" y="0"/>
      <point x="126" y="0" type="qcurve"/>
    </contour>
    <contour>
      <point x="126" y="30" type="line" name="hr01"/>
      <point x="164" y="30"/>
      <point x="187" y="51" type="qcurve"/>
      <point x="210" y="72"/>
      <point x="210" y="109" type="qcurve"/>
      <point x="210" y="144"/>
      <point x="187" y="165" type="qcurve"/>
      <point x="165" y="189"/>
      <point x="126" y="189" type="qcurve"/>
      <point x="97" y="189" type="line"/>
      <point x="97" y="73" type="line"/>
      <point x="97" y="62"/>
      <point x="99" y="42"/>
      <point x="100" y="30" type="qcurve"/>
    </contour>
    <contour>
      <point x="97" y="219" type="line"/>
      <point x="131" y="219" type="line" name="hr02"/>
      <point x="152" y="219"/>
      <point x="168" y="237" type="qcurve"/>
      <point x="182" y="254"/>
      <point x="182" y="277" type="qcurve"/>
      <point x="182" y="302"/>
      <point x="170" y="319" type="qcurve"/>
      <point x="155" y="337"/>
      <point x="131" y="337" type="qcurve"/>
      <point x="100" y="337" type="line"/>
      <point x="99" y="326"/>
      <point x="97" y="305"/>
      <point x="97" y="295" type="qcurve"/>
    </contour>
  </outline>
</glyph>
<glyph name="C" format="1">
  <advance width="374"/>
  <unicode hex="0043"/>
  <outline>
    <contour>
      <point x="337" y="101" type="line" name="hr00"/>
      <point x="337" y="50" type="line"/>
      <point x="282" y="-5"/>
      <point x="208" y="-5" type="qcurve"/>
      <point x="132" y="-5"/>
      <point x="78" y="50" type="qcurve"/>
      <point x="25" y="104"/>
      <point x="25" y="183" type="qcurve"/>
      <point x="25" y="262"/>
      <point x="78" y="317" type="qcurve"/>
      <point x="131" y="372"/>
      <point x="208" y="372" type="qcurve"/>
      <point x="273" y="372"/>
      <point x="318" y="334" type="qcurve"/>
      <point x="318" y="270" type="line"/>
      <point x="316" y="270" type="line"/>
      <point x="313" y="275"/>
      <point x="306" y="286"/>
      <point x="302" y="291" type="qcurve"/>
      <point x="264" y="342"/>
      <point x="208" y="342" type="qcurve"/>
      <point x="150" y="342"/>
      <point x="112" y="291" type="qcurve"/>
      <point x="78" y="244"/>
      <point x="78" y="183" type="qcurve"/>
      <point x="78" y="122"/>
      <point x="112" y="76" type="qcurve"/>
      <point x="151" y="26"/>
      <point x="208" y="26" type="qcurve"/>
      <point x="282" y="26"/>
      <point x="334" y="101" type="qcurve"/>
    </contour>
  </outline>
</glyph>
<glyph name="D" format="1">
  <advance width="386"/>
  <unicode hex="0044"/>
  <outline>
    <contour>
      <point x="42" y="0" type="line" name="hr00"/>
      <point x="48" y="36"/>
      <point x="48" y="73" type="qcurve"/>
      <point x="48" y="295" type="line"/>
      <point x="48" y="330"/>
      <point x="42" y="367" type="qcurve"/>
      <point x="179" y="367" type="line"/>
      <point x="261" y="367"/>
      <point x="312" y="313" type="qcurve"/>
      <point x="361" y="260"/>
      <point x="361" y="183" type="qcurve"/>
      <point x="361" y="111"/>
      <point x="311" y="55" type="qcurve"/>
      <point x="262" y="0"/>
      <point x="179" y="0" type="qcurve"/>
    </contour>
    <contour>
      <point x="179" y="30" type="line"/>
      <point x="237" y="30"/>
      <point x="275" y="78" type="qcurve"/>
      <point x="307" y="118"/>
      <point x="307" y="183" type="qcurve"/>
      <point x="307" y="254"/>
      <point x="271" y="295" type="qcurve"/>
      <point x="234" y="337"/>
      <point x="179" y="337" type="qcurve"/>
      <point x="100" y="337" type="line"/>
      <point x="99" y="327"/>
      <point x="97" y="305"/>
      <point x="97" y="295" type="qcurve"/>
      <point x="97" y="73" type="line"/>
      <point x="97" y="61"/>
      <point x="99" y="41"/>
      <point x="100" y="30" type="qcurve"/>
    </contour>
  </outline>
</glyph>
<glyph name="F" format="1">
  <advance width="253"/>
  <unicode hex="0046"/>
  <outline>
    <contour>
      <point x="42" y="0" type="line"/>
      <point x="48" y="36"/>
      <point x="48" y="73" type="qcurve"/>
      <point x="48" y="295" type="line"/>
      <point x="48" y="332"/>
      <point x="42" y="367" type="qcurve"/>
      <point x="209" y="367" type="line" name="hr01"/>
      <point x="209" y="330" type="line"/>
      <point x="191" y="333"/>
      <point x="154" y="337"/>
      <point x="136" y="337" type="qcurve"/>
      <point x="100" y="337" type="line" name="hr02"/>
      <point x="99" y="326"/>
      <point x="97" y="304"/>
      <point x="97" y="295" type="qcurve"/>
      <point x="97" y="199" type="line"/>
      <point x="136" y="199" type="line"/>
      <point x="154" y="199"/>
      <point x="191" y="204"/>
      <point x="209" y="207" type="qcurve" name="hr03"/>
      <point x="209" y="162" type="line"/>
      <point x="191" y="166"/>
      <point x="154" y="169"/>
      <point x="136" y="169" type="qcurve"/>
      <point x="97" y="169" type="line"/>
      <point x="97" y="73" type="line"/>
      <point x="97" y="34"/>
      <point x="105" y="0" type="qcurve"/>
    </contour>
  </outline>
</glyph>
<glyph name="G" format="1">
  <advance width="395"/>
  <unicode hex="0047"/>
  <outline>
    <contour>
      <point x="359" y="199" type="line" name="hr00"/>
      <point x="359" y="77" type="line"/>
      <point x="301" y="-5"/>
      <point x="208" y="-5" type="qcurve"/>
      <point x="133" y="-5"/>
      <point x="77" y="50" type="qcurve"/>
      <point x="25" y="104"/>
      <point x="25" y="183" type="qcurve"/>
      <point x="25" y="262"/>
      <point x="78" y="317" type="qcurve"/>
      <point x="131" y="372"/>
      <point x="208" y="372" type="qcurve"/>
      <point x="271" y="372"/>
      <point x="318" y="334" type="qcurve"/>
      <point x="318" y="271" type="line"/>
      <point x="316" y="271" type="line"/>
      <point x="310" y="283"/>
      <point x="302" y="291" type="qcurve"/>
      <point x="264" y="342"/>
      <point x="208" y="342" type="qcurve"/>
      <point x="151" y="342"/>
      <point x="112" y="291" type="qcurve"/>
      <point x="78" y="247"/>
      <point x="78" y="183" type="qcurve"/>
      <point x="78" y="122"/>
      <point x="112" y="76" type="qcurve"/>
      <point x="151" y="26"/>
      <point x="208" y="26" type="qcurve"/>
      <point x="271" y="26"/>
      <point x="311" y="88" type="qcurve"/>
      <point x="311" y="169" type="line"/>
      <point x="297" y="169" type="line"/>
      <point x="257" y="169"/>
      <point x="223" y="162" type="qcurve"/>
      <point x="223" y="199" type="line"/>
    </contour>
  </outline>
</glyph>
<glyph name="H" format="1">
  <advance width="381"/>
  <unicode hex="0048"/>
  <outline>
    <contour>
      <point x="42" y="0" type="line" name="hr00"/>
      <point x="48" y="36"/>
      <point x="48" y="73" type="qcurve"/>
      <point x="48" y="295" type="line"/>
      <point x="48" y="330"/>
      <point x="42" y="367" type="qcurve"/>
      <point x="105" y="367" type="line"/>
      <point x="101" y="349"/>
      <point x="97" y="313"/>
      <point x="97" y="295" type="qcurve"/>
      <point x="97" y="199" type="line"/>
      <point x="285" y="199" type="line"/>
      <point x="285" y="295" type="line"/>
      <point x="285" y="313"/>
      <point x="281" y="349"/>
      <point x="277" y="367" type="qcurve"/>
      <point x="341" y="367" type="line"/>
      <point x="336" y="349"/>
      <point x="333" y="313"/>
      <point x="333" y="295" type="qcurve"/>
      <point x="333" y="73" type="line"/>
      <point x="333" y="34"/>
      <point x="341" y="0" type="qcurve"/>
      <point x="277" y="0" type="line"/>
      <point x="281" y="18"/>
      <point x="285" y="55"/>
      <point x="285" y="73" type="qcurve"/>
      <point x="285" y="169" type="line"/>
      <point x="97" y="169" type="line"/>
      <point x="97" y="73" type="line"/>
      <point x="97" y="34"/>
      <point x="105" y="0" type="qcurve"/>
    </contour>
  </outline>
</glyph>
<glyph name="I" format="1">
  <advance width="146"/>
  <unicode hex="0049"/>
  <outline>
    <contour>
      <point x="42" y="0" type="line" name="hr00"/>
      <point x="48" y="36"/>
      <point x="48" y="73" type="qcurve"/>
      <point x="48" y="295" type="line"/>
      <point x="48" y="330"/>
      <point x="42" y="367" type="qcurve"/>
      <point x="105" y="367" type="line"/>
      <point x="101" y="349"/>
      <point x="97" y="313"/>
      <point x="97" y="295" type="qcurve"/>
      <point x="97" y="73" type="line"/>
      <point x="97" y="34"/>
      <point x="105" y="0" type="qcurve"/>
    </contour>
  </outline>
</glyph>
<glyph name="J" format="1">
  <advance width="146"/>
  <unicode hex="004A"/>
  <outline>
    <contour>
      <point x="105" y="367" type="line" name="hr00"/>
      <point x="101" y="349"/>
      <point x="97" y="313"/>
      <point x="97" y="295" type="qcurve"/>
      <point x="97" y="28" type="line"/>
      <point x="97" y="-48"/>
      <point x="5" y="-48" type="qcurve"/>
      <point x="5" y="-46" type="line"/>
      <point x="48" y="-27"/>
      <point x="48" y="28" type="qcurve"/>
      <point x="48" y="295" type="line"/>
      <point x="48" y="330"/>
      <point x="42" y="367" type="qcurve"/>
    </contour>
  </outline>
</glyph>
<glyph name="K" format="1">
  <advance width="347"/>
  <unicode hex="004B"/>
  <outline>
    <contour>
      <point x="42" y="0" type="line" name="hr00"/>
      <point x="48" y="36"/>
      <point x="48" y="73" type="qcurve"/>
      <point x="48" y="295" type="line"/>
      <point x="48" y="330"/>
      <point x="42" y="367" type="qcurve"/>
      <point x="105" y="367" type="line"/>
      <point x="101" y="349"/>
      <point x="97" y="313"/>
      <point x="97" y="295" type="qcurve"/>
      <point x="97" y="192" type="line"/>
      <point x="210" y="310" type="line"/>
      <point x="229" y="330"/>
      <point x="255" y="367" type="qcurve"/>
      <point x="319" y="367" type="line"/>
      <point x="304" y="357"/>
      <point x="276" y="333"/>
      <point x="264" y="320" type="qcurve"/>
      <point x="139" y="190" type="line"/>
      <point x="289" y="45" type="line"/>
      <point x="315" y="20"/>
      <point x="347" y="0" type="qcurve"/>
      <point x="259" y="0" type="line"/>
      <point x="237" y="32"/>
      <point x="211" y="56" type="qcurve"/>
      <point x="107" y="156" type="line"/>
      <point x="97" y="146" type="line"/>
      <point x="97" y="73" type="line"/>
      <point x="97" y="34"/>
      <point x="105" y="0" type="qcurve"/>
    </contour>
  </outline>
</glyph>
<glyph name="L" format="1">
  <advance width="243"/>
  <unicode hex="004C"/>
  <outline>
    <contour>
      <point x="42" y="0" type="line" name="hr00"/>
      <point x="48" y="36"/>
      <point x="48" y="73" type="qcurve"/>
      <point x="48" y="295" type="line"/>
      <point x="48" y="330"/>
      <point x="42" y="367" type="qcurve"/>
      <point x="105" y="367" type="line"/>
      <point x="101" y="349"/>
      <point x="97" y="313"/>
      <point x="97" y="295" type="qcurve"/>
      <point x="97" y="73" type="line"/>
      <point x="97" y="62"/>
      <point x="99" y="42"/>
      <point x="100" y="30" type="qcurve"/>
      <point x="165" y="30" type="line"/>
      <point x="205" y="30"/>
      <point x="238" y="37" type="qcurve"/>
      <point x="238" y="0" type="line"/>
    </contour>
  </outline>
</glyph>
<glyph name="M" format="1">
  <advance width="497"/>
  <unicode hex="004D"/>
  <outline>
    <contour>
      <point x="29" y="0" type="line" name="hr00"/>
      <point x="40" y="33"/>
      <point x="43" y="72" type="qcurve"/>
      <point x="62" y="295" type="line"/>
      <point x="63" y="301"/>
      <point x="63" y="316"/>
      <point x="63" y="324" type="qcurve"/>
      <point x="63" y="334"/>
      <point x="63" y="356"/>
      <point x="61" y="367" type="qcurve"/>
      <point x="112" y="367" type="line"/>
      <point x="120" y="335"/>
      <point x="137" y="298" type="qcurve"/>
      <point x="246" y="59" type="line"/>
      <point x="360" y="298" type="line"/>
      <point x="366" y="313"/>
      <point x="378" y="347"/>
      <point x="384" y="367" type="qcurve"/>
      <point x="436" y="367" type="line"/>
      <point x="434" y="356"/>
      <point x="434" y="334"/>
      <point x="434" y="324" type="qcurve"/>
      <point x="434" y="316"/>
      <point x="434" y="302"/>
      <point x="435" y="295" type="qcurve"/>
      <point x="454" y="72" type="line"/>
      <point x="457" y="33"/>
      <point x="468" y="0" type="qcurve"/>
      <point x="406" y="0" type="line"/>
      <point x="408" y="11"/>
      <point x="408" y="31"/>
      <point x="408" y="42" type="qcurve"/>
      <point x="408" y="49"/>
      <point x="408" y="64"/>
      <point x="407" y="73" type="qcurve"/>
      <point x="388" y="283" type="line"/>
      <point x="291" y="70" type="line"/>
      <point x="283" y="52"/>
      <point x="272" y="18"/>
      <point x="267" y="0" type="qcurve"/>
      <point x="216" y="0" type="line"/>
      <point x="211" y="18"/>
      <point x="200" y="51"/>
      <point x="192" y="70" type="qcurve"/>
      <point x="96" y="283" type="line"/>
      <point x="77" y="73" type="line"/>
      <point x="76" y="65"/>
      <point x="76" y="50"/>
      <point x="76" y="42" type="qcurve"/>
      <point x="76" y="30"/>
      <point x="77" y="10"/>
      <point x="78" y="0" type="qcurve"/>
    </contour>
  </outline>
</glyph>
<glyph name="N" format="1">
  <advance width="381"/>
  <unicode hex="004E"/>
  <outline>
    <contour>
      <point x="42" y="0" type="line" name="hr00"/>
      <point x="48" y="36"/>
      <point x="48" y="73" type="qcurve"/>
      <point x="48" y="295" type="line"/>
      <point x="48" y="330"/>
      <point x="42" y="367" type="qcurve"/>
      <point x="92" y="367" type="line"/>
      <point x="101" y="349"/>
      <point x="120" y="318"/>
      <point x="131" y="304" type="qcurve"/>
      <point x="299" y="80" type="line"/>
      <point x="299" y="295" type="line"/>
      <point x="299" y="313"/>
      <point x="296" y="349"/>
      <point x="291" y="367" type="qcurve"/>
      <point x="341" y="367" type="line"/>
      <point x="336" y="349"/>
      <point x="333" y="313"/>
      <point x="333" y="295" type="qcurve"/>
      <point x="333" y="73" type="line"/>
      <point x="333" y="34"/>
      <point x="341" y="0" type="qcurve"/>
      <point x="290" y="0" type="line"/>
      <point x="270" y="37"/>
      <point x="252" y="63" type="qcurve"/>
      <point x="84" y="290" type="line"/>
      <point x="84" y="73" type="line"/>
      <point x="84" y="36"/>
      <point x="90" y="0" type="qcurve"/>
    </contour>
  </outline>
</glyph>
<glyph name="O" format="1">
  <advance width="415"/>
  <unicode hex="004F"/>
  <outline>
    <contour>
      <point x="337" y="183" type="qcurve" name="hr00"/>
      <point x="337" y="246"/>
      <point x="302" y="291" type="qcurve"/>
      <point x="264" y="342"/>
      <point x="208" y="342" type="qcurve"/>
      <point x="151" y="342"/>
      <point x="112" y="291" type="qcurve"/>
      <point x="78" y="245"/>
      <point x="78" y="183" type="qcurve"/>
      <point x="78" y="120"/>
      <point x="112" y="76" type="qcurve"/>
      <point x="151" y="26"/>
      <point x="208" y="26" type="qcurve"/>
      <point x="264" y="26"/>
      <point x="302" y="76" type="qcurve"/>
      <point x="337" y="121"/>
    </contour>
    <contour>
      <point x="337" y="50" type="qcurve"/>
      <point x="282" y="-5"/>
      <point x="208" y="-5" type="qcurve"/>
      <point x="132" y="-5"/>
      <point x="78" y="50" type="qcurve"/>
      <point x="25" y="104"/>
      <point x="25" y="183" type="qcurve"/>
      <point x="25" y="262"/>
      <point x="78" y="317" type="qcurve"/>
      <point x="131" y="372"/>
      <point x="208" y="372" type="qcurve"/>
      <point x="283" y="372"/>
      <point x="337" y="317" type="qcurve"/>
      <point x="391" y="260"/>
      <point x="391" y="183" type="qcurve"/>
      <point x="391" y="106"/>
    </contour>
  </outline>
</glyph>
<glyph name="P" format="1">
  <advance width="283"/>
  <unicode hex="0050"/>
  <outline>
    <contour>
      <point x="42" y="0" type="line"/>
      <point x="48" y="36"/>
      <point x="48" y="73" type="qcurve"/>
      <point x="48" y="295" type="line"/>
      <point x="48" y="330"/>
      <point x="42" y="367" type="qcurve"/>
      <point x="126" y="367" type="line"/>
      <point x="186" y="367"/>
      <point x="221" y="336" type="qcurve"/>
      <point x="258" y="305"/>
      <point x="258" y="258" type="qcurve"/>
      <point x="258" y="212"/>
      <point x="221" y="179" type="qcurve"/>
      <point x="186" y="148"/>
      <point x="126" y="148" type="qcurve"/>
      <point x="97" y="148" type="line"/>
      <point x="97" y="73" type="line" name="hr01"/>
      <point x="97" y="34"/>
      <point x="105" y="0" type="qcurve"/>
    </contour>
    <contour>
      <point x="97" y="179" type="line"/>
      <point x="126" y="179" type="line"/>
      <point x="162" y="179"/>
      <point x="185" y="202" type="qcurve"/>
      <point x="205" y="222"/>
      <point x="205" y="258" type="qcurve"/>
      <point x="205" y="292"/>
      <point x="185" y="314" type="qcurve"/>
      <point x="160" y="337"/>
      <point x="126" y="337" type="qcurve"/>
      <point x="100" y="337" type="line"/>
      <point x="99" y="326"/>
      <point x="97" y="305"/>
      <point x="97" y="295" type="qcurve" name="hr02"/>
    </contour>
  </outline>
</glyph>
<glyph name="Q" format="1">
  <advance width="415"/>
  <unicode hex="0051"/>
  <outline>
    <contour>
      <point x="325" y="0" type="line"/>
      <point x="316" y="13"/>
      <point x="306" y="25" type="qcurve"/>
      <point x="261" y="-5"/>
      <point x="208" y="-5" type="qcurve"/>
      <point x="132" y="-5"/>
      <point x="78" y="50" type="qcurve"/>
      <point x="25" y="104"/>
      <point x="25" y="183" type="qcurve" name="hr01"/>
      <point x="25" y="262"/>
      <point x="78" y="317" type="qcurve"/>
      <point x="131" y="372"/>
      <point x="208" y="372" type="qcurve"/>
      <point x="283" y="372"/>
      <point x="337" y="317" type="qcurve"/>
      <point x="391" y="260"/>
      <point x="391" y="183" type="qcurve"/>
      <point x="391" y="109"/>
      <point x="339" y="51" type="qcurve"/>
      <point x="345" y="45" type="line"/>
      <point x="372" y="20"/>
      <point x="403" y="0" type="qcurve"/>
    </contour>
    <contour>
      <point x="261" y="134" type="line"/>
      <point x="272" y="119"/>
      <point x="295" y="93"/>
      <point x="306" y="81" type="qcurve" name="hr02"/>
      <point x="309" y="79" type="line" name="hr03"/>
      <point x="337" y="132"/>
      <point x="337" y="183" type="qcurve"/>
      <point x="337" y="246"/>
      <point x="302" y="291" type="qcurve"/>
      <point x="264" y="342"/>
      <point x="208" y="342" type="qcurve"/>
      <point x="151" y="342"/>
      <point x="112" y="291" type="qcurve"/>
      <point x="78" y="247"/>
      <point x="78" y="183" type="qcurve"/>
      <point x="78" y="120"/>
      <point x="112" y="76" type="qcurve"/>
      <point x="151" y="26"/>
      <point x="208" y="26" type="qcurve"/>
      <point x="250" y="26"/>
      <point x="281" y="52" type="qcurve"/>
      <point x="276" y="56" type="line" name="hr04"/>
      <point x="241" y="89" type="line"/>
      <point x="216" y="111"/>
      <point x="183" y="134" type="qcurve" name="hr05"/>
    </contour>
  </outline>
</glyph>
<glyph name="R" format="1">
  <advance width="307"/>
  <unicode hex="0052"/>
  <outline>
    <contour>
      <point x="97" y="179" type="line"/>
      <point x="126" y="179" type="line"/>
      <point x="162" y="179"/>
      <point x="185" y="202" type="qcurve" name="hr01"/>
      <point x="205" y="222"/>
      <point x="205" y="258" type="qcurve"/>
      <point x="205" y="292"/>
      <point x="185" y="314" type="qcurve"/>
      <point x="160" y="337"/>
      <point x="126" y="337" type="qcurve"/>
      <point x="100" y="337" type="line" name="hr02"/>
      <point x="99" y="326"/>
      <point x="97" y="305"/>
      <point x="97" y="295" type="qcurve"/>
    </contour>
    <contour>
      <point x="42" y="0" type="line"/>
      <point x="48" y="36"/>
      <point x="48" y="73" type="qcurve"/>
      <point x="48" y="295" type="line"/>
      <point x="48" y="330"/>
      <point x="42" y="367" type="qcurve"/>
      <point x="126" y="367" type="line"/>
      <point x="186" y="367"/>
      <point x="221" y="336" type="qcurve"/>
      <point x="258" y="305"/>
      <point x="258" y="258" type="qcurve"/>
      <point x="258" y="210"/>
      <point x="221" y="179" type="qcurve"/>
      <point x="214" y="174"/>
      <point x="200" y="164"/>
      <point x="192" y="161" type="qcurve"/>
      <point x="261" y="57" type="line"/>
      <point x="282" y="26"/>
      <point x="307" y="0" type="qcurve"/>
      <point x="234" y="0" type="line"/>
      <point x="226" y="18"/>
      <point x="210" y="50"/>
      <point x="199" y="65" type="qcurve"/>
      <point x="144" y="149" type="line"/>
      <point x="139" y="149"/>
      <point x="132" y="148"/>
      <point x="126" y="148" type="qcurve"/>
      <point x="97" y="148" type="line"/>
      <point x="97" y="73" type="line"/>
      <point x="97" y="34"/>
      <point x="105" y="0" type="qcurve"/>
    </contour>
  </outline>
</glyph>
<glyph name="S" format="1">
  <advance width="257"/>
  <unicode hex="0053"/>
  <outline>
    <contour>
      <point x="19" y="94" type="line"/>
      <point x="21" y="94" type="line"/>
      <point x="33" y="72"/>
      <point x="45" y="59" type="qcurve"/>
      <point x="74" y="26"/>
      <point x="111" y="26" type="qcurve"/>
      <point x="151" y="26"/>
      <point x="171" y="50" type="qcurve"/>
      <point x="191" y="73"/>
      <point x="191" y="104" type="qcurve"/>
      <point x="191" y="146"/>
      <point x="149" y="168" type="qcurve"/>
      <point x="96" y="197" type="line"/>
      <point x="37" y="230"/>
      <point x="37" y="289" type="qcurve"/>
      <point x="37" y="331"/>
      <point x="74" y="357" type="qcurve"/>
      <point x="95" y="372"/>
      <point x="135" y="372" type="qcurve"/>
      <point x="169" y="372"/>
      <point x="194" y="349" type="qcurve" name="hr01"/>
      <point x="194" y="298" type="line"/>
      <point x="192" y="298" type="line"/>
      <point x="190" y="301"/>
      <point x="185" y="309"/>
      <point x="183" y="313" type="qcurve"/>
      <point x="165" y="342"/>
      <point x="136" y="342" type="qcurve"/>
      <point x="110" y="342"/>
      <point x="99" y="330" type="qcurve"/>
      <point x="81" y="315"/>
      <point x="81" y="291" type="qcurve"/>
      <point x="81" y="260"/>
      <point x="118" y="241" type="qcurve" name="hr02"/>
      <point x="167" y="215" type="line"/>
      <point x="237" y="179"/>
      <point x="237" y="110" type="qcurve"/>
      <point x="237" y="59"/>
      <point x="202" y="29" type="qcurve"/>
      <point x="165" y="-5"/>
      <point x="108" y="-5" type="qcurve"/>
      <point x="58" y="-5"/>
      <point x="19" y="31" type="qcurve"/>
    </contour>
  </outline>
</glyph>
<glyph name="T" format="1">
  <advance width="270"/>
  <unicode hex="0054"/>
  <outline>
    <contour>
      <point x="103" y="0" type="line" name="hr00"/>
      <point x="110" y="34"/>
      <point x="110" y="73" type="qcurve"/>
      <point x="110" y="295" type="line"/>
      <point x="110" y="305"/>
      <point x="110" y="326"/>
      <point x="108" y="337" type="qcurve"/>
      <point x="78" y="337" type="line"/>
      <point x="60" y="337"/>
      <point x="24" y="333"/>
      <point x="5" y="330" type="qcurve"/>
      <point x="5" y="367" type="line"/>
      <point x="265" y="367" type="line"/>
      <point x="265" y="330" type="line"/>
      <point x="246" y="333"/>
      <point x="210" y="337"/>
      <point x="192" y="337" type="qcurve"/>
      <point x="162" y="337" type="line"/>
      <point x="160" y="326"/>
      <point x="160" y="305"/>
      <point x="160" y="295" type="qcurve"/>
      <point x="160" y="73" type="line"/>
      <point x="160" y="34"/>
      <point x="167" y="0" type="qcurve"/>
    </contour>
  </outline>
</glyph>
<glyph name="U" format="1">
  <advance width="381"/>
  <unicode hex="0055"/>
  <outline>
    <contour>
      <point x="277" y="0" type="line"/>
      <point x="280" y="11"/>
      <point x="282" y="32"/>
      <point x="284" y="43" type="qcurve"/>
      <point x="239" y="-5"/>
      <point x="184" y="-5" type="qcurve"/>
      <point x="122" y="-5"/>
      <point x="82" y="41" type="qcurve"/>
      <point x="48" y="80"/>
      <point x="48" y="157" type="qcurve"/>
      <point x="48" y="295" type="line"/>
      <point x="48" y="330"/>
      <point x="42" y="367" type="qcurve"/>
      <point x="105" y="367" type="line"/>
      <point x="101" y="349"/>
      <point x="97" y="313"/>
      <point x="97" y="295" type="qcurve" name="hr01"/>
      <point x="97" y="157" type="line"/>
      <point x="97" y="101"/>
      <point x="115" y="74" type="qcurve"/>
      <point x="141" y="32"/>
      <point x="191" y="32" type="qcurve"/>
      <point x="237" y="32"/>
      <point x="265" y="70" type="qcurve"/>
      <point x="285" y="100"/>
      <point x="285" y="157" type="qcurve"/>
      <point x="285" y="295" type="line"/>
      <point x="285" y="313"/>
      <point x="281" y="349"/>
      <point x="277" y="367" type="qcurve"/>
      <point x="341" y="367" type="line"/>
      <point x="336" y="349"/>
      <point x="333" y="313"/>
      <point x="333" y="295" type="qcurve"/>
      <point x="333" y="73" type="line"/>
      <point x="333" y="34"/>
      <point x="341" y="0" type="qcurve" name="hr02"/>
    </contour>
  </outline>
</glyph>
<glyph name="V" format="1">
  <advance width="385"/>
  <unicode hex="0056"/>
  <outline>
    <contour>
      <point x="170" y="0" type="line" name="hr00"/>
      <point x="165" y="19"/>
      <point x="153" y="55"/>
      <point x="146" y="70" type="qcurve"/>
      <point x="37" y="304" type="line"/>
      <point x="30" y="319"/>
      <point x="12" y="351"/>
      <point x="0" y="367" type="qcurve"/>
      <point x="69" y="367" type="line"/>
      <point x="78" y="330"/>
      <point x="93" y="298" type="qcurve"/>
      <point x="200" y="63" type="line"/>
      <point x="306" y="298" type="line"/>
      <point x="314" y="315"/>
      <point x="326" y="349"/>
      <point x="330" y="367" type="qcurve"/>
      <point x="385" y="367" type="line"/>
      <point x="373" y="351"/>
      <point x="355" y="319"/>
      <point x="347" y="304" type="qcurve"/>
      <point x="239" y="70" type="line"/>
      <point x="224" y="37"/>
      <point x="214" y="0" type="qcurve"/>
    </contour>
  </outline>
</glyph>
<glyph name="W" format="1">
  <advance width="482"/>
  <unicode hex="0057"/>
  <outline>
    <contour>
      <point x="111" y="0" type="line" name="hr00"/>
      <point x="108" y="39"/>
      <point x="99" y="72" type="qcurve"/>
      <point x="32" y="299" type="line"/>
      <point x="27" y="318"/>
      <point x="13" y="352"/>
      <point x="5" y="367" type="qcurve"/>
      <point x="69" y="367" type="line"/>
      <point x="72" y="330"/>
      <point x="81" y="295" type="qcurve"/>
      <point x="147" y="73" type="line"/>
      <point x="212" y="295" type="line"/>
      <point x="223" y="328"/>
      <point x="226" y="367" type="qcurve"/>
      <point x="273" y="367" type="line"/>
      <point x="276" y="330"/>
      <point x="286" y="295" type="qcurve"/>
      <point x="351" y="73" type="line"/>
      <point x="417" y="295" type="line"/>
      <point x="427" y="328"/>
      <point x="431" y="367" type="qcurve"/>
      <point x="478" y="367" type="line"/>
      <point x="469" y="352"/>
      <point x="456" y="318"/>
      <point x="450" y="299" type="qcurve"/>
      <point x="385" y="72" type="line"/>
      <point x="379" y="55"/>
      <point x="373" y="18"/>
      <point x="371" y="0" type="qcurve"/>
      <point x="316" y="0" type="line"/>
      <point x="313" y="39"/>
      <point x="303" y="72" type="qcurve"/>
      <point x="241" y="283" type="line"/>
      <point x="180" y="72" type="line"/>
      <point x="175" y="55"/>
      <point x="168" y="18"/>
      <point x="166" y="0" type="qcurve"/>
    </contour>
  </outline>
</glyph>
<glyph name="X" format="1">
  <advance width="336"/>
  <unicode hex="0058"/>
  <outline>
    <contour>
      <point x="10" y="0" type="line" name="hr00"/>
      <point x="24" y="13"/>
      <point x="47" y="41"/>
      <point x="58" y="56" type="qcurve"/>
      <point x="145" y="178" type="line"/>
      <point x="56" y="310" type="line"/>
      <point x="45" y="326"/>
      <point x="21" y="355"/>
      <point x="10" y="367" type="qcurve"/>
      <point x="84" y="367" type="line"/>
      <point x="90" y="349"/>
      <point x="107" y="317"/>
      <point x="117" y="302" type="qcurve"/>
      <point x="174" y="219" type="line"/>
      <point x="234" y="303" type="line"/>
      <point x="254" y="331"/>
      <point x="270" y="367" type="qcurve"/>
      <point x="327" y="367" type="line"/>
      <point x="300" y="341"/>
      <point x="279" y="312" type="qcurve"/>
      <point x="192" y="190" type="line"/>
      <point x="281" y="57" type="line"/>
      <point x="291" y="41"/>
      <point x="315" y="13"/>
      <point x="327" y="0" type="qcurve"/>
      <point x="253" y="0" type="line"/>
      <point x="246" y="18"/>
      <point x="229" y="50"/>
      <point x="220" y="65" type="qcurve"/>
      <point x="163" y="149" type="line"/>
      <point x="103" y="64" type="line"/>
      <point x="81" y="35"/>
      <point x="66" y="0" type="qcurve"/>
    </contour>
  </outline>
</glyph>
<glyph name="Y" format="1">
  <advance width="321"/>
  <unicode hex="0059"/>
  <outline>
    <contour>
      <point x="129" y="0" type="line" name="hr00"/>
      <point x="136" y="34"/>
      <point x="136" y="73" type="qcurve"/>
      <point x="136" y="155" type="line"/>
      <point x="44" y="309" type="line"/>
      <point x="34" y="325"/>
      <point x="12" y="354"/>
      <point x="0" y="367" type="qcurve"/>
      <point x="70" y="367" type="line"/>
      <point x="80" y="336"/>
      <point x="101" y="301" type="qcurve"/>
      <point x="168" y="185" type="line"/>
      <point x="236" y="301" type="line"/>
      <point x="244" y="316"/>
      <point x="259" y="349"/>
      <point x="267" y="367" type="qcurve"/>
      <point x="321" y="367" type="line"/>
      <point x="310" y="354"/>
      <point x="287" y="325"/>
      <point x="279" y="309" type="qcurve"/>
      <point x="185" y="153" type="line"/>
      <point x="185" y="73" type="line"/>
      <point x="185" y="35"/>
      <point x="192" y="0" type="qcurve"/>
    </contour>
  </outline>
</glyph>
<glyph name="Z" format="1">
  <advance width="330"/>
  <unicode hex="005A"/>
  <outline>
    <contour>
      <point x="25" y="0" type="line" name="hr00"/>
      <point x="15" y="30" type="line"/>
      <point x="42" y="56"/>
      <point x="63" y="85" type="qcurve"/>
      <point x="244" y="337" type="line"/>
      <point x="119" y="337" type="line"/>
      <point x="101" y="337"/>
      <point x="64" y="333"/>
      <point x="46" y="330" type="qcurve"/>
      <point x="46" y="367" type="line"/>
      <point x="301" y="367" type="line"/>
      <point x="311" y="337" type="line"/>
      <point x="285" y="314"/>
      <point x="261" y="283" type="qcurve"/>
      <point x="78" y="30" type="line"/>
      <point x="238" y="30" type="line"/>
      <point x="281" y="30"/>
      <point x="311" y="37" type="qcurve"/>
      <point x="311" y="0" type="line"/>
    </contour>
  </outline>
</glyph>
<glyph name="bracketleft" format="1">
  <advance width="195"/>
  <unicode hex="005B"/>
  <outline>
    <contour>
      <point x="183" y="429" type="line"/>
      <point x="183" y="391" type="line"/>
      <point x="146" y="397"/>
      <point x="110" y="397" type="qcurve"/>
      <point x="100" y="397" type="line"/>
      <point x="99" y="392"/>
      <point x="97" y="371"/>
      <point x="97" y="355" type="qcurve" name="hr01"/>
      <point x="97" y="12" type="line"/>
      <point x="97" y="6"/>
      <point x="99" y="-14"/>
      <point x="100" y="-31" type="qcurve"/>
      <point x="110" y="-31" type="line"/>
      <point x="130" y="-31"/>
      <point x="165" y="-27"/>
      <point x="183" y="-24" type="qcurve" name="hr02"/>
      <point x="183" y="-61" type="line"/>
      <point x="42" y="-61" type="line"/>
      <point x="48" y="-35"/>
      <point x="48" y="12" type="qcurve"/>
      <point x="48" y="355" type="line" name="hr03"/>
      <point x="48" y="381"/>
      <point x="42" y="429" type="qcurve"/>
    </contour>
  </outline>
</glyph>
<glyph name="backslash" format="1">
  <advance width="274"/>
  <unicode hex="005C"/>
  <outline>
    <contour>
      <point x="212" y="-44" type="line" name="hr00"/>
      <point x="207" y="-25"/>
      <point x="195" y="11"/>
      <point x="189" y="26" type="qcurve"/>
      <point x="40" y="348" type="line"/>
      <point x="25" y="381"/>
      <point x="2" y="411" type="qcurve"/>
      <point x="61" y="411" type="line"/>
      <point x="66" y="393"/>
      <point x="77" y="359"/>
      <point x="86" y="342" type="qcurve"/>
      <point x="234" y="19" type="line"/>
      <point x="241" y="4"/>
      <point x="259" y="-27"/>
      <point x="271" y="-44" type="qcurve"/>
    </contour>
  </outline>
</glyph>
<glyph name="bracketright" format="1">
  <advance width="195"/>
  <unicode hex="005D"/>
  <outline>
    <contour>
      <point x="12" y="429" type="line"/>
      <point x="154" y="429" type="line"/>
      <point x="147" y="385"/>
      <point x="147" y="355" type="qcurve"/>
      <point x="147" y="12" type="line" name="hr01"/>
      <point x="147" y="-38"/>
      <point x="154" y="-61" type="qcurve"/>
      <point x="12" y="-61" type="line"/>
      <point x="12" y="-24" type="line"/>
      <point x="30" y="-27"/>
      <point x="66" y="-31"/>
      <point x="85" y="-31" type="qcurve" name="hr02"/>
      <point x="96" y="-31" type="line"/>
      <point x="97" y="-14"/>
      <point x="99" y="6"/>
      <point x="99" y="12" type="qcurve"/>
      <point x="99" y="355" type="line"/>
      <point x="99" y="388"/>
      <point x="95" y="397" type="qcurve"/>
      <point x="85" y="397" type="line"/>
      <point x="48" y="397"/>
      <point x="12" y="391" type="qcurve"/>
    </contour>
  </outline>
</glyph>
<glyph name="asciicircum" format="1">
  <advance width="281"/>
  <unicode hex="005E"/>
  <outline>
    <contour>
      <point x="169" y="372" type="line" name="hr00"/>
      <point x="182" y="331"/>
      <point x="231" y="295" type="qcurve"/>
      <point x="231" y="291" type="line"/>
      <point x="172" y="291" type="line"/>
      <point x="150" y="315"/>
      <point x="140" y="347" type="qcurve"/>
      <point x="129" y="315"/>
      <point x="108" y="291" type="qcurve"/>
      <point x="48" y="291" type="line"/>
      <point x="48" y="295" type="line"/>
      <point x="99" y="330"/>
      <point x="111" y="372" type="qcurve"/>
    </contour>
  </outline>
</glyph>
<glyph name="underscore" format="1">
  <advance width="300"/>
  <unicode hex="005F"/>
  <outline>
    <contour>
      <point x="48" y="-10" type="line"/>
      <point x="82" y="-17"/>
      <point x="122" y="-17" type="qcurve" name="hr01"/>
      <point x="178" y="-17" type="line"/>
      <point x="217" y="-17"/>
      <point x="252" y="-10" type="qcurve" name="hr02"/>
      <point x="252" y="-55" type="line"/>
      <point x="217" y="-47"/>
      <point x="178" y="-47" type="qcurve" name="hr03"/>
      <point x="122" y="-47" type="line"/>
      <point x="82" y="-47"/>
      <point x="48" y="-55" type="qcurve" name="hr04"/>
    </contour>
  </outline>
</glyph>
<glyph name="grave" format="1">
  <advance width="194"/>
  <unicode hex="0060"/>
  <outline>
    <contour>
      <point x="48" y="372" type="line" name="hr00"/>
      <point x="107" y="372" type="line"/>
      <point x="107" y="331"/>
      <point x="146" y="295" type="qcurve"/>
      <point x="146" y="291" type="line"/>
      <point x="111" y="291" type="line"/>
      <point x="88" y="310"/>
      <point x="57" y="348"/>
      <point x="48" y="370" type="qcurve"/>
    </contour>
  </outline>
</glyph>
<glyph name="a" format="1">
  <advance width="330"/>
  <unicode hex="0061"/>
  <outline>
    <contour>
      <point x="225" y="0" type="line" name="hr03"/>
      <point x="227" y="6"/>
      <point x="228" y="20"/>
      <point x="229" y="27" type="qcurve"/>
      <point x="201" y="-5"/>
      <point x="155" y="-5" type="qcurve"/>
      <point x="96" y="-5"/>
      <point x="59" y="39" type="qcurve"/>
      <point x="25" y="81"/>
      <point x="25" y="134" type="qcurve"/>
      <point x="25" y="186"/>
      <point x="59" y="229" type="qcurve"/>
      <point x="95" y="272"/>
      <point x="155" y="272" type="qcurve"/>
      <point x="205" y="272"/>
      <point x="228" y="242" type="qcurve"/>
      <point x="228" y="251"/>
      <point x="225" y="260" type="qcurve"/>
      <point x="288" y="272" type="line" name="hr01"/>
      <point x="285" y="254"/>
      <point x="281" y="219"/>
      <point x="281" y="199" type="qcurve"/>
      <point x="281" y="73" type="line"/>
      <point x="281" y="55"/>
      <point x="285" y="18"/>
      <point x="288" y="0" type="qcurve"/>
    </contour>
    <contour>
      <point x="211" y="212" type="qcurve"/>
      <point x="189" y="242"/>
      <point x="155" y="242" type="qcurve"/>
      <point x="120" y="242"/>
      <point x="100" y="212" type="qcurve"/>
      <point x="78" y="186"/>
      <point x="78" y="134" type="qcurve"/>
      <point x="78" y="82"/>
      <point x="100" y="55" type="qcurve"/>
      <point x="120" y="26"/>
      <point x="155" y="26" type="qcurve"/>
      <point x="189" y="26"/>
      <point x="211" y="55" type="qcurve" name="hr02"/>
      <point x="232" y="82"/>
      <point x="232" y="134" type="qcurve"/>
      <point x="232" y="186"/>
    </contour>
  </outline>
</glyph>
<glyph name="b" format="1">
  <advance width="330"/>
  <unicode hex="0062"/>
  <outline>
    <contour>
      <point x="230" y="212" type="qcurve"/>
      <point x="208" y="242"/>
      <point x="175" y="242" type="qcurve"/>
      <point x="141" y="242"/>
      <point x="119" y="212" type="qcurve" name="hr01"/>
      <point x="97" y="186"/>
      <point x="97" y="134" type="qcurve"/>
      <point x="97" y="82"/>
      <point x="119" y="55" type="qcurve"/>
      <point x="141" y="26"/>
      <point x="175" y="26" type="qcurve"/>
      <point x="208" y="26"/>
      <point x="230" y="55" type="qcurve"/>
      <point x="252" y="82"/>
      <point x="252" y="134" type="qcurve"/>
      <point x="252" y="186"/>
    </contour>
    <contour>
      <point x="42" y="0" type="line"/>
      <point x="48" y="39"/>
      <point x="48" y="73" type="qcurve"/>
      <point x="48" y="287" type="line"/>
      <point x="48" y="322"/>
      <point x="42" y="360" type="qcurve"/>
      <point x="105" y="372" type="line"/>
      <point x="97" y="339"/>
      <point x="97" y="299" type="qcurve" name="hr02"/>
      <point x="97" y="238" type="line"/>
      <point x="125" y="272"/>
      <point x="175" y="272" type="qcurve"/>
      <point x="235" y="272"/>
      <point x="270" y="229" type="qcurve"/>
      <point x="305" y="187"/>
      <point x="305" y="134" type="qcurve" name="hr03"/>
      <point x="305" y="78"/>
      <point x="270" y="39" type="qcurve"/>
      <point x="235" y="-5"/>
      <point x="175" y="-5" type="qcurve"/>
      <point x="127" y="-5"/>
      <point x="101" y="27" type="qcurve"/>
      <point x="102" y="20"/>
      <point x="103" y="6"/>
      <point x="105" y="0" type="qcurve"/>
    </contour>
  </outline>
</glyph>
<glyph name="c" format="1">
  <advance width="281"/>
  <unicode hex="0063"/>
  <outline>
    <contour>
      <point x="251" y="86" type="line" name="hr00"/>
      <point x="251" y="39" type="line"/>
      <point x="215" y="-5"/>
      <point x="155" y="-5" type="qcurve"/>
      <point x="96" y="-5"/>
      <point x="59" y="39" type="qcurve"/>
      <point x="25" y="79"/>
      <point x="25" y="134" type="qcurve"/>
      <point x="25" y="186"/>
      <point x="59" y="229" type="qcurve"/>
      <point x="95" y="272"/>
      <point x="155" y="272" type="qcurve"/>
      <point x="202" y="272"/>
      <point x="236" y="244" type="qcurve"/>
      <point x="236" y="179" type="line"/>
      <point x="234" y="179" type="line"/>
      <point x="226" y="198"/>
      <point x="213" y="212" type="qcurve"/>
      <point x="190" y="242"/>
      <point x="155" y="242" type="qcurve"/>
      <point x="122" y="242"/>
      <point x="100" y="212" type="qcurve"/>
      <point x="78" y="186"/>
      <point x="78" y="134" type="qcurve"/>
      <point x="78" y="82"/>
      <point x="100" y="55" type="qcurve"/>
      <point x="120" y="26"/>
      <point x="155" y="26" type="qcurve"/>
      <point x="214" y="26"/>
      <point x="249" y="86" type="qcurve"/>
    </contour>
  </outline>
</glyph>
<glyph name="e" format="1">
  <advance width="301"/>
  <unicode hex="0065"/>
  <outline>
    <contour>
      <point x="261" y="86" type="line" name="hr00"/>
      <point x="261" y="39" type="line"/>
      <point x="224" y="-5"/>
      <point x="165" y="-5" type="qcurve"/>
      <point x="96" y="-5"/>
      <point x="59" y="39" type="qcurve"/>
      <point x="25" y="81"/>
      <point x="25" y="134" type="qcurve"/>
      <point x="25" y="186"/>
      <point x="59" y="229" type="qcurve"/>
      <point x="95" y="272"/>
      <point x="155" y="272" type="qcurve"/>
      <point x="217" y="272"/>
      <point x="253" y="224" type="qcurve"/>
      <point x="276" y="189"/>
      <point x="276" y="134" type="qcurve"/>
      <point x="275" y="119" type="line"/>
      <point x="78" y="119" type="line"/>
      <point x="81" y="76"/>
      <point x="100" y="55" type="qcurve"/>
      <point x="123" y="26"/>
      <point x="166" y="26" type="qcurve"/>
      <point x="224" y="26"/>
      <point x="258" y="86" type="qcurve"/>
    </contour>
    <contour>
      <point x="226" y="149" type="line"/>
      <point x="226" y="191"/>
      <point x="210" y="212" type="qcurve"/>
      <point x="187" y="242"/>
      <point x="155" y="242" type="qcurve"/>
      <point x="120" y="242"/>
      <point x="100" y="212" type="qcurve"/>
      <point x="81" y="190"/>
      <point x="78" y="149" type="qcurve"/>
    </contour>
  </outline>
</glyph>
<glyph name="f" format="1">
  <advance width="205"/>
  <unicode hex="0066"/>
  <outline>
    <contour>
      <point x="42" y="0" type="line"/>
      <point x="48" y="36"/>
      <point x="48" y="73" type="qcurve"/>
      <point x="48" y="189" type="line"/>
      <point x="30" y="189"/>
      <point x="12" y="181" type="qcurve"/>
      <point x="12" y="226" type="line"/>
      <point x="30" y="219"/>
      <point x="48" y="219" type="qcurve"/>
      <point x="48" y="258" type="line"/>
      <point x="48" y="305"/>
      <point x="71" y="333" type="qcurve"/>
      <point x="103" y="372"/>
      <point x="152" y="372" type="qcurve"/>
      <point x="178" y="372"/>
      <point x="199" y="362" type="qcurve"/>
      <point x="199" y="306" type="line"/>
      <point x="197" y="306" type="line"/>
      <point x="181" y="342"/>
      <point x="151" y="342" type="qcurve"/>
      <point x="122" y="342"/>
      <point x="106" y="315" type="qcurve"/>
      <point x="97" y="296"/>
      <point x="97" y="258" type="qcurve" name="hr01"/>
      <point x="97" y="219" type="line"/>
      <point x="134" y="219"/>
      <point x="168" y="226" type="qcurve" name="hr02"/>
      <point x="168" y="181" type="line"/>
      <point x="134" y="189"/>
      <point x="97" y="189" type="qcurve" name="hr03"/>
      <point x="97" y="73" type="line"/>
      <point x="97" y="55"/>
      <point x="101" y="18"/>
      <point x="105" y="0" type="qcurve"/>
    </contour>
  </outline>
</glyph>
<glyph name="g" format="1">
  <advance width="330"/>
  <unicode hex="0067"/>
  <outline>
    <contour>
      <point x="211" y="212" type="qcurve" name="hr00"/>
      <point x="189" y="242"/>
      <point x="155" y="242" type="qcurve"/>
      <point x="120" y="242"/>
      <point x="100" y="212" type="qcurve"/>
      <point x="78" y="186"/>
      <point x="78" y="134" type="qcurve"/>
      <point x="78" y="82"/>
      <point x="100" y="55" type="qcurve"/>
      <point x="120" y="26"/>
      <point x="155" y="26" type="qcurve"/>
      <point x="189" y="26"/>
      <point x="211" y="55" type="qcurve"/>
      <point x="232" y="82"/>
      <point x="232" y="134" type="qcurve"/>
      <point x="232" y="186"/>
    </contour>
    <contour>
      <point x="288" y="272" type="line"/>
      <point x="285" y="254"/>
      <point x="281" y="217"/>
      <point x="281" y="199" type="qcurve"/>
      <point x="281" y="33" type="line"/>
      <point x="281" y="-27"/>
      <point x="251" y="-61" type="qcurve"/>
      <point x="215" y="-105"/>
      <point x="148" y="-105" type="qcurve"/>
      <point x="92" y="-105"/>
      <point x="57" y="-78" type="qcurve"/>
      <point x="57" y="-15" type="line"/>
      <point x="59" y="-15" type="line"/>
      <point x="66" y="-38"/>
      <point x="81" y="-50" type="qcurve"/>
      <point x="106" y="-74"/>
      <point x="147" y="-74" type="qcurve"/>
      <point x="191" y="-74"/>
      <point x="211" y="-47" type="qcurve"/>
      <point x="232" y="-17"/>
      <point x="232" y="30" type="qcurve"/>
      <point x="205" y="-5"/>
      <point x="155" y="-5" type="qcurve"/>
      <point x="96" y="-5"/>
      <point x="59" y="39" type="qcurve"/>
      <point x="25" y="81"/>
      <point x="25" y="134" type="qcurve"/>
      <point x="25" y="186"/>
      <point x="59" y="229" type="qcurve"/>
      <point x="95" y="272"/>
      <point x="155" y="272" type="qcurve"/>
      <point x="205" y="272"/>
      <point x="228" y="242" type="qcurve"/>
      <point x="228" y="251"/>
      <point x="225" y="260" type="qcurve"/>
    </contour>
  </outline>
</glyph>
<glyph name="h" format="1">
  <advance width="332"/>
  <unicode hex="0068"/>
  <outline>
    <contour>
      <point x="42" y="0" type="line" name="hr00"/>
      <point x="48" y="36"/>
      <point x="48" y="73" type="qcurve"/>
      <point x="48" y="287" type="line"/>
      <point x="48" y="322"/>
      <point x="42" y="360" type="qcurve"/>
      <point x="105" y="372" type="line"/>
      <point x="97" y="339"/>
      <point x="97" y="299" type="qcurve"/>
      <point x="97" y="238" type="line"/>
      <point x="125" y="272"/>
      <point x="180" y="272" type="qcurve"/>
      <point x="230" y="272"/>
      <point x="261" y="234" type="qcurve"/>
      <point x="284" y="206"/>
      <point x="284" y="159" type="qcurve"/>
      <point x="284" y="73" type="line"/>
      <point x="284" y="34"/>
      <point x="291" y="0" type="qcurve"/>
      <point x="228" y="0" type="line"/>
      <point x="235" y="36"/>
      <point x="235" y="73" type="qcurve"/>
      <point x="235" y="159" type="line"/>
      <point x="235" y="196"/>
      <point x="224" y="211" type="qcurve"/>
      <point x="206" y="242"/>
      <point x="166" y="242" type="qcurve"/>
      <point x="126" y="242"/>
      <point x="108" y="211" type="qcurve"/>
      <point x="97" y="196"/>
      <point x="97" y="159" type="qcurve"/>
      <point x="97" y="73" type="line"/>
      <point x="97" y="34"/>
      <point x="105" y="0" type="qcurve"/>
    </contour>
  </outline>
</glyph>
<glyph name="i" format="1">
  <advance width="146"/>
  <unicode hex="0069"/>
  <outline>
    <contour>
      <point x="42" y="0" type="line" name="hr00"/>
      <point x="48" y="36"/>
      <point x="48" y="73" type="qcurve"/>
      <point x="48" y="187" type="line"/>
      <point x="48" y="223"/>
      <point x="42" y="260" type="qcurve"/>
      <point x="105" y="272" type="line"/>
      <point x="97" y="239"/>
      <point x="97" y="199" type="qcurve"/>
      <point x="97" y="73" type="line"/>
      <point x="97" y="34"/>
      <point x="105" y="0" type="qcurve"/>
    </contour>
    <contour>
      <point x="50" y="317" type="qcurve"/>
      <point x="42" y="326"/>
      <point x="42" y="340" type="qcurve"/>
      <point x="42" y="352"/>
      <point x="50" y="363" type="qcurve"/>
      <point x="61" y="372"/>
      <point x="73" y="372" type="qcurve"/>
      <point x="85" y="372"/>
      <point x="95" y="363" type="qcurve"/>
      <point x="105" y="354"/>
      <point x="105" y="340" type="qcurve"/>
      <point x="105" y="327"/>
      <point x="95" y="317" type="qcurve"/>
      <point x="86" y="307"/>
      <point x="73" y="307" type="qcurve"/>
      <point x="60" y="307"/>
    </contour>
  </outline>
</glyph>
<glyph name="j" format="1">
  <advance width="146"/>
  <unicode hex="006A"/>
  <outline>
    <contour>
      <point x="105" y="272" type="line" name="hr00"/>
      <point x="97" y="239"/>
      <point x="97" y="199" type="qcurve"/>
      <point x="97" y="-28" type="line"/>
      <point x="97" y="-105"/>
      <point x="5" y="-105" type="qcurve"/>
      <point x="5" y="-102" type="line"/>
      <point x="48" y="-83"/>
      <point x="48" y="-28" type="qcurve"/>
      <point x="48" y="187" type="line"/>
      <point x="48" y="223"/>
      <point x="42" y="260" type="qcurve"/>
    </contour>
    <contour>
      <point x="50" y="317" type="qcurve"/>
      <point x="42" y="326"/>
      <point x="42" y="340" type="qcurve"/>
      <point x="42" y="352"/>
      <point x="50" y="363" type="qcurve"/>
      <point x="61" y="372"/>
      <point x="73" y="372" type="qcurve"/>
      <point x="85" y="372"/>
      <point x="95" y="363" type="qcurve"/>
      <point x="105" y="354"/>
      <point x="105" y="340" type="qcurve"/>
      <point x="105" y="327"/>
      <point x="95" y="317" type="qcurve"/>
      <point x="86" y="307"/>
      <point x="73" y="307" type="qcurve"/>
      <point x="60" y="307"/>
    </contour>
  </outline>
</glyph>
<glyph name="k" format="1">
  <advance width="309"/>
  <unicode hex="006B"/>
  <outline>
    <contour>
      <point x="42" y="0" type="line" name="hr00"/>
      <point x="48" y="36"/>
      <point x="48" y="73" type="qcurve"/>
      <point x="48" y="287" type="line"/>
      <point x="48" y="322"/>
      <point x="42" y="360" type="qcurve"/>
      <point x="105" y="372" type="line"/>
      <point x="97" y="339"/>
      <point x="97" y="299" type="qcurve"/>
      <point x="97" y="154" type="line"/>
      <point x="157" y="210" type="line"/>
      <point x="185" y="235"/>
      <point x="204" y="268" type="qcurve"/>
      <point x="268" y="268" type="line"/>
      <point x="253" y="256"/>
      <point x="225" y="232"/>
      <point x="212" y="220" type="qcurve"/>
      <point x="138" y="151" type="line"/>
      <point x="251" y="45" type="line"/>
      <point x="265" y="33"/>
      <point x="294" y="10"/>
      <point x="309" y="0" type="qcurve"/>
      <point x="221" y="0" type="line"/>
      <point x="204" y="28"/>
      <point x="172" y="56" type="qcurve"/>
      <point x="106" y="117" type="line"/>
      <point x="97" y="107" type="line"/>
      <point x="97" y="73" type="line"/>
      <point x="97" y="34"/>
      <point x="105" y="0" type="qcurve"/>
    </contour>
  </outline>
</glyph>
<glyph name="l" format="1">
  <advance width="146"/>
  <unicode hex="006C"/>
  <outline>
    <contour>
      <point x="42" y="0" type="line" name="hr00"/>
      <point x="48" y="36"/>
      <point x="48" y="73" type="qcurve"/>
      <point x="48" y="287" type="line"/>
      <point x="48" y="322"/>
      <point x="42" y="360" type="qcurve"/>
      <point x="105" y="372" type="line"/>
      <point x="97" y="339"/>
      <point x="97" y="299" type="qcurve"/>
      <point x="97" y="73" type="line"/>
      <point x="97" y="34"/>
      <point x="105" y="0" type="qcurve"/>
    </contour>
  </outline>
</glyph>
<glyph name="m" format="1">
  <advance width="497"/>
  <unicode hex="006D"/>
  <outline>
    <contour>
      <point x="42" y="0" type="line" name="hr00"/>
      <point x="48" y="36"/>
      <point x="48" y="73" type="qcurve"/>
      <point x="48" y="187" type="line"/>
      <point x="48" y="223"/>
      <point x="42" y="260" type="qcurve"/>
      <point x="105" y="272" type="line"/>
      <point x="103" y="264"/>
      <point x="101" y="249"/>
      <point x="100" y="240" type="qcurve"/>
      <point x="129" y="272"/>
      <point x="174" y="272" type="qcurve"/>
      <point x="223" y="272"/>
      <point x="252" y="232" type="qcurve"/>
      <point x="285" y="272"/>
      <point x="339" y="272" type="qcurve"/>
      <point x="395" y="272"/>
      <point x="426" y="234" type="qcurve"/>
      <point x="448" y="204"/>
      <point x="448" y="159" type="qcurve"/>
      <point x="448" y="73" type="line"/>
      <point x="448" y="34"/>
      <point x="455" y="0" type="qcurve"/>
      <point x="392" y="0" type="line"/>
      <point x="400" y="34"/>
      <point x="400" y="73" type="qcurve"/>
      <point x="400" y="159" type="line"/>
      <point x="400" y="194"/>
      <point x="389" y="212" type="qcurve"/>
      <point x="370" y="242"/>
      <point x="335" y="242" type="qcurve"/>
      <point x="300" y="242"/>
      <point x="283" y="213" type="qcurve"/>
      <point x="273" y="197"/>
      <point x="273" y="159" type="qcurve"/>
      <point x="273" y="73" type="line"/>
      <point x="273" y="34"/>
      <point x="281" y="0" type="qcurve"/>
      <point x="217" y="0" type="line"/>
      <point x="224" y="36"/>
      <point x="224" y="73" type="qcurve"/>
      <point x="224" y="159" type="line"/>
      <point x="224" y="197"/>
      <point x="213" y="212" type="qcurve"/>
      <point x="196" y="242"/>
      <point x="161" y="242" type="qcurve"/>
      <point x="125" y="242"/>
      <point x="108" y="213" type="qcurve"/>
      <point x="97" y="196"/>
      <point x="97" y="159" type="qcurve"/>
      <point x="97" y="73" type="line"/>
      <point x="97" y="34"/>
      <point x="105" y="0" type="qcurve"/>
    </contour>
  </outline>
</glyph>
<glyph name="o" format="1">
  <advance width="311"/>
  <unicode hex="006F"/>
  <outline>
    <contour>
      <point x="211" y="212" type="qcurve" name="hr00"/>
      <point x="189" y="242"/>
      <point x="155" y="242" type="qcurve"/>
      <point x="120" y="242"/>
      <point x="100" y="212" type="qcurve"/>
      <point x="78" y="186"/>
      <point x="78" y="134" type="qcurve"/>
      <point x="78" y="82"/>
      <point x="100" y="55" type="qcurve"/>
      <point x="120" y="26"/>
      <point x="155" y="26" type="qcurve"/>
      <point x="189" y="26"/>
      <point x="211" y="55" type="qcurve"/>
      <point x="232" y="82"/>
      <point x="232" y="134" type="qcurve"/>
      <point x="232" y="186"/>
    </contour>
    <contour>
      <point x="155" y="-5" type="qcurve"/>
      <point x="96" y="-5"/>
      <point x="59" y="39" type="qcurve"/>
      <point x="25" y="81"/>
      <point x="25" y="134" type="qcurve"/>
      <point x="25" y="186"/>
      <point x="59" y="229" type="qcurve"/>
      <point x="95" y="272"/>
      <point x="155" y="272" type="qcurve"/>
      <point x="215" y="272"/>
      <point x="251" y="229" type="qcurve"/>
      <point x="286" y="187"/>
      <point x="286" y="134" type="qcurve"/>
      <point x="286" y="78"/>
      <point x="251" y="39" type="qcurve"/>
      <point x="215" y="-5"/>
    </contour>
  </outline>
</glyph>
<glyph name="p" format="1">
  <advance width="330"/>
  <unicode hex="0070"/>
  <outline>
    <contour>
      <point x="230" y="212" type="qcurve" name="hr00"/>
      <point x="208" y="242"/>
      <point x="175" y="242" type="qcurve"/>
      <point x="141" y="242"/>
      <point x="119" y="212" type="qcurve"/>
      <point x="97" y="186"/>
      <point x="97" y="134" type="qcurve"/>
      <point x="97" y="82"/>
      <point x="119" y="55" type="qcurve"/>
      <point x="141" y="26"/>
      <point x="175" y="26" type="qcurve"/>
      <point x="208" y="26"/>
      <point x="230" y="55" type="qcurve"/>
      <point x="252" y="82"/>
      <point x="252" y="134" type="qcurve"/>
      <point x="252" y="186"/>
    </contour>
    <contour>
      <point x="105" y="272" type="line"/>
      <point x="103" y="264"/>
      <point x="101" y="249"/>
      <point x="100" y="240" type="qcurve"/>
      <point x="129" y="272"/>
      <point x="175" y="272" type="qcurve"/>
      <point x="235" y="272"/>
      <point x="270" y="229" type="qcurve"/>
      <point x="305" y="187"/>
      <point x="305" y="134" type="qcurve"/>
      <point x="305" y="78"/>
      <point x="270" y="39" type="qcurve"/>
      <point x="235" y="-5"/>
      <point x="175" y="-5" type="qcurve"/>
      <point x="124" y="-5"/>
      <point x="97" y="30" type="qcurve"/>
      <point x="97" y="-27" type="line"/>
      <point x="97" y="-65"/>
      <point x="105" y="-100" type="qcurve"/>
      <point x="42" y="-100" type="line"/>
      <point x="48" y="-63"/>
      <point x="48" y="-27" type="qcurve"/>
      <point x="48" y="187" type="line"/>
      <point x="48" y="223"/>
      <point x="42" y="260" type="qcurve"/>
    </contour>
  </outline>
</glyph>
<glyph name="r" format="1">
  <advance width="212"/>
  <unicode hex="0072"/>
  <outline>
    <contour>
      <point x="42" y="0" type="line"/>
      <point x="48" y="36"/>
      <point x="48" y="73" type="qcurve"/>
      <point x="48" y="187" type="line"/>
      <point x="48" y="223"/>
      <point x="42" y="260" type="qcurve"/>
      <point x="105" y="272" type="line"/>
      <point x="103" y="264"/>
      <point x="101" y="249"/>
      <point x="100" y="240" type="qcurve"/>
      <point x="126" y="272"/>
      <point x="165" y="272" type="qcurve" name="hr01"/>
      <point x="187" y="272"/>
      <point x="207" y="262" type="qcurve"/>
      <point x="207" y="207" type="line"/>
      <point x="205" y="207" type="line"/>
      <point x="185" y="242"/>
      <point x="159" y="242" type="qcurve"/>
      <point x="126" y="242"/>
      <point x="108" y="211" type="qcurve"/>
      <point x="97" y="196"/>
      <point x="97" y="159" type="qcurve"/>
      <point x="97" y="73" type="line"/>
      <point x="97" y="34"/>
      <point x="105" y="0" type="qcurve"/>
    </contour>
  </outline>
</glyph>
<glyph name="s" format="1">
  <advance width="214"/>
  <unicode hex="0073"/>
  <outline>
    <contour>
      <point x="19" y="90" type="line"/>
      <point x="21" y="90" type="line"/>
      <point x="30" y="65"/>
      <point x="45" y="49" type="qcurve"/>
      <point x="65" y="26"/>
      <point x="101" y="26" type="qcurve"/>
      <point x="123" y="26"/>
      <point x="140" y="43" type="qcurve"/>
      <point x="151" y="54"/>
      <point x="151" y="73" type="qcurve"/>
      <point x="151" y="99"/>
      <point x="126" y="114" type="qcurve"/>
      <point x="87" y="137" type="line"/>
      <point x="37" y="167"/>
      <point x="37" y="209" type="qcurve"/>
      <point x="37" y="238"/>
      <point x="61" y="258" type="qcurve"/>
      <point x="79" y="272"/>
      <point x="109" y="272" type="qcurve"/>
      <point x="139" y="272"/>
      <point x="161" y="258" type="qcurve"/>
      <point x="161" y="208" type="line" name="hr01"/>
      <point x="159" y="208" type="line"/>
      <point x="156" y="215"/>
      <point x="151" y="222" type="qcurve"/>
      <point x="138" y="242"/>
      <point x="114" y="242" type="qcurve"/>
      <point x="101" y="242"/>
      <point x="91" y="236" type="qcurve"/>
      <point x="79" y="229"/>
      <point x="79" y="214" type="qcurve"/>
      <point x="79" y="196"/>
      <point x="104" y="181" type="qcurve"/>
      <point x="149" y="154" type="line" name="hr02"/>
      <point x="195" y="127"/>
      <point x="195" y="82" type="qcurve"/>
      <point x="195" y="42"/>
      <point x="166" y="18" type="qcurve"/>
      <point x="137" y="-5"/>
      <point x="102" y="-5" type="qcurve"/>
      <point x="84" y="-4"/>
      <point x="57" y="-1"/>
      <point x="48" y="4" type="qcurve"/>
      <point x="41" y="9"/>
      <point x="27" y="18"/>
      <point x="19" y="26" type="qcurve" name="hr03"/>
    </contour>
  </outline>
</glyph>
<glyph name="t" format="1">
  <advance width="199"/>
  <unicode hex="0074"/>
  <outline>
    <contour>
      <point x="69" y="0" type="line"/>
      <point x="75" y="36"/>
      <point x="75" y="73" type="qcurve"/>
      <point x="75" y="225" type="line"/>
      <point x="39" y="225"/>
      <point x="5" y="217" type="qcurve" name="hr01"/>
      <point x="5" y="262" type="line"/>
      <point x="24" y="259"/>
      <point x="58" y="255"/>
      <point x="75" y="255" type="qcurve" name="hr02"/>
      <point x="75" y="287" type="line"/>
      <point x="75" y="322"/>
      <point x="69" y="360" type="qcurve"/>
      <point x="132" y="372" type="line"/>
      <point x="124" y="339"/>
      <point x="124" y="299" type="qcurve" name="hr03"/>
      <point x="124" y="255" type="line"/>
      <point x="141" y="255"/>
      <point x="177" y="259"/>
      <point x="195" y="262" type="qcurve" name="hr04"/>
      <point x="195" y="217" type="line"/>
      <point x="161" y="225"/>
      <point x="124" y="225" type="qcurve" name="hr05"/>
      <point x="124" y="73" type="line"/>
      <point x="124" y="34"/>
      <point x="132" y="0" type="qcurve"/>
    </contour>
  </outline>
</glyph>
<glyph name="u" format="1">
  <advance width="332"/>
  <unicode hex="0075"/>
  <outline>
    <contour>
      <point x="228" y="0" type="line"/>
      <point x="229" y="6"/>
      <point x="230" y="20"/>
      <point x="232" y="27" type="qcurve"/>
      <point x="205" y="-5"/>
      <point x="152" y="-5" type="qcurve"/>
      <point x="101" y="-5"/>
      <point x="71" y="34" type="qcurve"/>
      <point x="48" y="63"/>
      <point x="48" y="109" type="qcurve"/>
      <point x="48" y="187" type="line"/>
      <point x="48" y="223"/>
      <point x="42" y="260" type="qcurve"/>
      <point x="105" y="272" type="line"/>
      <point x="97" y="239"/>
      <point x="97" y="199" type="qcurve" name="hr01"/>
      <point x="97" y="109" type="line"/>
      <point x="97" y="73"/>
      <point x="108" y="56" type="qcurve"/>
      <point x="127" y="26"/>
      <point x="166" y="26" type="qcurve"/>
      <point x="207" y="26"/>
      <point x="224" y="56" type="qcurve"/>
      <point x="235" y="73"/>
      <point x="235" y="109" type="qcurve"/>
      <point x="235" y="187" type="line"/>
      <point x="235" y="223"/>
      <point x="228" y="260" type="qcurve"/>
      <point x="291" y="272" type="line"/>
      <point x="284" y="239"/>
      <point x="284" y="199" type="qcurve"/>
      <point x="284" y="73" type="line"/>
      <point x="284" y="54"/>
      <point x="287" y="17"/>
      <point x="291" y="0" type="qcurve" name="hr02"/>
    </contour>
  </outline>
</glyph>
<glyph name="v" format="1">
  <advance width="296"/>
  <unicode hex="0076"/>
  <outline>
    <contour>
      <point x="125" y="0" type="line" name="hr00"/>
      <point x="119" y="21"/>
      <point x="107" y="57"/>
      <point x="101" y="70" type="qcurve"/>
      <point x="37" y="205" type="line"/>
      <point x="31" y="220"/>
      <point x="12" y="250"/>
      <point x="0" y="268" type="qcurve"/>
      <point x="69" y="268" type="line"/>
      <point x="74" y="249"/>
      <point x="86" y="214"/>
      <point x="93" y="198" type="qcurve"/>
      <point x="155" y="63" type="line"/>
      <point x="217" y="198" type="line"/>
      <point x="224" y="213"/>
      <point x="236" y="247"/>
      <point x="241" y="268" type="qcurve"/>
      <point x="296" y="268" type="line"/>
      <point x="284" y="253"/>
      <point x="267" y="221"/>
      <point x="258" y="205" type="qcurve"/>
      <point x="194" y="70" type="line"/>
      <point x="181" y="42"/>
      <point x="169" y="0" type="qcurve"/>
    </contour>
  </outline>
</glyph>
<glyph name="w" format="1">
  <advance width="419"/>
  <unicode hex="0077"/>
  <outline>
    <contour>
      <point x="94" y="0" type="line" name="hr00"/>
      <point x="89" y="39"/>
      <point x="77" y="72" type="qcurve"/>
      <point x="31" y="201" type="line"/>
      <point x="25" y="220"/>
      <point x="9" y="252"/>
      <point x="0" y="268" type="qcurve"/>
      <point x="64" y="268" type="line"/>
      <point x="66" y="250"/>
      <point x="75" y="214"/>
      <point x="81" y="196" type="qcurve"/>
      <point x="130" y="61" type="line"/>
      <point x="175" y="196" type="line"/>
      <point x="186" y="232"/>
      <point x="192" y="268" type="qcurve"/>
      <point x="241" y="268" type="line"/>
      <point x="243" y="250"/>
      <point x="252" y="214"/>
      <point x="258" y="196" type="qcurve"/>
      <point x="306" y="61" type="line"/>
      <point x="351" y="196" type="line"/>
      <point x="363" y="232"/>
      <point x="369" y="268" type="qcurve"/>
      <point x="419" y="268" type="line"/>
      <point x="409" y="250"/>
      <point x="393" y="217"/>
      <point x="388" y="201" type="qcurve"/>
      <point x="342" y="72" type="line"/>
      <point x="330" y="39"/>
      <point x="325" y="0" type="qcurve"/>
      <point x="271" y="0" type="line"/>
      <point x="266" y="39"/>
      <point x="254" y="72" type="qcurve"/>
      <point x="209" y="197" type="line"/>
      <point x="164" y="72" type="line"/>
      <point x="152" y="36"/>
      <point x="148" y="0" type="qcurve"/>
    </contour>
  </outline>
</glyph>
<glyph name="x" format="1">
  <advance width="285"/>
  <unicode hex="0078"/>
  <outline>
    <contour>
      <point x="10" y="0" type="line" name="hr00"/>
      <point x="39" y="27"/>
      <point x="60" y="52" type="qcurve"/>
      <point x="118" y="127" type="line"/>
      <point x="58" y="212" type="line"/>
      <point x="40" y="238"/>
      <point x="10" y="268" type="qcurve"/>
      <point x="84" y="268" type="line"/>
      <point x="97" y="234"/>
      <point x="119" y="204" type="qcurve"/>
      <point x="148" y="165" type="line"/>
      <point x="179" y="206" type="line"/>
      <point x="204" y="237"/>
      <point x="217" y="268" type="qcurve"/>
      <point x="275" y="268" type="line"/>
      <point x="247" y="244"/>
      <point x="224" y="214" type="qcurve"/>
      <point x="166" y="139" type="line"/>
      <point x="227" y="56" type="line"/>
      <point x="245" y="30"/>
      <point x="275" y="0" type="qcurve"/>
      <point x="199" y="0" type="line"/>
      <point x="184" y="35"/>
      <point x="163" y="64" type="qcurve"/>
      <point x="137" y="101" type="line"/>
      <point x="106" y="62" type="line"/>
      <point x="82" y="32"/>
      <point x="67" y="0" type="qcurve"/>
    </contour>
  </outline>
</glyph>
<glyph name="y" format="1">
  <advance width="332"/>
  <unicode hex="0079"/>
  <outline>
    <contour>
      <point x="42" y="260" type="qcurve" name="hr00"/>
      <point x="47" y="261"/>
      <point x="57" y="264" type="qcurve"/>
      <point x="65" y="266"/>
      <point x="89" y="269"/>
      <point x="105" y="272" type="qcurve"/>
      <point x="97" y="239"/>
      <point x="97" y="199" type="qcurve"/>
      <point x="97" y="109" type="line"/>
      <point x="97" y="73"/>
      <point x="108" y="56" type="qcurve"/>
      <point x="127" y="26"/>
      <point x="166" y="26" type="qcurve"/>
      <point x="205" y="26"/>
      <point x="224" y="56" type="qcurve"/>
      <point x="235" y="73"/>
      <point x="235" y="109" type="qcurve"/>
      <point x="235" y="187" type="line"/>
      <point x="235" y="223"/>
      <point x="228" y="260" type="qcurve"/>
      <point x="291" y="272" type="line"/>
      <point x="284" y="239"/>
      <point x="284" y="199" type="qcurve"/>
      <point x="284" y="33" type="line"/>
      <point x="284" y="-25"/>
      <point x="254" y="-61" type="qcurve"/>
      <point x="216" y="-105"/>
      <point x="161" y="-105" type="qcurve"/>
      <point x="105" y="-105"/>
      <point x="69" y="-78" type="qcurve"/>
      <point x="69" y="-15" type="line"/>
      <point x="71" y="-15" type="line"/>
      <point x="76" y="-27"/>
      <point x="86" y="-44"/>
      <point x="93" y="-50" type="qcurve"/>
      <point x="120" y="-74"/>
      <point x="160" y="-74" type="qcurve"/>
      <point x="194" y="-74"/>
      <point x="213" y="-47" type="qcurve"/>
      <point x="235" y="-19"/>
      <point x="235" y="30" type="qcurve"/>
      <point x="207" y="-5"/>
      <point x="152" y="-5" type="qcurve"/>
      <point x="99" y="-5"/>
      <point x="71" y="34" type="qcurve"/>
      <point x="48" y="66"/>
      <point x="48" y="109" type="qcurve"/>
      <point x="48" y="187" type="line"/>
      <point x="48" y="223"/>
    </contour>
  </outline>
</glyph>
<glyph name="z" format="1">
  <advance width="267"/>
  <unicode hex="007A"/>
  <outline>
    <contour>
      <point x="25" y="0" type="line" name="hr00"/>
      <point x="15" y="30" type="line"/>
      <point x="42" y="57"/>
      <point x="63" y="85" type="qcurve"/>
      <point x="183" y="238" type="line"/>
      <point x="120" y="238" type="line"/>
      <point x="101" y="238"/>
      <point x="65" y="234"/>
      <point x="47" y="230" type="qcurve"/>
      <point x="47" y="268" type="line"/>
      <point x="238" y="268" type="line"/>
      <point x="246" y="238" type="line"/>
      <point x="235" y="225"/>
      <point x="210" y="198"/>
      <point x="198" y="183" type="qcurve"/>
      <point x="78" y="30" type="line"/>
      <point x="175" y="30" type="line"/>
      <point x="216" y="30"/>
      <point x="247" y="37" type="qcurve"/>
      <point x="247" y="0" type="line"/>
    </contour>
  </outline>
</glyph>
<glyph name="braceleft" format="1">
  <advance width="208"/>
  <unicode hex="007B"/>
  <outline>
    <contour>
      <point x="171" y="425" type="line" name="hr00"/>
      <point x="127" y="406"/>
      <point x="127" y="351" type="qcurve"/>
      <point x="127" y="259" type="line"/>
      <point x="127" y="192"/>
      <point x="58" y="184" type="qcurve"/>
      <point x="127" y="177"/>
      <point x="127" y="109" type="qcurve"/>
      <point x="127" y="16" type="line"/>
      <point x="127" y="-36"/>
      <point x="171" y="-58" type="qcurve"/>
      <point x="171" y="-60" type="line"/>
      <point x="80" y="-60"/>
      <point x="80" y="16" type="qcurve"/>
      <point x="80" y="109" type="line"/>
      <point x="80" y="162"/>
      <point x="36" y="183" type="qcurve"/>
      <point x="36" y="185" type="line"/>
      <point x="80" y="207"/>
      <point x="80" y="259" type="qcurve"/>
      <point x="80" y="351" type="line"/>
      <point x="80" y="429"/>
      <point x="171" y="429" type="qcurve"/>
    </contour>
  </outline>
</glyph>
<glyph name="bar" format="1">
  <advance width="161"/>
  <unicode hex="007C"/>
  <outline>
    <contour>
      <point x="54" y="-44" type="line" name="hr00"/>
      <point x="57" y="-26"/>
      <point x="61" y="11"/>
      <point x="61" y="29" type="qcurve"/>
      <point x="61" y="339" type="line"/>
      <point x="61" y="357"/>
      <point x="57" y="393"/>
      <point x="54" y="411" type="qcurve"/>
      <point x="107" y="411" type="line"/>
      <point x="103" y="393"/>
      <point x="100" y="357"/>
      <point x="100" y="339" type="qcurve"/>
      <point x="100" y="29" type="line"/>
      <point x="100" y="11"/>
      <point x="103" y="-26"/>
      <point x="107" y="-44" type="qcurve"/>
    </contour>
  </outline>
</glyph>
<glyph name="braceright" format="1">
  <advance width="208"/>
  <unicode hex="007D"/>
  <outline>
    <contour>
      <point x="36" y="429" type="line" name="hr00"/>
      <point x="127" y="429"/>
      <point x="127" y="351" type="qcurve"/>
      <point x="127" y="259" type="line"/>
      <point x="127" y="207"/>
      <point x="171" y="185" type="qcurve"/>
      <point x="171" y="183" type="line"/>
      <point x="127" y="162"/>
      <point x="127" y="109" type="qcurve"/>
      <point x="127" y="16" type="line"/>
      <point x="127" y="-60"/>
      <point x="36" y="-60" type="qcurve"/>
      <point x="36" y="-58" type="line"/>
      <point x="80" y="-36"/>
      <point x="80" y="16" type="qcurve"/>
      <point x="80" y="109" type="line"/>
      <point x="80" y="177"/>
      <point x="150" y="184" type="qcurve"/>
      <point x="80" y="192"/>
      <point x="80" y="259" type="qcurve"/>
      <point x="80" y="351" type="line"/>
      <point x="80" y="406"/>
      <point x="36" y="425" type="qcurve"/>
    </contour>
  </outline>
</glyph>
<glyph name="asciitilde" format="1">
  <advance width="294"/>
  <unicode hex="007E"/>
  <outline>
    <contour>
      <point x="48" y="199" type="line" name="hr00"/>
      <point x="71" y="225"/>
      <point x="96" y="225" type="qcurve"/>
      <point x="124" y="225"/>
      <point x="146" y="207" type="qcurve"/>
      <point x="174" y="185" type="line"/>
      <point x="181" y="180"/>
      <point x="193" y="175"/>
      <point x="199" y="175" type="qcurve"/>
      <point x="230" y="175"/>
      <point x="242" y="225" type="qcurve"/>
      <point x="244" y="225" type="line"/>
      <point x="244" y="161" type="line"/>
      <point x="224" y="134"/>
      <point x="196" y="134" type="qcurve"/>
      <point x="171" y="134"/>
      <point x="147" y="152" type="qcurve"/>
      <point x="120" y="174" type="line"/>
      <point x="106" y="184"/>
      <point x="94" y="184" type="qcurve"/>
      <point x="62" y="184"/>
      <point x="51" y="134" type="qcurve"/>
      <point x="48" y="134" type="line"/>
    </contour>
  </outline>
</glyph>
<glyph name="cent" format="1">
  <advance width="281"/>
  <unicode hex="00A2"/>
  <outline>
    <contour>
      <point x="164" y="-44" type="line"/>
      <point x="139" y="-44" type="line"/>
      <point x="139" y="-4" type="line"/>
      <point x="91" y="2"/>
      <point x="59" y="39" type="qcurve"/>
      <point x="25" y="79"/>
      <point x="25" y="134" type="qcurve"/>
      <point x="25" y="189"/>
      <point x="59" y="229" type="qcurve"/>
      <point x="91" y="266"/>
      <point x="139" y="272" type="qcurve" name="hr01"/>
      <point x="139" y="312" type="line"/>
      <point x="164" y="312" type="line"/>
      <point x="164" y="272" type="line" name="hr02"/>
      <point x="206" y="270"/>
      <point x="236" y="244" type="qcurve"/>
      <point x="236" y="179" type="line"/>
      <point x="234" y="179" type="line"/>
      <point x="224" y="200"/>
      <point x="213" y="212" type="qcurve" name="hr03"/>
      <point x="193" y="239"/>
      <point x="164" y="242" type="qcurve"/>
      <point x="164" y="26" type="line" name="hr04"/>
      <point x="216" y="29"/>
      <point x="249" y="86" type="qcurve"/>
      <point x="251" y="86" type="line"/>
      <point x="251" y="39" type="line"/>
      <point x="217" y="-1"/>
      <point x="164" y="-4" type="qcurve"/>
    </contour>
    <contour>
      <point x="139" y="240" type="line"/>
      <point x="116" y="235"/>
      <point x="100" y="212" type="qcurve"/>
      <point x="78" y="186"/>
      <point x="78" y="134" type="qcurve"/>
      <point x="78" y="82"/>
      <point x="100" y="55" type="qcurve"/>
      <point x="115" y="33"/>
      <point x="139" y="27" type="qcurve"/>
    </contour>
  </outline>
</glyph>
<glyph name="copyright" format="1">
  <advance width="365"/>
  <unicode hex="00A9"/>
  <outline>
    <contour>
      <point x="254" y="195" type="line" name="hr00"/>
      <point x="254" y="164" type="line"/>
      <point x="225" y="133"/>
      <point x="184" y="133" type="qcurve"/>
      <point x="142" y="133"/>
      <point x="116" y="162" type="qcurve"/>
      <point x="88" y="190"/>
      <point x="88" y="232" type="qcurve"/>
      <point x="88" y="272"/>
      <point x="116" y="302" type="qcurve"/>
      <point x="145" y="331"/>
      <point x="184" y="331" type="qcurve"/>
      <point x="216" y="331"/>
      <point x="244" y="310" type="qcurve"/>
      <point x="244" y="270" type="line"/>
      <point x="236" y="270" type="line"/>
      <point x="231" y="279"/>
      <point x="228" y="283" type="qcurve"/>
      <point x="210" y="306"/>
      <point x="184" y="306" type="qcurve"/>
      <point x="159" y="306"/>
      <point x="140" y="283" type="qcurve"/>
      <point x="124" y="260"/>
      <point x="124" y="231" type="qcurve"/>
      <point x="124" y="201"/>
      <point x="140" y="181" type="qcurve"/>
      <point x="159" y="157"/>
      <point x="184" y="157" type="qcurve"/>
      <point x="216" y="157"/>
      <point x="245" y="195" type="qcurve"/>
    </contour>
    <contour>
      <point x="183" y="372" type="qcurve"/>
      <point x="241" y="372"/>
      <point x="280" y="330" type="qcurve"/>
      <point x="316" y="290"/>
      <point x="316" y="231" type="qcurve"/>
      <point x="316" y="170"/>
      <point x="277" y="134" type="qcurve"/>
      <point x="237" y="94"/>
      <point x="182" y="94" type="qcurve"/>
      <point x="127" y="94"/>
      <point x="88" y="134" type="qcurve"/>
      <point x="48" y="174"/>
      <point x="48" y="231" type="qcurve"/>
      <point x="48" y="290"/>
      <point x="87" y="331" type="qcurve"/>
      <point x="126" y="372"/>
    </contour>
    <contour>
      <point x="182" y="354" type="qcurve"/>
      <point x="136" y="354"/>
      <point x="102" y="319" type="qcurve"/>
      <point x="66" y="284"/>
      <point x="66" y="231" type="qcurve"/>
      <point x="66" y="186"/>
      <point x="101" y="147" type="qcurve"/>
      <point x="133" y="111"/>
      <point x="183" y="111" type="qcurve"/>
      <point x="229" y="111"/>
      <point x="265" y="147" type="qcurve"/>
      <point x="298" y="180"/>
      <point x="298" y="231" type="qcurve"/>
      <point x="298" y="286"/>
      <point x="265" y="318" type="qcurve"/>
      <point x="229" y="354"/>
    </contour>
  </outline>
</glyph>
<glyph name="registered" format="1">
  <advance width="365"/>
  <unicode hex="00AE"/>
  <outline>
    <contour>
      <point x="182" y="354" type="qcurve" name="hr00"/>
      <point x="136" y="354"/>
      <point x="102" y="319" type="qcurve"/>
      <point x="66" y="284"/>
      <point x="66" y="231" type="qcurve"/>
      <point x="66" y="186"/>
      <point x="101" y="147" type="qcurve"/>
      <point x="133" y="111"/>
      <point x="183" y="111" type="qcurve"/>
      <point x="222" y="111"/>
      <point x="254" y="137" type="qcurve"/>
      <point x="227" y="137" type="line"/>
      <point x="223" y="148"/>
      <point x="214" y="165"/>
      <point x="209" y="172" type="qcurve"/>
      <point x="183" y="212" type="line"/>
      <point x="177" y="212" type="line"/>
      <point x="167" y="212" type="line"/>
      <point x="167" y="179" type="line"/>
      <point x="167" y="164"/>
      <point x="172" y="137" type="qcurve"/>
      <point x="129" y="137" type="line"/>
      <point x="133" y="153"/>
      <point x="133" y="179" type="qcurve"/>
      <point x="133" y="289" type="line"/>
      <point x="133" y="315"/>
      <point x="129" y="331" type="qcurve"/>
      <point x="177" y="331" type="line"/>
      <point x="210" y="331"/>
      <point x="227" y="314" type="qcurve"/>
      <point x="247" y="297"/>
      <point x="247" y="271" type="qcurve"/>
      <point x="247" y="247"/>
      <point x="227" y="228" type="qcurve"/>
      <point x="224" y="225"/>
      <point x="217" y="221" type="qcurve"/>
      <point x="249" y="174" type="line"/>
      <point x="256" y="162"/>
      <point x="267" y="150" type="qcurve"/>
      <point x="298" y="182"/>
      <point x="298" y="231" type="qcurve"/>
      <point x="298" y="286"/>
      <point x="265" y="318" type="qcurve"/>
      <point x="229" y="354"/>
    </contour>
    <contour>
      <point x="183" y="372" type="qcurve"/>
      <point x="241" y="372"/>
      <point x="280" y="330" type="qcurve"/>
      <point x="316" y="290"/>
      <point x="316" y="231" type="qcurve"/>
      <point x="316" y="170"/>
      <point x="277" y="134" type="qcurve"/>
      <point x="237" y="94"/>
      <point x="182" y="94" type="qcurve"/>
      <point x="127" y="94"/>
      <point x="88" y="134" type="qcurve"/>
      <point x="48" y="174"/>
      <point x="48" y="231" type="qcurve"/>
      <point x="48" y="290"/>
      <point x="87" y="331" type="qcurve"/>
      <point x="126" y="372"/>
    </contour>
    <contour>
      <point x="167" y="237" type="line"/>
      <point x="177" y="237" type="line"/>
      <point x="193" y="237"/>
      <point x="202" y="246" type="qcurve"/>
      <point x="211" y="255"/>
      <point x="211" y="271" type="qcurve"/>
      <point x="211" y="288"/>
      <point x="202" y="296" type="qcurve"/>
      <point x="192" y="306"/>
      <point x="177" y="306" type="qcurve"/>
      <point x="168" y="306" type="line"/>
      <point x="167" y="301"/>
      <point x="167" y="294"/>
      <point x="167" y="289" type="qcurve"/>
    </contour>
  </outline>
</glyph>
<glyph name="onehalf" format="1">
  <advance width="405"/>
  <unicode hex="00BD"/>
  <outline>
    <contour>
      <point x="223" y="58" type="line"/>
      <point x="232" y="58" type="line"/>
      <point x="237" y="46"/>
      <point x="244" y="39" type="qcurve"/>
      <point x="255" y="22"/>
      <point x="273" y="22" type="qcurve"/>
      <point x="290" y="22"/>
      <point x="300" y="34" type="qcurve"/>
      <point x="309" y="45"/>
      <point x="309" y="60" type="qcurve"/>
      <point x="309" y="78"/>
      <point x="299" y="87" type="qcurve"/>
      <point x="288" y="97"/>
      <point x="266" y="97" type="qcurve"/>
      <point x="256" y="110" type="line"/>
      <point x="296" y="164" type="line"/>
      <point x="275" y="164" type="line"/>
      <point x="251" y="164"/>
      <point x="234" y="160" type="qcurve"/>
      <point x="234" y="190" type="line"/>
      <point x="333" y="190" type="line"/>
      <point x="336" y="167" type="line" name="hr01"/>
      <point x="324" y="155"/>
      <point x="311" y="138" type="qcurve"/>
      <point x="296" y="117" type="line"/>
      <point x="310" y="114"/>
      <point x="325" y="104" type="qcurve"/>
      <point x="345" y="88"/>
      <point x="345" y="60" type="qcurve"/>
      <point x="345" y="34"/>
      <point x="324" y="15" type="qcurve" name="hr02"/>
      <point x="304" y="-2"/>
      <point x="272" y="-2" type="qcurve"/>
      <point x="246" y="-2"/>
      <point x="223" y="19" type="qcurve"/>
    </contour>
    <contour>
      <point x="76" y="0" type="line"/>
      <point x="97" y="28"/>
      <point x="114" y="63" type="qcurve"/>
      <point x="222" y="298" type="line"/>
      <point x="229" y="316"/>
      <point x="241" y="349"/>
      <point x="245" y="367" type="qcurve"/>
      <point x="300" y="367" type="line"/>
      <point x="279" y="341"/>
      <point x="262" y="304" type="qcurve"/>
      <point x="154" y="70" type="line"/>
      <point x="147" y="54"/>
      <point x="135" y="19"/>
      <point x="130" y="0" type="qcurve"/>
    </contour>
    <contour>
      <point x="82" y="180" type="line"/>
      <point x="87" y="198"/>
      <point x="87" y="222" type="qcurve"/>
      <point x="87" y="329" type="line"/>
      <point x="87" y="333" type="line"/>
      <point x="64" y="311" type="line"/>
      <point x="48" y="329" type="line"/>
      <point x="86" y="364" type="line"/>
      <point x="126" y="372" type="line" name="hr03"/>
      <point x="121" y="352"/>
      <point x="121" y="334" type="qcurve"/>
      <point x="121" y="222" type="line" name="hr04"/>
      <point x="121" y="204"/>
      <point x="126" y="180" type="qcurve"/>
    </contour>
  </outline>
</glyph>
<glyph name="threequarters" format="1">
  <advance width="404"/>
  <unicode hex="00BE"/>
  <outline>
    <contour>
      <point x="298" y="0" type="line"/>
      <point x="303" y="25"/>
      <point x="303" y="42" type="qcurve"/>
      <point x="303" y="44" type="line"/>
      <point x="217" y="44" type="line"/>
      <point x="210" y="65" type="line"/>
      <point x="225" y="80"/>
      <point x="235" y="94" type="qcurve"/>
      <point x="282" y="160" type="line"/>
      <point x="292" y="174"/>
      <point x="301" y="194" type="qcurve"/>
      <point x="342" y="194" type="line"/>
      <point x="336" y="170"/>
      <point x="336" y="152" type="qcurve"/>
      <point x="336" y="70" type="line"/>
      <point x="342" y="70"/>
      <point x="350" y="72"/>
      <point x="355" y="74" type="qcurve"/>
      <point x="355" y="44" type="line"/>
      <point x="336" y="44" type="line"/>
      <point x="336" y="42" type="line"/>
      <point x="336" y="24"/>
      <point x="342" y="0" type="qcurve"/>
    </contour>
    <contour>
      <point x="303" y="69" type="line"/>
      <point x="303" y="147" type="line"/>
      <point x="246" y="69" type="line"/>
    </contour>
    <contour>
      <point x="91" y="0" type="line"/>
      <point x="103" y="14"/>
      <point x="120" y="45"/>
      <point x="129" y="63" type="qcurve"/>
      <point x="237" y="298" type="line"/>
      <point x="245" y="316"/>
      <point x="257" y="349"/>
      <point x="261" y="367" type="qcurve"/>
      <point x="315" y="367" type="line"/>
      <point x="304" y="352"/>
      <point x="286" y="322"/>
      <point x="277" y="304" type="qcurve"/>
      <point x="169" y="70" type="line" name="hr01"/>
      <point x="163" y="54"/>
      <point x="151" y="19"/>
      <point x="146" y="0" type="qcurve"/>
    </contour>
    <contour>
      <point x="48" y="239" type="line"/>
      <point x="58" y="239" type="line"/>
      <point x="64" y="224"/>
      <point x="70" y="219" type="qcurve"/>
      <point x="82" y="204"/>
      <point x="100" y="204" type="qcurve"/>
      <point x="116" y="204"/>
      <point x="125" y="214" type="qcurve"/>
      <point x="134" y="223"/>
      <point x="134" y="241" type="qcurve"/>
      <point x="134" y="259"/>
      <point x="124" y="268" type="qcurve"/>
      <point x="112" y="277"/>
      <point x="91" y="277" type="qcurve"/>
      <point x="81" y="290" type="line" name="hr02"/>
      <point x="122" y="345" type="line"/>
      <point x="101" y="345" type="line"/>
      <point x="77" y="345"/>
      <point x="60" y="341" type="qcurve"/>
      <point x="60" y="370" type="line"/>
      <point x="159" y="370" type="line"/>
      <point x="163" y="348" type="line"/>
      <point x="148" y="335"/>
      <point x="137" y="319" type="qcurve"/>
      <point x="121" y="297" type="line"/>
      <point x="135" y="295"/>
      <point x="150" y="284" type="qcurve"/>
      <point x="170" y="270"/>
      <point x="170" y="240" type="qcurve"/>
      <point x="170" y="214"/>
      <point x="149" y="196" type="qcurve"/>
      <point x="132" y="179"/>
      <point x="97" y="179" type="qcurve"/>
      <point x="70" y="179"/>
      <point x="48" y="199" type="qcurve" name="hr03"/>
    </contour>
  </outline>
</glyph>
<glyph name="Adieresis" format="1">
  <advance width="385"/>
  <unicode hex="00C4"/>
  <outline>
    <contour>
      <point x="212" y="419" type="qcurve" name="hr00"/>
      <point x="204" y="430"/>
      <point x="204" y="442" type="qcurve"/>
      <point x="204" y="454"/>
      <point x="212" y="465" type="qcurve"/>
      <point x="222" y="475"/>
      <point x="235" y="475" type="qcurve"/>
      <point x="247" y="475"/>
      <point x="257" y="465" type="qcurve"/>
      <point x="267" y="455"/>
      <point x="267" y="442" type="qcurve"/>
      <point x="267" y="429"/>
      <point x="257" y="419" type="qcurve"/>
      <point x="249" y="410"/>
      <point x="235" y="410" type="qcurve"/>
      <point x="223" y="410"/>
    </contour>
    <contour>
      <point x="126" y="419" type="qcurve"/>
      <point x="117" y="429"/>
      <point x="117" y="442" type="qcurve"/>
      <point x="117" y="455"/>
      <point x="126" y="465" type="qcurve"/>
      <point x="134" y="475"/>
      <point x="148" y="475" type="qcurve"/>
      <point x="162" y="475"/>
      <point x="170" y="465" type="qcurve"/>
      <point x="180" y="455"/>
      <point x="180" y="442" type="qcurve"/>
      <point x="180" y="429"/>
      <point x="170" y="419" type="qcurve"/>
      <point x="162" y="410"/>
      <point x="148" y="410" type="qcurve"/>
      <point x="135" y="410"/>
    </contour>
    <contour>
      <point x="0" y="0" type="line"/>
      <point x="12" y="16"/>
      <point x="30" y="47"/>
      <point x="37" y="63" type="qcurve"/>
      <point x="146" y="298" type="line"/>
      <point x="153" y="313"/>
      <point x="165" y="348"/>
      <point x="170" y="367" type="qcurve"/>
      <point x="214" y="367" type="line"/>
      <point x="224" y="330"/>
      <point x="239" y="298" type="qcurve"/>
      <point x="347" y="63" type="line"/>
      <point x="360" y="33"/>
      <point x="385" y="0" type="qcurve"/>
      <point x="316" y="0" type="line"/>
      <point x="311" y="19"/>
      <point x="299" y="55"/>
      <point x="291" y="70" type="qcurve"/>
      <point x="245" y="169" type="line"/>
      <point x="123" y="169" type="line"/>
      <point x="78" y="70" type="line"/>
      <point x="71" y="52"/>
      <point x="59" y="18"/>
      <point x="54" y="0" type="qcurve"/>
    </contour>
    <contour>
      <point x="136" y="197" type="line"/>
      <point x="234" y="197" type="line"/>
      <point x="184" y="309" type="line"/>
    </contour>
  </outline>
</glyph>
<glyph name="Aring" format="1">
  <advance width="385"/>
  <unicode hex="00C5"/>
  <outline>
    <contour>
      <point x="192" y="400" type="qcurve" name="hr00"/>
      <point x="201" y="400"/>
      <point x="209" y="407" type="qcurve"/>
      <point x="216" y="415"/>
      <point x="216" y="425" type="qcurve"/>
      <point x="216" y="436"/>
      <point x="209" y="442" type="qcurve"/>
      <point x="202" y="450"/>
      <point x="192" y="450" type="qcurve"/>
      <point x="181" y="450"/>
      <point x="175" y="442" type="qcurve"/>
      <point x="167" y="436"/>
      <point x="167" y="425" type="qcurve"/>
      <point x="167" y="415"/>
      <point x="175" y="407" type="qcurve"/>
      <point x="182" y="400"/>
    </contour>
    <contour>
      <point x="192" y="475" type="qcurve"/>
      <point x="211" y="475"/>
      <point x="226" y="460" type="qcurve"/>
      <point x="240" y="446"/>
      <point x="240" y="425" type="qcurve"/>
      <point x="240" y="404"/>
      <point x="226" y="391" type="qcurve"/>
      <point x="211" y="376"/>
      <point x="192" y="376" type="qcurve"/>
      <point x="172" y="376"/>
      <point x="157" y="391" type="qcurve"/>
      <point x="144" y="405"/>
      <point x="144" y="425" type="qcurve"/>
      <point x="144" y="446"/>
      <point x="157" y="460" type="qcurve"/>
      <point x="172" y="475"/>
    </contour>
    <contour>
      <point x="0" y="0" type="line"/>
      <point x="12" y="16"/>
      <point x="30" y="47"/>
      <point x="37" y="63" type="qcurve"/>
      <point x="146" y="298" type="line"/>
      <point x="153" y="313"/>
      <point x="165" y="348"/>
      <point x="170" y="367" type="qcurve"/>
      <point x="214" y="367" type="line"/>
      <point x="224" y="330"/>
      <point x="239" y="298" type="qcurve"/>
      <point x="347" y="63" type="line"/>
      <point x="360" y="33"/>
      <point x="385" y="0" type="qcurve"/>
      <point x="316" y="0" type="line"/>
      <point x="311" y="19"/>
      <point x="299" y="55"/>
      <point x="291" y="70" type="qcurve"/>
      <point x="245" y="169" type="line"/>
      <point x="123" y="169" type="line"/>
      <point x="78" y="70" type="line"/>
      <point x="71" y="52"/>
      <point x="59" y="18"/>
      <point x="54" y="0" type="qcurve"/>
    </contour>
    <contour>
      <point x="136" y="197" type="line"/>
      <point x="234" y="197" type="line"/>
      <point x="184" y="309" type="line"/>
    </contour>
  </outline>
</glyph>
<glyph name="Ccedilla" format="1">
  <advance width="374"/>
  <unicode hex="00C7"/>
  <outline>
    <contour>
      <point x="337" y="101" type="line" name="hr00"/>
      <point x="337" y="50" type="line"/>
      <point x="287" y="0"/>
      <point x="222" y="-4" type="qcurve"/>
      <point x="240" y="-28"/>
      <point x="240" y="-55" type="qcurve"/>
      <point x="240" y="-105"/>
      <point x="172" y="-105" type="qcurve"/>
      <point x="172" y="-71" type="line"/>
      <point x="204" y="-71"/>
      <point x="204" y="-44" type="qcurve"/>
      <point x="204" y="-20"/>
      <point x="191" y="-4" type="qcurve"/>
      <point x="124" y="2"/>
      <point x="78" y="50" type="qcurve"/>
      <point x="25" y="105"/>
      <point x="25" y="183" type="qcurve"/>
      <point x="25" y="262"/>
      <point x="78" y="317" type="qcurve"/>
      <point x="131" y="372"/>
      <point x="208" y="372" type="qcurve"/>
      <point x="273" y="372"/>
      <point x="318" y="334" type="qcurve"/>
      <point x="318" y="270" type="line"/>
      <point x="316" y="270" type="line"/>
      <point x="313" y="275"/>
      <point x="306" y="286"/>
      <point x="302" y="291" type="qcurve"/>
      <point x="264" y="342"/>
      <point x="208" y="342" type="qcurve"/>
      <point x="150" y="342"/>
      <point x="112" y="291" type="qcurve"/>
      <point x="78" y="244"/>
      <point x="78" y="183" type="qcurve"/>
      <point x="78" y="122"/>
      <point x="112" y="76" type="qcurve"/>
      <point x="151" y="26"/>
      <point x="208" y="26" type="qcurve"/>
      <point x="282" y="26"/>
      <point x="334" y="101" type="qcurve"/>
    </contour>
  </outline>
</glyph>
<glyph name="Eacute" format="1">
  <advance width="262"/>
  <unicode hex="00C9"/>
  <outline>
    <contour>
      <point x="214" y="475" type="line"/>
      <point x="214" y="471" type="line"/>
      <point x="198" y="429"/>
      <point x="152" y="394" type="qcurve"/>
      <point x="118" y="394" type="line"/>
      <point x="118" y="396" type="line"/>
      <point x="155" y="434"/>
      <point x="155" y="475" type="qcurve"/>
    </contour>
    <contour>
      <point x="42" y="0" type="line"/>
      <point x="48" y="36"/>
      <point x="48" y="73" type="qcurve" name="hr01"/>
      <point x="48" y="295" type="line"/>
      <point x="48" y="330"/>
      <point x="42" y="367" type="qcurve"/>
      <point x="209" y="367" type="line" name="hr02"/>
      <point x="209" y="330" type="line"/>
      <point x="191" y="333"/>
      <point x="154" y="337"/>
      <point x="136" y="337" type="qcurve"/>
      <point x="100" y="337" type="line"/>
      <point x="99" y="326"/>
      <point x="97" y="304"/>
      <point x="97" y="295" type="qcurve" name="hr03"/>
      <point x="97" y="199" type="line"/>
      <point x="136" y="199" type="line"/>
      <point x="154" y="199"/>
      <point x="191" y="204"/>
      <point x="209" y="207" type="qcurve"/>
      <point x="209" y="162" type="line"/>
      <point x="191" y="166"/>
      <point x="154" y="169"/>
      <point x="136" y="169" type="qcurve"/>
      <point x="97" y="169" type="line" name="hr04"/>
      <point x="97" y="73" type="line"/>
      <point x="97" y="62"/>
      <point x="99" y="42"/>
      <point x="100" y="30" type="qcurve"/>
      <point x="165" y="30" type="line"/>
      <point x="205" y="30"/>
      <point x="238" y="37" type="qcurve"/>
      <point x="238" y="0" type="line"/>
    </contour>
  </outline>
</glyph>
<glyph name="Ntilde" format="1">
  <advance width="381"/>
  <unicode hex="00D1"/>
  <outline>
    <contour>
      <point x="123" y="454" type="line" name="hr00"/>
      <point x="138" y="475"/>
      <point x="159" y="475" type="qcurve"/>
      <point x="177" y="475"/>
      <point x="195" y="460" type="qcurve"/>
      <point x="216" y="444" type="line"/>
      <point x="227" y="435"/>
      <point x="236" y="435" type="qcurve"/>
      <point x="257" y="435"/>
      <point x="267" y="475" type="qcurve"/>
      <point x="269" y="475" type="line"/>
      <point x="269" y="424" type="line"/>
      <point x="253" y="404"/>
      <point x="234" y="404" type="qcurve"/>
      <point x="213" y="404"/>
      <point x="196" y="418" type="qcurve"/>
      <point x="176" y="435" type="line"/>
      <point x="167" y="442"/>
      <point x="156" y="442" type="qcurve"/>
      <point x="133" y="442"/>
      <point x="125" y="404" type="qcurve"/>
      <point x="123" y="404" type="line"/>
    </contour>
    <contour>
      <point x="42" y="0" type="line"/>
      <point x="48" y="36"/>
      <point x="48" y="73" type="qcurve"/>
      <point x="48" y="295" type="line"/>
      <point x="48" y="330"/>
      <point x="42" y="367" type="qcurve"/>
      <point x="92" y="367" type="line"/>
      <point x="101" y="349"/>
      <point x="120" y="318"/>
      <point x="131" y="304" type="qcurve"/>
      <point x="299" y="80" type="line"/>
      <point x="299" y="295" type="line"/>
      <point x="299" y="313"/>
      <point x="296" y="349"/>
      <point x="291" y="367" type="qcurve"/>
      <point x="341" y="367" type="line"/>
      <point x="336" y="349"/>
      <point x="333" y="313"/>
      <point x="333" y="295" type="qcurve"/>
      <point x="333" y="73" type="line"/>
      <point x="333" y="34"/>
      <point x="341" y="0" type="qcurve"/>
      <point x="290" y="0" type="line"/>
      <point x="270" y="37"/>
      <point x="252" y="63" type="qcurve"/>
      <point x="84" y="290" type="line"/>
      <point x="84" y="73" type="line"/>
      <point x="84" y="36"/>
      <point x="90" y="0" type="qcurve"/>
    </contour>
  </outline>
</glyph>
<glyph name="divide" format="1">
  <advance width="317"/>
  <unicode hex="00F7"/>
  <outline>
    <contour>
      <point x="274" y="157" type="line" name="hr00"/>
      <point x="16" y="157" type="line"/>
      <point x="26" y="224" type="line"/>
      <point x="285" y="224" type="line"/>
    </contour>
    <contour>
      <point x="181" y="74" type="qcurve"/>
      <point x="178" y="48"/>
      <point x="146" y="20"/>
      <point x="126" y="20" type="qcurve"/>
      <point x="107" y="20"/>
      <point x="84" y="48"/>
      <point x="87" y="74" type="qcurve"/>
      <point x="90" y="96"/>
      <point x="122" y="125"/>
      <point x="141" y="125" type="qcurve"/>
      <point x="161" y="125"/>
      <point x="184" y="96"/>
    </contour>
    <contour>
      <point x="216" y="331" type="qcurve"/>
      <point x="213" y="306"/>
      <point x="181" y="279"/>
      <point x="163" y="279" type="qcurve"/>
      <point x="142" y="279"/>
      <point x="120" y="306"/>
      <point x="124" y="331" type="qcurve"/>
      <point x="127" y="355"/>
      <point x="157" y="384"/>
      <point x="177" y="384" type="qcurve"/>
      <point x="196" y="384"/>
      <point x="220" y="355"/>
    </contour>
  </outline>
</glyph>
<glyph name="uni0950" format="1">
  <advance width="619"/>
  <unicode hex="0950"/>
  <outline>
    <contour>
      <point x="318" y="570" type="line"/>
      <point x="357" y="530" type="line"/>
      <point x="318" y="493" type="line"/>
      <point x="280" y="534" type="line"/>
    </contour>
    <contour>
      <point x="228" y="510" type="line"/>
      <point x="261" y="465"/>
      <point x="311" y="465" type="qcurve"/>
      <point x="357" y="465"/>
      <point x="389" y="510" type="qcurve"/>
      <point x="439" y="468" type="line"/>
      <point x="391" y="415"/>
      <point x="339" y="415" type="qcurve"/>
      <point x="264" y="415"/>
      <point x="210" y="497" type="qcurve"/>
    </contour>
    <contour>
      <point x="406" y="310" type="qcurve"/>
      <point x="426" y="299"/>
      <point x="426" y="261" type="qcurve"/>
      <point x="426" y="219" type="line"/>
      <point x="426" y="195" type="line"/>
      <point x="426" y="127"/>
      <point x="468" y="127" type="qcurve"/>
      <point x="502" y="127"/>
      <point x="550" y="193"/>
      <point x="550" y="243" type="qcurve"/>
      <point x="550" y="291"/>
      <point x="507" y="351"/>
      <point x="474" y="351" type="qcurve" name="hr01"/>
      <point x="429" y="351"/>
    </contour>
    <contour>
      <point x="47" y="269" type="line"/>
      <point x="56" y="220"/>
      <point x="89" y="138"/>
      <point x="114" y="107" type="qcurve"/>
      <point x="164" y="45"/>
      <point x="229" y="45" type="qcurve"/>
      <point x="265" y="45"/>
      <point x="313" y="95"/>
      <point x="313" y="132" type="qcurve"/>
      <point x="313" y="196"/>
      <point x="259" y="253" type="qcurve"/>
      <point x="229" y="213"/>
      <point x="193" y="196" type="qcurve"/>
      <point x="167" y="257" type="line"/>
      <point x="254" y="283"/>
      <point x="254" y="340" type="qcurve"/>
      <point x="254" y="382"/>
      <point x="201" y="382" type="qcurve"/>
      <point x="162" y="382"/>
      <point x="119" y="360" type="qcurve"/>
      <point x="94" y="421" type="line"/>
      <point x="133" y="438"/>
      <point x="168" y="438" type="qcurve"/>
      <point x="219" y="438"/>
      <point x="281" y="374"/>
      <point x="281" y="321" type="qcurve" name="hr02"/>
      <point x="281" y="303"/>
      <point x="272" y="280" type="qcurve"/>
      <point x="283" y="269" type="line"/>
      <point x="331" y="317"/>
      <point x="377" y="317" type="qcurve"/>
      <point x="379" y="317"/>
      <point x="385" y="317"/>
      <point x="389" y="315" type="qcurve"/>
      <point x="405" y="406"/>
      <point x="480" y="406" type="qcurve"/>
      <point x="576" y="406"/>
      <point x="576" y="247" type="qcurve"/>
      <point x="576" y="166"/>
      <point x="517" y="73"/>
      <point x="465" y="73" type="qcurve"/>
      <point x="430" y="73"/>
      <point x="399" y="119"/>
      <point x="399" y="174" type="qcurve"/>
      <point x="399" y="201" type="line"/>
      <point x="399" y="251"/>
      <point x="372" y="251" type="qcurve"/>
      <point x="348" y="251"/>
      <point x="315" y="227" type="qcurve"/>
      <point x="362" y="164"/>
      <point x="362" y="104" type="qcurve"/>
      <point x="362" y="54"/>
      <point x="299" y="-4"/>
      <point x="246" y="-4" type="qcurve"/>
      <point x="164" y="-4"/>
      <point x="99" y="72" type="qcurve"/>
      <point x="65" y="109"/>
      <point x="32" y="205"/>
      <point x="27" y="264" type="qcurve"/>
    </contour>
  </outline>
</glyph>
<glyph name="uni0964" format="1">
  <advance width="84"/>
  <unicode hex="0964"/>
  <outline>
    <contour>
      <point x="-1" y="354" type="line" name="hr00"/>
      <point x="41" y="354" type="line"/>
      <point x="41" y="51" type="line"/>
      <point x="-1" y="51" type="line"/>
    </contour>
  </outline>
</glyph>
<glyph name="uni0965" format="1">
  <advance width="183"/>
  <unicode hex="0965"/>
  <outline>
    <contour>
      <point x="99" y="354" type="line" name="hr00"/>
      <point x="140" y="354" type="line"/>
      <point x="140" y="51" type="line"/>
      <point x="99" y="51" type="line"/>
    </contour>
    <contour>
      <point x="-1" y="354" type="line"/>
      <point x="41" y="354" type="line"/>
      <point x="41" y="51" type="line"/>
      <point x="-1" y="51" type="line"/>
    </contour>
  </outline>
</glyph>
<glyph name="U0C01" format="1">
  <advance width="294"/>
  <unicode hex="0C01"/>
  <outline>
    <contour>
      <point x="230" y="296" type="qcurve" name="hr00"/>
      <point x="213" y="307"/>
      <point x="171" y="314"/>
      <point x="132" y="304"/>
      <point x="96" y="281"/>
      <point x="85" y="265" type="qcurve"/>
      <point x="57" y="226"/>
      <point x="57" y="172" type="qcurve"/>
      <point x="57" y="121"/>
      <point x="86" y="81" type="qcurve"/>
      <point x="107" y="50"/>
      <point x="180" y="32"/>
      <point x="221" y="50" type="qcurve"/>
      <point x="229" y="55"/>
      <point x="246" y="50"/>
      <point x="246" y="37" type="qcurve"/>
      <point x="246" y="26"/>
      <point x="204" y="4"/>
      <point x="141" y="-1"/>
      <point x="71" y="19"/>
      <point x="44" y="50" type="qcurve"/>
      <point x="1" y="97"/>
      <point x="1" y="166" type="qcurve"/>
      <point x="1" y="241"/>
      <point x="42" y="291" type="qcurve"/>
      <point x="71" y="325"/>
      <point x="138" y="349"/>
      <point x="199" y="346"/>
      <point x="244" y="322"/>
      <point x="249" y="309" type="qcurve"/>
      <point x="251" y="300"/>
      <point x="239" y="291"/>
    </contour>
  </outline>
</glyph>
<glyph name="U0C03" format="1">
  <advance width="151"/>
  <unicode hex="0C03"/>
  <outline>
    <contour>
      <point x="9" y="274" type="qcurve" name="hr00"/>
      <point x="9" y="298"/>
      <point x="36" y="329"/>
      <point x="59" y="329" type="qcurve"/>
      <point x="108" y="329"/>
      <point x="108" y="274" type="qcurve"/>
      <point x="108" y="252"/>
      <point x="81" y="221"/>
      <point x="59" y="221" type="qcurve"/>
      <point x="9" y="221"/>
    </contour>
    <contour>
      <point x="28" y="275" type="qcurve"/>
      <point x="28" y="247"/>
      <point x="54" y="247" type="qcurve"/>
      <point x="77" y="247"/>
      <point x="77" y="275" type="qcurve"/>
      <point x="77" y="301"/>
      <point x="54" y="301" type="qcurve"/>
      <point x="28" y="301"/>
    </contour>
    <contour>
      <point x="9" y="79" type="qcurve"/>
      <point x="9" y="101"/>
      <point x="37" y="135"/>
      <point x="59" y="135" type="qcurve"/>
      <point x="108" y="135"/>
      <point x="108" y="79" type="qcurve"/>
      <point x="108" y="58"/>
      <point x="80" y="26"/>
      <point x="59" y="26" type="qcurve"/>
      <point x="9" y="26"/>
    </contour>
    <contour>
      <point x="28" y="80" type="qcurve"/>
      <point x="28" y="54"/>
      <point x="54" y="54" type="qcurve"/>
      <point x="77" y="54"/>
      <point x="77" y="80" type="qcurve"/>
      <point x="77" y="107"/>
      <point x="54" y="107" type="qcurve"/>
      <point x="28" y="107"/>
    </contour>
  </outline>
</glyph>
<glyph name="U0C05" format="1">
  <advance width="447"/>
  <unicode hex="0C05"/>
  <outline>
    <contour>
      <point x="193" y="-1" type="qcurve"/>
      <point x="105" y="-1"/>
      <point x="54" y="54" type="qcurve"/>
      <point x="2" y="105"/>
      <point x="2" y="196" type="qcurve"/>
      <point x="2" y="217"/>
      <point x="12" y="268"/>
      <point x="34" y="312"/>
      <point x="70" y="342"/>
      <point x="96" y="342" type="qcurve"/>
      <point x="127" y="342"/>
      <point x="167" y="299"/>
      <point x="167" y="268" type="qcurve"/>
      <point x="167" y="235"/>
      <point x="126" y="192"/>
      <point x="93" y="192" type="qcurve"/>
      <point x="73" y="192"/>
      <point x="40" y="223"/>
      <point x="34" y="244" type="qcurve"/>
      <point x="28" y="225"/>
      <point x="28" y="202" type="qcurve"/>
      <point x="28" y="132"/>
      <point x="79" y="91" type="qcurve"/>
      <point x="125" y="51"/>
      <point x="198" y="51" type="qcurve"/>
      <point x="277" y="51"/>
      <point x="321" y="85" type="qcurve"/>
      <point x="374" y="122"/>
      <point x="374" y="196" type="qcurve"/>
      <point x="374" y="234"/>
      <point x="362" y="264" type="qcurve" name="hr01"/>
      <point x="354" y="284"/>
      <point x="325" y="305"/>
      <point x="297" y="303"/>
      <point x="276" y="279"/>
      <point x="276" y="252" type="qcurve"/>
      <point x="276" y="227"/>
      <point x="305" y="191"/>
      <point x="330" y="185" type="qcurve"/>
      <point x="336" y="183"/>
      <point x="336" y="172" type="qcurve"/>
      <point x="336" y="157"/>
      <point x="324" y="157" type="qcurve"/>
      <point x="176" y="157" type="line"/>
      <point x="163" y="157"/>
      <point x="163" y="172" type="qcurve"/>
      <point x="163" y="187"/>
      <point x="179" y="187" type="qcurve" name="hr02"/>
      <point x="284" y="187" type="line"/>
      <point x="245" y="213"/>
      <point x="245" y="267" type="qcurve"/>
      <point x="245" y="295"/>
      <point x="279" y="339"/>
      <point x="306" y="339" type="qcurve"/>
      <point x="354" y="339"/>
      <point x="379" y="290" type="qcurve"/>
      <point x="394" y="262"/>
      <point x="404" y="198"/>
      <point x="394" y="133"/>
      <point x="366" y="74"/>
      <point x="344" y="52" type="qcurve"/>
      <point x="287" y="-1"/>
    </contour>
    <contour>
      <point x="92" y="312" type="qcurve"/>
      <point x="76" y="312"/>
      <point x="54" y="284"/>
      <point x="54" y="268" type="qcurve"/>
      <point x="54" y="251"/>
      <point x="76" y="224"/>
      <point x="93" y="224" type="qcurve"/>
      <point x="112" y="225"/>
      <point x="136" y="243"/>
      <point x="138" y="267" type="qcurve"/>
      <point x="140" y="287"/>
      <point x="116" y="312"/>
    </contour>
  </outline>
</glyph>
<glyph name="U0C06" format="1">
  <advance width="432"/>
  <unicode hex="0C06"/>
  <outline>
    <contour>
      <point x="1" y="202" type="qcurve"/>
      <point x="1" y="224"/>
      <point x="12" y="274"/>
      <point x="36" y="318"/>
      <point x="73" y="348"/>
      <point x="99" y="348" type="qcurve"/>
      <point x="129" y="348"/>
      <point x="169" y="303"/>
      <point x="169" y="272" type="qcurve"/>
      <point x="169" y="240"/>
      <point x="129" y="195"/>
      <point x="96" y="195" type="qcurve"/>
      <point x="73" y="195"/>
      <point x="34" y="231"/>
      <point x="34" y="256" type="qcurve"/>
      <point x="29" y="235"/>
      <point x="29" y="207" type="qcurve"/>
      <point x="29" y="133"/>
      <point x="82" y="91" type="qcurve"/>
      <point x="130" y="51"/>
      <point x="205" y="51" type="qcurve"/>
      <point x="287" y="51"/>
      <point x="322" y="80" type="qcurve"/>
      <point x="332" y="88"/>
      <point x="346" y="112"/>
      <point x="351" y="139"/>
      <point x="345" y="165"/>
      <point x="334" y="174" type="qcurve"/>
      <point x="313" y="157"/>
      <point x="289" y="157" type="qcurve"/>
      <point x="178" y="157" type="line"/>
      <point x="156" y="157"/>
      <point x="156" y="174" type="qcurve"/>
      <point x="156" y="189"/>
      <point x="178" y="189" type="qcurve"/>
      <point x="286" y="189" type="line"/>
      <point x="288" y="189"/>
      <point x="297" y="189"/>
      <point x="302" y="190" type="qcurve"/>
      <point x="287" y="197" type="line"/>
      <point x="232" y="223"/>
      <point x="232" y="275" type="qcurve"/>
      <point x="232" y="305"/>
      <point x="273" y="349"/>
      <point x="303" y="349" type="qcurve"/>
      <point x="341" y="349"/>
      <point x="385" y="300"/>
      <point x="385" y="262" type="qcurve"/>
      <point x="385" y="220"/>
      <point x="359" y="193" type="qcurve"/>
      <point x="389" y="174"/>
      <point x="387" y="130" type="qcurve"/>
      <point x="385" y="93"/>
      <point x="351" y="44"/>
      <point x="301" y="13"/>
      <point x="240" y="0"/>
      <point x="210" y="0" type="qcurve"/>
      <point x="112" y="0"/>
      <point x="1" y="105"/>
    </contour>
    <contour>
      <point x="95" y="314" type="qcurve"/>
      <point x="78" y="314"/>
      <point x="56" y="287"/>
      <point x="56" y="271" type="qcurve"/>
      <point x="56" y="255"/>
      <point x="77" y="227"/>
      <point x="92" y="227" type="qcurve"/>
      <point x="109" y="227"/>
      <point x="136" y="251"/>
      <point x="136" y="269" type="qcurve" name="hr01"/>
      <point x="136" y="289"/>
      <point x="116" y="314"/>
    </contour>
    <contour>
      <point x="336" y="208" type="qcurve"/>
      <point x="359" y="231"/>
      <point x="355" y="281"/>
      <point x="327" y="312"/>
      <point x="287" y="315"/>
      <point x="274" y="294" type="qcurve"/>
      <point x="268" y="284"/>
      <point x="268" y="260"/>
      <point x="283" y="237"/>
      <point x="312" y="215"/>
    </contour>
  </outline>
</glyph>
<glyph name="U0C07" format="1">
  <advance width="363"/>
  <unicode hex="0C07"/>
  <outline>
    <contour>
      <point x="279" y="-13" type="qcurve"/>
      <point x="272" y="34"/>
      <point x="256" y="63" type="qcurve"/>
      <point x="199" y="0"/>
      <point x="124" y="0" type="qcurve"/>
      <point x="103" y="0"/>
      <point x="58" y="11"/>
      <point x="21" y="34"/>
      <point x="-2" y="70"/>
      <point x="-2" y="95" type="qcurve"/>
      <point x="-2" y="120"/>
      <point x="17" y="155"/>
      <point x="49" y="178"/>
      <point x="91" y="189"/>
      <point x="112" y="189" type="qcurve"/>
      <point x="197" y="189"/>
      <point x="255" y="118" type="qcurve"/>
      <point x="270" y="138"/>
      <point x="286" y="200"/>
      <point x="280" y="260"/>
      <point x="245" y="303"/>
      <point x="210" y="303" type="qcurve"/>
      <point x="187" y="303"/>
      <point x="152" y="266"/>
      <point x="150" y="244" type="qcurve"/>
      <point x="148" y="236"/>
      <point x="138" y="236" type="qcurve"/>
      <point x="131" y="236"/>
      <point x="127" y="250" type="qcurve"/>
      <point x="122" y="269"/>
      <point x="100" y="305"/>
      <point x="76" y="305" type="qcurve"/>
      <point x="33" y="305"/>
      <point x="33" y="253" type="qcurve"/>
      <point x="33" y="244"/>
      <point x="37" y="228"/>
      <point x="24" y="228" type="qcurve"/>
      <point x="1" y="228"/>
      <point x="1" y="269" type="qcurve" name="hr01"/>
      <point x="1" y="298"/>
      <point x="41" y="345"/>
      <point x="70" y="345" type="qcurve"/>
      <point x="120" y="345"/>
      <point x="141" y="287" type="qcurve" name="hr02"/>
      <point x="167" y="342"/>
      <point x="210" y="342" type="qcurve"/>
      <point x="255" y="342"/>
      <point x="284" y="303" type="qcurve"/>
      <point x="297" y="284"/>
      <point x="310" y="238"/>
      <point x="310" y="189"/>
      <point x="299" y="140"/>
      <point x="289" y="121" type="qcurve"/>
      <point x="275" y="92" type="line"/>
      <point x="313" y="41"/>
      <point x="319" y="-17" type="qcurve"/>
      <point x="320" y="-31"/>
      <point x="301" y="-31" type="qcurve" name="hr03"/>
      <point x="281" y="-31"/>
    </contour>
    <contour>
      <point x="227" y="108" type="line"/>
      <point x="178" y="162"/>
      <point x="112" y="162" type="qcurve"/>
      <point x="100" y="162"/>
      <point x="62" y="151"/>
      <point x="32" y="131"/>
      <point x="20" y="103"/>
      <point x="32" y="86" type="qcurve"/>
      <point x="43" y="71"/>
      <point x="90" y="50"/>
      <point x="121" y="50" type="qcurve"/>
      <point x="189" y="50"/>
      <point x="237" y="99" type="qcurve"/>
    </contour>
  </outline>
</glyph>
<glyph name="U0C08" format="1">
  <advance width="621"/>
  <unicode hex="0C08"/>
  <outline>
    <contour>
      <point x="79" y="169" type="line"/>
      <point x="84" y="114"/>
      <point x="149" y="52"/>
      <point x="205" y="52" type="qcurve"/>
      <point x="259" y="52"/>
      <point x="330" y="116"/>
      <point x="330" y="169" type="qcurve"/>
    </contour>
    <contour>
      <point x="199" y="307" type="qcurve"/>
      <point x="155" y="307"/>
      <point x="90" y="250"/>
      <point x="80" y="206" type="qcurve"/>
      <point x="329" y="206" type="line"/>
      <point x="320" y="252"/>
      <point x="284" y="280" type="qcurve"/>
      <point x="246" y="307"/>
    </contour>
    <contour>
      <point x="498" y="169" type="qcurve"/>
      <point x="478" y="169"/>
      <point x="449" y="139"/>
      <point x="449" y="119" type="qcurve"/>
      <point x="449" y="97"/>
      <point x="474" y="67"/>
      <point x="500" y="67" type="qcurve"/>
      <point x="520" y="67"/>
      <point x="550" y="99"/>
      <point x="550" y="119" type="qcurve"/>
      <point x="550" y="140"/>
      <point x="520" y="169"/>
    </contour>
    <contour>
      <point x="151" y="328" type="qcurve"/>
      <point x="101" y="354"/>
      <point x="101" y="387" type="qcurve" name="hr01"/>
      <point x="101" y="396"/>
      <point x="114" y="410"/>
      <point x="133" y="415"/>
      <point x="152" y="407"/>
      <point x="159" y="396" type="qcurve"/>
      <point x="161" y="391"/>
      <point x="169" y="374"/>
      <point x="175" y="360" type="qcurve"/>
      <point x="181" y="341"/>
      <point x="192" y="341" type="qcurve"/>
      <point x="204" y="341"/>
      <point x="230" y="367" type="qcurve"/>
      <point x="349" y="486" type="line"/>
      <point x="365" y="502"/>
      <point x="389" y="506"/>
      <point x="399" y="493"/>
      <point x="392" y="471"/>
      <point x="378" y="462" type="qcurve"/>
      <point x="239" y="334" type="line"/>
      <point x="286" y="322"/>
      <point x="317" y="287" type="qcurve"/>
      <point x="350" y="250"/>
      <point x="358" y="204" type="qcurve"/>
      <point x="487" y="204" type="line"/>
      <point x="512" y="214"/>
      <point x="535" y="265"/>
      <point x="524" y="290" type="qcurve"/>
      <point x="519" y="301"/>
      <point x="497" y="313"/>
      <point x="472" y="311"/>
      <point x="453" y="294"/>
      <point x="452" y="277" type="qcurve"/>
      <point x="451" y="269"/>
      <point x="439" y="269" type="qcurve"/>
      <point x="426" y="269"/>
      <point x="426" y="283" type="qcurve"/>
      <point x="426" y="310"/>
      <point x="464" y="343"/>
      <point x="491" y="343" type="qcurve"/>
      <point x="520" y="343"/>
      <point x="558" y="301"/>
      <point x="558" y="271" type="qcurve"/>
      <point x="558" y="225"/>
      <point x="519" y="195" type="qcurve"/>
      <point x="551" y="182"/>
      <point x="579" y="127"/>
      <point x="572" y="72"/>
      <point x="534" y="30"/>
      <point x="499" y="30" type="qcurve"/>
      <point x="470" y="30"/>
      <point x="433" y="59"/>
      <point x="419" y="102"/>
      <point x="430" y="150"/>
      <point x="449" y="169" type="qcurve"/>
      <point x="361" y="169" type="line"/>
      <point x="363" y="91"/>
      <point x="320" y="47" type="qcurve"/>
      <point x="279" y="-1"/>
      <point x="201" y="-1" type="qcurve"/>
      <point x="153" y="-1"/>
      <point x="116" y="29" type="qcurve" name="hr02"/>
      <point x="80" y="57"/>
      <point x="62" y="102" type="qcurve"/>
      <point x="55" y="119"/>
      <point x="48" y="152"/>
      <point x="47" y="169" type="qcurve"/>
      <point x="13" y="169" type="line"/>
      <point x="-2" y="169"/>
      <point x="-2" y="187" type="qcurve"/>
      <point x="-2" y="206"/>
      <point x="13" y="206" type="qcurve"/>
      <point x="50" y="206" type="line"/>
      <point x="70" y="294"/>
    </contour>
  </outline>
</glyph>
<glyph name="U0C09" format="1">
  <advance width="434"/>
  <unicode hex="0C09"/>
  <outline>
    <contour>
      <point x="304" y="-1" type="qcurve"/>
      <point x="270" y="-1"/>
      <point x="215" y="41"/>
      <point x="208" y="74" type="qcurve"/>
      <point x="189" y="-1"/>
      <point x="120" y="-1" type="qcurve"/>
      <point x="71" y="-1"/>
      <point x="45" y="50" type="qcurve"/>
      <point x="25" y="88"/>
      <point x="25" y="144" type="qcurve"/>
      <point x="25" y="165"/>
      <point x="33" y="202" type="qcurve"/>
      <point x="18" y="202" type="line"/>
      <point x="-1" y="202"/>
      <point x="-1" y="220" type="qcurve"/>
      <point x="-1" y="237"/>
      <point x="18" y="237" type="qcurve"/>
      <point x="45" y="237" type="line"/>
      <point x="72" y="292"/>
      <point x="115" y="316" type="qcurve"/>
      <point x="135" y="327"/>
      <point x="182" y="335" type="qcurve"/>
      <point x="175" y="365"/>
      <point x="166" y="404"/>
      <point x="166" y="414" type="qcurve"/>
      <point x="166" y="444"/>
      <point x="189" y="444" type="qcurve"/>
      <point x="201" y="444"/>
      <point x="214" y="431"/>
      <point x="214" y="414" type="qcurve"/>
      <point x="214" y="406"/>
      <point x="198" y="337" type="qcurve"/>
      <point x="201" y="339"/>
      <point x="217" y="339" type="qcurve"/>
      <point x="244" y="339"/>
      <point x="303" y="318"/>
      <point x="321" y="297" type="qcurve"/>
      <point x="327" y="291"/>
      <point x="321" y="272"/>
      <point x="307" y="272" type="qcurve"/>
      <point x="301" y="272"/>
      <point x="286" y="283"/>
      <point x="262" y="297"/>
      <point x="225" y="307"/>
      <point x="195" y="307" type="qcurve" name="hr01"/>
      <point x="120" y="307"/>
      <point x="74" y="237" type="qcurve"/>
      <point x="369" y="237" type="line"/>
      <point x="385" y="237"/>
      <point x="385" y="219" type="qcurve"/>
      <point x="385" y="202"/>
      <point x="369" y="202" type="qcurve"/>
      <point x="60" y="202" type="line" name="hr02"/>
      <point x="49" y="174"/>
      <point x="49" y="147" type="qcurve"/>
      <point x="49" y="109"/>
      <point x="66" y="82" type="qcurve"/>
      <point x="85" y="50"/>
      <point x="121" y="50" type="qcurve"/>
      <point x="152" y="50"/>
      <point x="197" y="93"/>
      <point x="197" y="124" type="qcurve"/>
      <point x="197" y="138"/>
      <point x="208" y="138" type="qcurve"/>
      <point x="219" y="138"/>
      <point x="219" y="123" type="qcurve"/>
      <point x="219" y="92"/>
      <point x="267" y="50"/>
      <point x="299" y="50" type="qcurve"/>
      <point x="330" y="50"/>
      <point x="359" y="84"/>
      <point x="360" y="122"/>
      <point x="339" y="155"/>
      <point x="320" y="155" type="qcurve"/>
      <point x="313" y="155"/>
      <point x="303" y="148"/>
      <point x="296" y="138"/>
      <point x="287" y="129"/>
      <point x="281" y="126" type="qcurve"/>
      <point x="266" y="123"/>
      <point x="258" y="140"/>
      <point x="270" y="164"/>
      <point x="296" y="184"/>
      <point x="315" y="185" type="qcurve"/>
      <point x="349" y="185"/>
      <point x="371" y="157" type="qcurve"/>
      <point x="391" y="131"/>
      <point x="391" y="96" type="qcurve"/>
      <point x="391" y="57"/>
      <point x="343" y="-1"/>
    </contour>
  </outline>
</glyph>
<glyph name="U0C0A" format="1">
  <advance width="633"/>
  <unicode hex="0C0A"/>
  <outline>
    <contour>
      <point x="516" y="63" type="qcurve"/>
      <point x="482" y="63"/>
      <point x="439" y="108"/>
      <point x="439" y="141" type="qcurve"/>
      <point x="439" y="174"/>
      <point x="465" y="201" type="qcurve"/>
      <point x="62" y="201" type="line"/>
      <point x="51" y="174"/>
      <point x="51" y="145" type="qcurve"/>
      <point x="51" y="129"/>
      <point x="59" y="95"/>
      <point x="76" y="69"/>
      <point x="103" y="50"/>
      <point x="121" y="50" type="qcurve"/>
      <point x="152" y="50"/>
      <point x="196" y="93"/>
      <point x="198" y="124" type="qcurve"/>
      <point x="198" y="144"/>
      <point x="207" y="144" type="qcurve"/>
      <point x="215" y="144"/>
      <point x="217" y="127" type="qcurve"/>
      <point x="223" y="94"/>
      <point x="267" y="50"/>
      <point x="299" y="50" type="qcurve"/>
      <point x="329" y="50"/>
      <point x="358" y="81"/>
      <point x="361" y="120"/>
      <point x="342" y="151"/>
      <point x="324" y="151" type="qcurve"/>
      <point x="315" y="151"/>
      <point x="303" y="142"/>
      <point x="298" y="137" type="qcurve"/>
      <point x="295" y="134"/>
      <point x="287" y="126"/>
      <point x="282" y="124" type="qcurve"/>
      <point x="275" y="122"/>
      <point x="265" y="130"/>
      <point x="265" y="137" type="qcurve" name="hr01"/>
      <point x="265" y="156"/>
      <point x="296" y="184"/>
      <point x="315" y="185" type="qcurve"/>
      <point x="333" y="185"/>
      <point x="362" y="170"/>
      <point x="381" y="145"/>
      <point x="391" y="112"/>
      <point x="391" y="96" type="qcurve"/>
      <point x="391" y="56"/>
      <point x="369" y="29" type="qcurve" name="hr02"/>
      <point x="343" y="-1"/>
      <point x="304" y="-1" type="qcurve"/>
      <point x="229" y="-1"/>
      <point x="208" y="74" type="qcurve"/>
      <point x="189" y="-1"/>
      <point x="121" y="-1" type="qcurve"/>
      <point x="94" y="-1"/>
      <point x="58" y="27"/>
      <point x="36" y="69"/>
      <point x="27" y="119"/>
      <point x="27" y="140" type="qcurve"/>
      <point x="27" y="175"/>
      <point x="34" y="201" type="qcurve"/>
      <point x="18" y="201" type="line"/>
      <point x="-3" y="201"/>
      <point x="-3" y="220" type="qcurve"/>
      <point x="-3" y="237"/>
      <point x="18" y="237" type="qcurve"/>
      <point x="47" y="237" type="line"/>
      <point x="84" y="312"/>
      <point x="156" y="331" type="qcurve"/>
      <point x="139" y="376"/>
      <point x="139" y="409" type="qcurve"/>
      <point x="139" y="440"/>
      <point x="162" y="440" type="qcurve" name="hr03"/>
      <point x="185" y="440"/>
      <point x="185" y="410" type="qcurve"/>
      <point x="185" y="407"/>
      <point x="178" y="370"/>
      <point x="171" y="334" type="qcurve"/>
      <point x="184" y="336"/>
      <point x="208" y="340"/>
      <point x="217" y="340" type="qcurve"/>
      <point x="232" y="340"/>
      <point x="235" y="339" type="qcurve"/>
      <point x="219" y="388"/>
      <point x="219" y="407" type="qcurve"/>
      <point x="219" y="441"/>
      <point x="241" y="441" type="qcurve"/>
      <point x="266" y="441"/>
      <point x="266" y="407" type="qcurve"/>
      <point x="266" y="399"/>
      <point x="251" y="335" type="qcurve"/>
      <point x="271" y="332"/>
      <point x="295" y="318" type="qcurve"/>
      <point x="327" y="300"/>
      <point x="327" y="287" type="qcurve"/>
      <point x="327" y="277"/>
      <point x="317" y="269"/>
      <point x="304" y="268"/>
      <point x="290" y="273"/>
      <point x="285" y="279" type="qcurve"/>
      <point x="264" y="298"/>
      <point x="228" y="309"/>
      <point x="198" y="307" type="qcurve"/>
      <point x="122" y="306"/>
      <point x="77" y="237" type="qcurve"/>
      <point x="493" y="237" type="line"/>
      <point x="510" y="237"/>
      <point x="538" y="270"/>
      <point x="546" y="311"/>
      <point x="530" y="343"/>
      <point x="506" y="343" type="qcurve"/>
      <point x="491" y="342"/>
      <point x="468" y="321"/>
      <point x="468" y="304" type="qcurve"/>
      <point x="466" y="296"/>
      <point x="455" y="296" type="qcurve"/>
      <point x="444" y="296"/>
      <point x="442" y="313"/>
      <point x="444" y="321" type="qcurve"/>
      <point x="447" y="343"/>
      <point x="482" y="375"/>
      <point x="504" y="375" type="qcurve"/>
      <point x="535" y="375"/>
      <point x="572" y="335"/>
      <point x="574" y="304" type="qcurve"/>
      <point x="574" y="296"/>
      <point x="569" y="273"/>
      <point x="557" y="251"/>
      <point x="543" y="231"/>
      <point x="536" y="227" type="qcurve"/>
      <point x="590" y="207"/>
      <point x="590" y="148" type="qcurve"/>
      <point x="590" y="115"/>
      <point x="551" y="63"/>
    </contour>
    <contour>
      <point x="510" y="201" type="qcurve"/>
      <point x="493" y="199"/>
      <point x="465" y="172"/>
      <point x="465" y="152" type="qcurve"/>
      <point x="465" y="102"/>
      <point x="513" y="102" type="qcurve"/>
      <point x="535" y="102"/>
      <point x="565" y="126"/>
      <point x="565" y="151" type="qcurve"/>
      <point x="565" y="175"/>
      <point x="532" y="204"/>
    </contour>
  </outline>
</glyph>
<glyph name="U0C0B" format="1">
  <advance width="858"/>
  <unicode hex="0C0B"/>
  <outline>
    <contour>
      <point x="696" y="-1" type="qcurve"/>
      <point x="664" y="-1"/>
      <point x="635" y="29" type="qcurve"/>
      <point x="611" y="54"/>
      <point x="599" y="89" type="qcurve"/>
      <point x="586" y="51"/>
      <point x="561" y="28" type="qcurve"/>
      <point x="531" y="1"/>
      <point x="495" y="1" type="qcurve"/>
      <point x="446" y="1"/>
      <point x="417" y="46" type="qcurve"/>
      <point x="389" y="85"/>
      <point x="389" y="137" type="qcurve"/>
      <point x="389" y="150"/>
      <point x="397" y="150" type="qcurve"/>
      <point x="404" y="150"/>
      <point x="406" y="141" type="qcurve" name="hr01"/>
      <point x="408" y="104"/>
      <point x="454" y="55"/>
      <point x="491" y="55" type="qcurve"/>
      <point x="539" y="55"/>
      <point x="562" y="89" type="qcurve"/>
      <point x="584" y="120"/>
      <point x="584" y="168" type="qcurve"/>
      <point x="584" y="221"/>
      <point x="555" y="261" type="qcurve"/>
      <point x="521" y="306"/>
      <point x="471" y="306" type="qcurve"/>
      <point x="452" y="306"/>
      <point x="452" y="324" type="qcurve"/>
      <point x="452" y="342"/>
      <point x="466" y="342" type="qcurve"/>
      <point x="507" y="342"/>
      <point x="541" y="316" type="qcurve"/>
      <point x="610" y="265"/>
      <point x="610" y="155" type="qcurve"/>
      <point x="610" y="147" type="line"/>
      <point x="616" y="108"/>
      <point x="640" y="84" type="qcurve"/>
      <point x="666" y="55"/>
      <point x="703" y="55" type="qcurve"/>
      <point x="786" y="55"/>
      <point x="786" y="166" type="qcurve" name="hr02"/>
      <point x="786" y="256"/>
      <point x="725" y="294" type="qcurve"/>
      <point x="717" y="298"/>
      <point x="684" y="305" type="qcurve"/>
      <point x="658" y="312"/>
      <point x="658" y="326" type="qcurve" name="hr03"/>
      <point x="658" y="342"/>
      <point x="675" y="342" type="qcurve"/>
      <point x="711" y="342"/>
      <point x="745" y="317" type="qcurve"/>
      <point x="774" y="294"/>
      <point x="792" y="258" type="qcurve"/>
      <point x="804" y="234"/>
      <point x="815" y="183"/>
      <point x="815" y="155" type="qcurve"/>
      <point x="815" y="124"/>
      <point x="800" y="73"/>
      <point x="786" y="50" type="qcurve"/>
      <point x="752" y="-1"/>
    </contour>
    <contour>
      <point x="298" y="0" type="qcurve"/>
      <point x="266" y="0"/>
      <point x="238" y="25" type="qcurve"/>
      <point x="210" y="51"/>
      <point x="207" y="82" type="qcurve"/>
      <point x="204" y="46"/>
      <point x="171" y="24" type="qcurve"/>
      <point x="138" y="0"/>
      <point x="103" y="0" type="qcurve"/>
      <point x="61" y="0"/>
      <point x="31" y="28" type="qcurve" name="hr04"/>
      <point x="1" y="57"/>
      <point x="1" y="99" type="qcurve"/>
      <point x="1" y="165"/>
      <point x="60" y="192" type="qcurve"/>
      <point x="80" y="202"/>
      <point x="127" y="208" type="qcurve"/>
      <point x="147" y="210"/>
      <point x="172" y="240"/>
      <point x="172" y="260" type="qcurve"/>
      <point x="172" y="285"/>
      <point x="139" y="314"/>
      <point x="115" y="314" type="qcurve"/>
      <point x="90" y="314"/>
      <point x="51" y="277"/>
      <point x="51" y="253" type="qcurve"/>
      <point x="51" y="234"/>
      <point x="30" y="234" type="qcurve"/>
      <point x="11" y="234"/>
      <point x="11" y="256" type="qcurve"/>
      <point x="11" y="295"/>
      <point x="66" y="344"/>
      <point x="106" y="344" type="qcurve"/>
      <point x="146" y="344"/>
      <point x="172" y="320" type="qcurve"/>
      <point x="202" y="297"/>
      <point x="202" y="257" type="qcurve"/>
      <point x="202" y="189"/>
      <point x="118" y="179" type="qcurve"/>
      <point x="35" y="168"/>
      <point x="35" y="115" type="qcurve"/>
      <point x="35" y="51"/>
      <point x="103" y="51" type="qcurve"/>
      <point x="136" y="51"/>
      <point x="189" y="97"/>
      <point x="195" y="131" type="qcurve"/>
      <point x="198" y="145"/>
      <point x="207" y="145" type="qcurve"/>
      <point x="214" y="145"/>
      <point x="216" y="131" type="qcurve"/>
      <point x="220" y="99"/>
      <point x="243" y="77" type="qcurve"/>
      <point x="267" y="51"/>
      <point x="297" y="51" type="qcurve"/>
      <point x="337" y="51"/>
      <point x="362" y="92" type="qcurve"/>
      <point x="380" y="126"/>
      <point x="380" y="172" type="qcurve"/>
      <point x="380" y="223"/>
      <point x="349" y="264" type="qcurve"/>
      <point x="341" y="275"/>
      <point x="325" y="289"/>
      <point x="309" y="298"/>
      <point x="288" y="303"/>
      <point x="274" y="307" type="qcurve"/>
      <point x="265" y="310"/>
      <point x="258" y="315"/>
      <point x="258" y="327" type="qcurve"/>
      <point x="258" y="343"/>
      <point x="280" y="343" type="qcurve"/>
      <point x="295" y="343"/>
      <point x="307" y="339" type="qcurve"/>
      <point x="407" y="301"/>
      <point x="407" y="160" type="qcurve"/>
      <point x="407" y="102"/>
      <point x="382" y="56" type="qcurve"/>
      <point x="352" y="0"/>
    </contour>
  </outline>
</glyph>
<glyph name="U0C0C" format="1">
  <advance width="440"/>
  <unicode hex="0C0C"/>
  <outline>
    <contour>
      <point x="306" y="247" type="qcurve"/>
      <point x="306" y="222"/>
      <point x="281" y="192"/>
      <point x="243" y="170"/>
      <point x="199" y="149"/>
      <point x="181" y="131" type="qcurve"/>
      <point x="166" y="116"/>
      <point x="161" y="76"/>
      <point x="178" y="42"/>
      <point x="213" y="18"/>
      <point x="238" y="18" type="qcurve"/>
      <point x="279" y="18"/>
      <point x="332" y="41"/>
      <point x="364" y="75"/>
      <point x="375" y="117"/>
      <point x="371" y="153"/>
      <point x="354" y="181"/>
      <point x="342" y="184" type="qcurve" name="hr01"/>
      <point x="333" y="186"/>
      <point x="324" y="198"/>
      <point x="324" y="209"/>
      <point x="333" y="217"/>
      <point x="342" y="217" type="qcurve"/>
      <point x="358" y="216"/>
      <point x="385" y="178"/>
      <point x="397" y="122"/>
      <point x="391" y="58"/>
      <point x="359" y="2"/>
      <point x="295" y="-34"/>
      <point x="242" y="-34" type="qcurve" name="hr02"/>
      <point x="201" y="-34"/>
      <point x="148" y="3"/>
      <point x="124" y="59"/>
      <point x="135" y="121"/>
      <point x="160" y="146" type="qcurve"/>
      <point x="170" y="156"/>
      <point x="210" y="175"/>
      <point x="247" y="196"/>
      <point x="275" y="225"/>
      <point x="275" y="249" type="qcurve" name="hr03"/>
      <point x="275" y="270"/>
      <point x="243" y="303"/>
      <point x="210" y="303" type="qcurve"/>
      <point x="187" y="303"/>
      <point x="152" y="266"/>
      <point x="150" y="244" type="qcurve"/>
      <point x="148" y="236"/>
      <point x="138" y="236" type="qcurve"/>
      <point x="131" y="236"/>
      <point x="127" y="250" type="qcurve"/>
      <point x="122" y="269"/>
      <point x="100" y="305"/>
      <point x="76" y="305" type="qcurve"/>
      <point x="33" y="305"/>
      <point x="33" y="253" type="qcurve"/>
      <point x="33" y="244"/>
      <point x="37" y="228"/>
      <point x="24" y="228" type="qcurve"/>
      <point x="1" y="228"/>
      <point x="1" y="269" type="qcurve"/>
      <point x="1" y="298"/>
      <point x="41" y="345"/>
      <point x="70" y="345" type="qcurve"/>
      <point x="120" y="345"/>
      <point x="141" y="287" type="qcurve"/>
      <point x="167" y="342"/>
      <point x="210" y="342" type="qcurve"/>
      <point x="237" y="342"/>
      <point x="273" y="326"/>
      <point x="296" y="299"/>
      <point x="306" y="265"/>
    </contour>
  </outline>
</glyph>
<glyph name="U0C0E" format="1">
  <advance width="422"/>
  <unicode hex="0C0E"/>
  <outline>
    <contour>
      <point x="266" y="0" type="qcurve" name="hr00"/>
      <point x="238" y="0"/>
      <point x="192" y="39"/>
      <point x="180" y="66" type="qcurve"/>
      <point x="154" y="0"/>
      <point x="95" y="0" type="qcurve"/>
      <point x="74" y="0"/>
      <point x="40" y="17"/>
      <point x="14" y="45"/>
      <point x="0" y="81"/>
      <point x="0" y="102" type="qcurve"/>
      <point x="0" y="146"/>
      <point x="48" y="206"/>
      <point x="91" y="206" type="qcurve"/>
      <point x="115" y="206"/>
      <point x="153" y="182"/>
      <point x="166" y="164" type="qcurve"/>
      <point x="178" y="147"/>
      <point x="190" y="111"/>
      <point x="202" y="94" type="qcurve"/>
      <point x="234" y="54"/>
      <point x="270" y="54" type="qcurve"/>
      <point x="351" y="54"/>
      <point x="351" y="189" type="qcurve"/>
      <point x="351" y="231"/>
      <point x="333" y="288" type="qcurve"/>
      <point x="322" y="317"/>
      <point x="300" y="362"/>
      <point x="285" y="378" type="qcurve"/>
      <point x="277" y="387"/>
      <point x="254" y="404"/>
      <point x="227" y="419"/>
      <point x="200" y="427"/>
      <point x="189" y="427" type="qcurve"/>
      <point x="167" y="427"/>
      <point x="167" y="446" type="qcurve"/>
      <point x="167" y="466"/>
      <point x="187" y="466" type="qcurve"/>
      <point x="213" y="466"/>
      <point x="251" y="447" type="qcurve"/>
      <point x="284" y="430"/>
      <point x="333" y="366"/>
      <point x="364" y="289"/>
      <point x="379" y="208"/>
      <point x="379" y="172" type="qcurve"/>
      <point x="379" y="145"/>
      <point x="370" y="85"/>
      <point x="344" y="33"/>
      <point x="300" y="0"/>
    </contour>
    <contour>
      <point x="93" y="175" type="qcurve"/>
      <point x="62" y="175"/>
      <point x="31" y="136"/>
      <point x="31" y="108" type="qcurve"/>
      <point x="31" y="82"/>
      <point x="69" y="54"/>
      <point x="91" y="54" type="qcurve"/>
      <point x="116" y="54"/>
      <point x="150" y="84"/>
      <point x="152" y="108" type="qcurve"/>
      <point x="154" y="133"/>
      <point x="121" y="175"/>
    </contour>
  </outline>
</glyph>
<glyph name="U0C0F" format="1">
  <advance width="422"/>
  <unicode hex="0C0F"/>
  <outline>
    <contour>
      <point x="266" y="0" type="qcurve"/>
      <point x="238" y="0"/>
      <point x="192" y="39"/>
      <point x="180" y="66" type="qcurve"/>
      <point x="154" y="0"/>
      <point x="95" y="0" type="qcurve"/>
      <point x="74" y="0"/>
      <point x="40" y="17"/>
      <point x="14" y="45"/>
      <point x="0" y="81"/>
      <point x="0" y="102" type="qcurve"/>
      <point x="0" y="146"/>
      <point x="48" y="206"/>
      <point x="91" y="206" type="qcurve"/>
      <point x="115" y="206"/>
      <point x="153" y="182"/>
      <point x="166" y="164" type="qcurve"/>
      <point x="178" y="147"/>
      <point x="190" y="111"/>
      <point x="202" y="94" type="qcurve"/>
      <point x="234" y="54"/>
      <point x="270" y="54" type="qcurve"/>
      <point x="297" y="54"/>
      <point x="329" y="79"/>
      <point x="347" y="120"/>
      <point x="351" y="171"/>
      <point x="348" y="224"/>
      <point x="339" y="271"/>
      <point x="333" y="288" type="qcurve"/>
      <point x="314" y="346"/>
      <point x="285" y="378" type="qcurve"/>
      <point x="277" y="387"/>
      <point x="254" y="404"/>
      <point x="227" y="419"/>
      <point x="200" y="427"/>
      <point x="189" y="427" type="qcurve"/>
      <point x="167" y="427"/>
      <point x="167" y="446" type="qcurve"/>
      <point x="167" y="466"/>
      <point x="187" y="466" type="qcurve"/>
      <point x="213" y="466"/>
      <point x="251" y="447" type="qcurve"/>
      <point x="284" y="430"/>
      <point x="333" y="366"/>
      <point x="364" y="289"/>
      <point x="379" y="208"/>
      <point x="379" y="172" type="qcurve"/>
      <point x="379" y="145"/>
      <point x="370" y="85"/>
      <point x="344" y="33"/>
      <point x="300" y="0"/>
    </contour>
    <contour>
      <point x="93" y="175" type="qcurve"/>
      <point x="62" y="175"/>
      <point x="31" y="136"/>
      <point x="31" y="108" type="qcurve" name="hr01"/>
      <point x="31" y="82"/>
      <point x="69" y="54"/>
      <point x="91" y="54" type="qcurve"/>
      <point x="116" y="54"/>
      <point x="150" y="84"/>
      <point x="152" y="108" type="qcurve"/>
      <point x="154" y="133"/>
      <point x="121" y="175"/>
    </contour>
    <contour>
      <point x="144" y="541" type="qcurve"/>
      <point x="81" y="498"/>
      <point x="86" y="415" type="qcurve"/>
      <point x="86" y="408"/>
      <point x="78" y="403"/>
      <point x="69" y="403"/>
      <point x="60" y="408"/>
      <point x="59" y="414" type="qcurve"/>
      <point x="57" y="425"/>
      <point x="55" y="444"/>
      <point x="55" y="452" type="qcurve"/>
      <point x="55" y="537"/>
      <point x="122" y="581" type="qcurve"/>
      <point x="142" y="594"/>
      <point x="155" y="594" type="qcurve"/>
      <point x="166" y="594"/>
      <point x="178" y="581"/>
      <point x="180" y="564"/>
      <point x="174" y="549"/>
      <point x="166" y="547" type="qcurve"/>
      <point x="156" y="545"/>
      <point x="146" y="542"/>
    </contour>
  </outline>
</glyph>
<glyph name="U0C10" format="1">
  <advance width="408"/>
  <unicode hex="0C10"/>
  <outline>
    <contour>
      <point x="250" y="-2" type="qcurve"/>
      <point x="189" y="-2"/>
      <point x="166" y="61" type="qcurve"/>
      <point x="144" y="-1"/>
      <point x="85" y="-1" type="qcurve"/>
      <point x="65" y="-1"/>
      <point x="34" y="15"/>
      <point x="12" y="41"/>
      <point x="0" y="74"/>
      <point x="0" y="92" type="qcurve"/>
      <point x="0" y="109"/>
      <point x="13" y="141"/>
      <point x="36" y="167"/>
      <point x="67" y="182"/>
      <point x="86" y="182" type="qcurve"/>
      <point x="109" y="182"/>
      <point x="146" y="155"/>
      <point x="156" y="135" type="qcurve"/>
      <point x="162" y="125"/>
      <point x="168" y="108" name="hr03"/>
      <point x="175" y="92"/>
      <point x="185" y="77"/>
      <point x="195" y="69" type="qcurve"/>
      <point x="219" y="49"/>
      <point x="250" y="49" type="qcurve"/>
      <point x="295" y="49"/>
      <point x="318" y="89" type="qcurve"/>
      <point x="329" y="106"/>
      <point x="339" y="148"/>
      <point x="337" y="192"/>
      <point x="326" y="234"/>
      <point x="316" y="251" type="qcurve"/>
      <point x="290" y="294"/>
      <point x="250" y="295" type="qcurve"/>
      <point x="240" y="295"/>
      <point x="216" y="290"/>
      <point x="196" y="279"/>
      <point x="182" y="261"/>
      <point x="182" y="250" type="qcurve"/>
      <point x="182" y="241"/>
      <point x="165" y="240"/>
      <point x="165" y="250" type="qcurve"/>
      <point x="165" y="295"/>
      <point x="105" y="295" type="qcurve"/>
      <point x="96" y="295"/>
      <point x="76" y="289"/>
      <point x="58" y="279"/>
      <point x="46" y="262"/>
      <point x="46" y="253" type="qcurve"/>
      <point x="46" y="227"/>
      <point x="24" y="227" type="qcurve" name="hr01"/>
      <point x="6" y="227"/>
      <point x="6" y="254" type="qcurve"/>
      <point x="6" y="271"/>
      <point x="21" y="300"/>
      <point x="46" y="320"/>
      <point x="76" y="333"/>
      <point x="92" y="334" type="qcurve"/>
      <point x="152" y="336"/>
      <point x="176" y="290" type="qcurve"/>
      <point x="196" y="334"/>
      <point x="250" y="334" type="qcurve"/>
      <point x="305" y="334"/>
      <point x="340" y="277" type="qcurve"/>
      <point x="365" y="230"/>
      <point x="365" y="169" type="qcurve"/>
      <point x="365" y="99"/>
      <point x="343" y="56" type="qcurve"/>
      <point x="312" y="-2"/>
    </contour>
    <contour>
      <point x="124" y="134" type="qcurve"/>
      <point x="114" y="147"/>
      <point x="85" y="155"/>
      <point x="70" y="151" type="qcurve" name="hr02"/>
      <point x="57" y="148"/>
      <point x="36" y="129"/>
      <point x="28" y="104"/>
      <point x="31" y="78"/>
      <point x="41" y="67" type="qcurve"/>
      <point x="47" y="60"/>
      <point x="69" y="52"/>
      <point x="91" y="51"/>
      <point x="114" y="59"/>
      <point x="121" y="65" type="qcurve"/>
      <point x="136" y="79"/>
      <point x="136" y="119"/>
    </contour>
  </outline>
</glyph>
<glyph name="U0C13" format="1">
  <advance width="435"/>
  <unicode hex="0C13"/>
  <outline>
    <contour>
      <point x="296" y="0" type="qcurve"/>
      <point x="260" y="0"/>
      <point x="210" y="40"/>
      <point x="205" y="74" type="qcurve"/>
      <point x="198" y="36"/>
      <point x="137" y="0"/>
      <point x="102" y="0" type="qcurve"/>
      <point x="79" y="0"/>
      <point x="42" y="17"/>
      <point x="16" y="47"/>
      <point x="1" y="86"/>
      <point x="1" y="108" type="qcurve"/>
      <point x="1" y="165"/>
      <point x="56" y="196" type="qcurve"/>
      <point x="74" y="207"/>
      <point x="122" y="209"/>
      <point x="141" y="217" type="qcurve"/>
      <point x="161" y="226"/>
      <point x="175" y="259"/>
      <point x="167" y="291"/>
      <point x="138" y="316"/>
      <point x="115" y="316" type="qcurve"/>
      <point x="97" y="316"/>
      <point x="69" y="296"/>
      <point x="61" y="281" type="qcurve"/>
      <point x="58" y="274"/>
      <point x="56" y="258"/>
      <point x="50" y="244"/>
      <point x="40" y="237"/>
      <point x="28" y="239" type="qcurve"/>
      <point x="13" y="242"/>
      <point x="9" y="265"/>
      <point x="17" y="292"/>
      <point x="33" y="319"/>
      <point x="40" y="325" type="qcurve"/>
      <point x="70" y="352"/>
      <point x="108" y="352" type="qcurve"/>
      <point x="147" y="352"/>
      <point x="202" y="302"/>
      <point x="202" y="262" type="qcurve"/>
      <point x="202" y="205"/>
      <point x="151" y="187" type="qcurve"/>
      <point x="148" y="184"/>
      <point x="110" y="181" type="qcurve"/>
      <point x="72" y="178"/>
      <point x="34" y="136"/>
      <point x="34" y="90"/>
      <point x="70" y="52"/>
      <point x="104" y="52" type="qcurve" name="hr01"/>
      <point x="119" y="52"/>
      <point x="151" y="60"/>
      <point x="178" y="76"/>
      <point x="195" y="103"/>
      <point x="195" y="121" type="qcurve"/>
      <point x="195" y="127"/>
      <point x="204" y="133"/>
      <point x="214" y="133"/>
      <point x="223" y="127"/>
      <point x="223" y="121" type="qcurve"/>
      <point x="222" y="84"/>
      <point x="271" y="52"/>
      <point x="304" y="52" type="qcurve"/>
      <point x="325" y="52"/>
      <point x="349" y="70"/>
      <point x="359" y="93"/>
      <point x="357" y="116"/>
      <point x="350" y="122" type="qcurve"/>
      <point x="340" y="129"/>
      <point x="337" y="145"/>
      <point x="347" y="154"/>
      <point x="365" y="154"/>
      <point x="374" y="146" type="qcurve"/>
      <point x="382" y="136"/>
      <point x="392" y="107"/>
      <point x="392" y="95" type="qcurve"/>
      <point x="392" y="52"/>
      <point x="339" y="0"/>
    </contour>
    <contour>
      <point x="114" y="350" type="qcurve" name="hr02"/>
      <point x="106" y="349"/>
      <point x="97" y="349"/>
      <point x="95" y="349" type="qcurve"/>
      <point x="79" y="392"/>
      <point x="76" y="412" type="qcurve"/>
      <point x="74" y="427"/>
      <point x="84" y="452"/>
      <point x="102" y="452" type="qcurve"/>
      <point x="123" y="452"/>
      <point x="131" y="423"/>
      <point x="127" y="406" type="qcurve"/>
      <point x="125" y="397"/>
      <point x="119" y="370"/>
    </contour>
  </outline>
</glyph>
<glyph name="U0C14" format="1">
  <advance width="524"/>
  <unicode hex="0C14"/>
  <outline>
    <contour>
      <point x="296" y="0" type="qcurve"/>
      <point x="260" y="0"/>
      <point x="210" y="40"/>
      <point x="205" y="74" type="qcurve"/>
      <point x="198" y="36"/>
      <point x="137" y="0"/>
      <point x="102" y="0" type="qcurve"/>
      <point x="79" y="0"/>
      <point x="42" y="17"/>
      <point x="16" y="47"/>
      <point x="1" y="86"/>
      <point x="1" y="108" type="qcurve"/>
      <point x="1" y="165"/>
      <point x="56" y="196" type="qcurve"/>
      <point x="74" y="207"/>
      <point x="122" y="209"/>
      <point x="141" y="217" type="qcurve"/>
      <point x="161" y="226"/>
      <point x="175" y="259"/>
      <point x="167" y="291"/>
      <point x="138" y="316"/>
      <point x="115" y="316" type="qcurve"/>
      <point x="97" y="316"/>
      <point x="69" y="296"/>
      <point x="61" y="281" type="qcurve"/>
      <point x="58" y="274"/>
      <point x="56" y="258"/>
      <point x="50" y="244"/>
      <point x="40" y="237"/>
      <point x="28" y="239" type="qcurve"/>
      <point x="13" y="242"/>
      <point x="9" y="265"/>
      <point x="17" y="292"/>
      <point x="33" y="319"/>
      <point x="40" y="325" type="qcurve"/>
      <point x="70" y="352"/>
      <point x="108" y="352" type="qcurve"/>
      <point x="147" y="352"/>
      <point x="202" y="302"/>
      <point x="202" y="262" type="qcurve"/>
      <point x="202" y="205"/>
      <point x="151" y="187" type="qcurve"/>
      <point x="148" y="184"/>
      <point x="110" y="181" type="qcurve" name="hr01"/>
      <point x="72" y="178"/>
      <point x="34" y="136"/>
      <point x="34" y="90"/>
      <point x="70" y="52"/>
      <point x="104" y="52" type="qcurve"/>
      <point x="119" y="52"/>
      <point x="151" y="60"/>
      <point x="178" y="76"/>
      <point x="195" y="103"/>
      <point x="195" y="121" type="qcurve"/>
      <point x="195" y="127"/>
      <point x="204" y="133"/>
      <point x="214" y="133"/>
      <point x="223" y="127"/>
      <point x="223" y="121" type="qcurve"/>
      <point x="222" y="84"/>
      <point x="271" y="52"/>
      <point x="304" y="52" type="qcurve"/>
      <point x="325" y="52"/>
      <point x="349" y="70"/>
      <point x="359" y="93"/>
      <point x="357" y="116"/>
      <point x="350" y="122" type="qcurve"/>
      <point x="340" y="129"/>
      <point x="337" y="145"/>
      <point x="347" y="154"/>
      <point x="365" y="154"/>
      <point x="374" y="146" type="qcurve"/>
      <point x="382" y="136"/>
      <point x="392" y="107"/>
      <point x="392" y="95" type="qcurve"/>
      <point x="392" y="52"/>
      <point x="339" y="0"/>
    </contour>
    <contour>
      <point x="390" y="306" type="qcurve"/>
      <point x="372" y="306"/>
      <point x="342" y="318"/>
      <point x="319" y="337"/>
      <point x="305" y="361"/>
      <point x="303" y="372" type="qcurve"/>
      <point x="299" y="393"/>
      <point x="311" y="438"/>
      <point x="322" y="450" type="qcurve" name="hr02"/>
      <point x="215" y="450" type="line"/>
      <point x="234" y="432"/>
      <point x="234" y="401" type="qcurve"/>
      <point x="234" y="336"/>
      <point x="177" y="324" type="qcurve"/>
      <point x="139" y="340"/>
      <point x="72" y="337"/>
      <point x="34" y="321" type="qcurve"/>
      <point x="12" y="321" type="line"/>
      <point x="1" y="321"/>
      <point x="1" y="336" type="qcurve"/>
      <point x="1" y="352"/>
      <point x="12" y="352" type="qcurve"/>
      <point x="161" y="352" type="line"/>
      <point x="208" y="352"/>
      <point x="208" y="401" type="qcurve" name="hr03"/>
      <point x="208" y="420"/>
      <point x="185" y="450"/>
      <point x="166" y="450" type="qcurve"/>
      <point x="12" y="450" type="line"/>
      <point x="-8" y="450"/>
      <point x="-8" y="472" type="qcurve"/>
      <point x="-8" y="494"/>
      <point x="12" y="494" type="qcurve"/>
      <point x="388" y="494" type="line"/>
      <point x="411" y="494"/>
      <point x="448" y="472"/>
      <point x="460" y="455" type="qcurve"/>
      <point x="477" y="431"/>
      <point x="481" y="378"/>
      <point x="462" y="334"/>
      <point x="420" y="306"/>
    </contour>
    <contour>
      <point x="389" y="453" type="qcurve" name="hr04"/>
      <point x="364" y="453"/>
      <point x="328" y="421"/>
      <point x="328" y="396" type="qcurve"/>
      <point x="328" y="371"/>
      <point x="363" y="339"/>
      <point x="389" y="339" type="qcurve"/>
      <point x="414" y="339"/>
      <point x="450" y="367"/>
      <point x="450" y="396" type="qcurve"/>
      <point x="450" y="423"/>
      <point x="416" y="453"/>
    </contour>
  </outline>
</glyph>
